<?xml version="1.0" encoding="utf-8"?>
<!-- Generator: Adobe Illustrator 16.0.0, SVG Export Plug-In . SVG Version: 6.00 Build 0)  -->
<!DOCTYPE svg PUBLIC "-//W3C//DTD SVG 1.1//EN" "http://www.w3.org/Graphics/SVG/1.1/DTD/svg11.dtd">
<svg version="1.1" id="Layer_1" xmlns="http://www.w3.org/2000/svg" xmlns:xlink="http://www.w3.org/1999/xlink" x="0px" y="0px"
	 width="379px" height="100px" viewBox="-85.5 0 379 100" enable-background="new -85.5 0 379 100" xml:space="preserve">
<g id="g22-Clipped">
	<g id="g22">
	</g>
</g>
<g id="path106">
</g>
<g id="path106_1_">
</g>
<g>
	<path d="M135.197,11.132l21.816,8.592l-21.816,8.126v11.604l37.365-15.084v-9.282L135.197,0V11.132z"/>
	<path d="M-65.113,54.309c-10.45,0-18.104,4.64-18.801,14.385h11.609v-0.229c0.226-3.25,3.248-5.564,6.499-5.298
		c4.411,0,6.5,2.551,6.5,6.965v2.089h-5.3c-11.372,0-20.659,3.482-20.659,14.385v0.466c0,8.821,6.501,12.766,14.387,12.766
		c4.876,0.226,9.281-2.089,12.069-5.8v5.109h11.838V69.902C-47.2,58.76-54.865,54.35-65.076,54.35L-65.113,54.309z M-67.666,91.22
		c-4.18,0-6.034-2.093-6.034-5.113v-0.466c0-3.944,3.017-5.563,9.085-5.563h4.876v4.178c0.227,4.643-3.71,6.965-7.893,6.965H-67.666
		z M-19.154,90.746c-5.804,0-8.821-3.948-8.821-12.77v-1.39c0-8.596,3.482-12.766,8.821-12.766c4.18,0,6.5,2.784,7.193,6.965h11.606
		c-0.928-11.372-9.283-16.478-19.034-16.478c-11.609,0-20.89,7.89-20.89,22.715v0.466c0,14.854,8.821,22.281,20.89,22.281
		c11.837,0,18.568-7.194,19.496-16.943H-11.03c-0.928,4.873-3.945,7.89-8.125,7.89V90.746z M26.106,90.746
		c-5.803,0-8.819-3.948-8.819-12.77v-1.39c0-8.596,3.482-12.766,8.819-12.766c4.18,0,6.501,2.784,7.194,6.965h11.606
		c-0.928-11.372-9.283-16.478-19.036-16.478c-11.606,0-20.888,7.89-20.888,22.715v0.466c0,14.854,8.819,22.281,20.888,22.281
		c11.84,0,18.57-7.194,19.308-16.943H34.27c-0.697,4.873-3.945,7.89-8.124,7.89L26.106,90.746z M71.831,90.979
		c-5.3,0-8.594-3.017-9.086-10.91h28.317V74.92c0-14.386-9.085-20.659-19.962-20.659c-11.838,0-20.89,8.126-20.89,22.714v0.929
		c0,14.625,8.594,22.053,21.124,22.053c11.372,0,18.338-6.267,19.496-14.626H79.46c-0.466,3.482-3.945,6.037-7.659,5.564
		L71.831,90.979z M71.134,62.664c4.876,0,7.894,2.784,8.124,9.279H63.01C63.938,64.979,67.42,62.86,71.134,62.664z"/>
	<path fill="#008FFF" d="M63.01,71.943h-0.228H63.01z"/>
	<path d="M124.055,54.309c-5.564-0.229-10.674,2.551-13.229,7.424v-6.499H98.756v43.639h12.069V71.02
		c0.226-3.941,3.71-7.191,7.658-6.966c4.41,0,6.499,2.322,6.499,7.432v27.387h12.304v-29.25c0-10.677-5.302-15.32-13.231-15.32
		V54.309z M160.033,84.946V64.32h8.355v-9.087h-8.355V42.005l-12.07,5.109v8.119h-5.298v9.087h5.113v22.053
		c0,8.821,4.406,13.231,13.93,13.231c2.322,0,4.644-0.229,6.966-0.928v-9.561c-1.346,0.458-2.758,0.691-4.178,0.698
		c-2.788,0-4.414-1.626-4.414-4.88L160.033,84.946z M202.043,82.392v1.16c-0.226,3.945-3.708,7.194-7.657,6.966
		c-4.41,0-6.266-2.322-6.266-7.428V55.233h-12.304v29.479c0,10.215,5.804,15.088,13.693,15.088
		c5.346,0.255,10.344-2.655,12.766-7.428v6.499h12.304V55.233h-12.304L202.043,82.392z M235.471,63.082V54.96h-12.066v43.639h12.066
		V76.084c0-7.194,4.88-9.749,13.235-9.749v-12.07c-6.037,0-11.372,3.482-13.235,8.821V63.082z M293.266,74.731
		c0-14.386-9.083-20.423-19.96-20.423c-11.838,0-20.892,8.122-20.892,22.715v0.924c0,14.625,8.596,22.053,21.125,22.053
		c11.372,0,18.104-6.267,19.494-14.622h-11.372c-0.925,3.709-4.407,6.034-8.122,5.801c-5.302,0-8.596-3.017-9.088-10.909h28.36
		v-5.564L293.266,74.731z M264.95,71.943c0.925-7.19,4.407-9.279,8.355-9.279c4.873,0,7.89,2.784,8.122,9.279H264.95z"/>
	<path fill="#008FFF" d="M264.95,71.943"/>
</g>
</svg>
