<?xml version="1.0" encoding="utf-8"?>
<!-- Generator: Adobe Illustrator 16.0.0, SVG Export Plug-In . SVG Version: 6.00 Build 0)  -->
<!DOCTYPE svg PUBLIC "-//W3C//DTD SVG 1.1//EN" "http://www.w3.org/Graphics/SVG/1.1/DTD/svg11.dtd">
<svg version="1.1" id="Layer_1" xmlns="http://www.w3.org/2000/svg" xmlns:xlink="http://www.w3.org/1999/xlink" x="0px" y="0px"
	 width="349px" height="100px" viewBox="-70.5 0 349 100" enable-background="new -70.5 0 349 100" xml:space="preserve">
<g id="g22-Clipped">
	<g id="g22">
	</g>
</g>
<g id="path106">
</g>
<g id="path106_1_">
</g>
<g>
	<path d="M-25.482,97.51V16.726c0-5.338-3.381-6.228-5.694-6.228c-1.601,0-5.872,0.356-5.872,6.228V97.51h-10.854V16.726
		c0-6.228-5.338-6.228-5.872-6.228c-1.246,0-5.872,0.356-5.872,6.228V97.51H-70.5V16.726c0-16.548,14.591-16.548,16.192-16.548
		c5.694,0,9.075,2.491,11.565,4.27c2.669-1.957,5.872-4.27,11.566-4.27c5.694,0,16.37,2.491,16.37,16.548V97.51H-25.482z
		 M-1.639,2.491H9.038V97.51H-1.639V2.491z M68.112,97.51V16.726c0-5.338-3.381-6.228-5.694-6.228c-1.602,0-5.871,0.356-5.871,6.228
		V97.51H45.692V16.726c0-6.228-5.338-6.228-5.872-6.228c-1.067,0-5.693,0.356-5.693,6.228V97.51H23.272V16.726
		c0-16.548,14.591-16.548,16.192-16.548c5.693,0,9.074,2.491,11.744,4.27c2.668-1.957,5.871-4.27,11.565-4.27
		s16.37,2.491,16.37,16.548V97.51H68.112z M91.244,68.15V19.217C91.244,4.804,101.031,0,108.859,0c2.67,0,9.253,0.534,13.346,5.694
		c3.914,5.338,3.914,9.43,3.914,13.523V97.51h-10.854V77.758h-13.168V97.51H91.244V68.15z M115.266,68.15V19.217
		c0-3.203,0-8.719-6.584-8.719s-6.584,5.694-6.584,8.719V68.15H115.266L115.266,68.15z"/>
	<path d="M155.301,97.51c-12.277-13.168-19.572-29.895-19.572-47.688c0-17.615,7.65-34.163,19.572-47.331h15.658
		c-6.405,5.338-24.377,20.462-24.377,47.331c0,27.581,17.082,41.637,24.377,47.688H155.301z M175.941,16.726
		c0-11.032,9.075-16.548,17.616-16.548c12.455,0,17.794,9.252,17.794,16.548v66.725c0,14.059-12.634,16.549-17.616,16.549
		c-8.719,0-17.972-4.982-17.972-16.549V16.726H175.941z M186.795,80.428c0,3.381,0,8.719,7.119,8.719
		c6.761,0,6.761-5.873,6.761-8.719v-61.21c0-3.025,0-8.719-6.939-8.719c-6.94,0-6.94,5.872-6.94,8.719V80.428L186.795,80.428z
		 M267.401,97.51V16.726c0-5.338-3.381-6.228-5.694-6.228c-1.602,0-5.872,0.356-5.872,6.228V97.51H244.98V16.726
		c0-6.228-5.338-6.228-5.871-6.228c-1.068,0-5.694,0.356-5.694,6.228V97.51h-10.854V16.726c0-16.548,14.591-16.548,16.192-16.548
		c5.694,0,9.075,2.491,11.565,4.27c2.67-1.957,5.872-4.27,11.745-4.27c5.693,0,16.369,2.491,16.369,16.548V97.51H267.401z"/>
</g>
</svg>
