<?xml version="1.0" encoding="utf-8"?>
<!-- Generator: Adobe Illustrator 16.0.0, SVG Export Plug-In . SVG Version: 6.00 Build 0)  -->
<!DOCTYPE svg PUBLIC "-//W3C//DTD SVG 1.1//EN" "http://www.w3.org/Graphics/SVG/1.1/DTD/svg11.dtd">
<svg version="1.1" id="Layer_1" xmlns="http://www.w3.org/2000/svg" xmlns:xlink="http://www.w3.org/1999/xlink" x="0px" y="0px"
	 width="203px" height="155px" viewBox="0 0 203 155" enable-background="new 0 0 203 155" xml:space="preserve">
<g>
	<path fill="#7A1A1E" d="M7.971,154.2c-3.954,0-7.171-3.217-7.171-7.171V7.973C0.8,4.018,4.017,0.8,7.971,0.8h187.059
		c3.954,0,7.171,3.218,7.171,7.173v139.057c0,3.954-3.217,7.171-7.171,7.171H7.971z M11,12.2c-0.441,0-0.8,0.359-0.8,0.8v128.999
		c0,0.441,0.359,0.801,0.8,0.801h172c0.441,0,0.8-0.359,0.8-0.801V13c0-0.441-0.358-0.8-0.8-0.8H11z"/>
	<path fill="#FFFFFF" d="M195.029,0H7.971C3.587,0,0,3.588,0,7.973v139.057C0,151.414,3.587,155,7.971,155h187.059
		c4.383,0,7.971-3.586,7.971-7.971V7.973C203,3.588,199.412,0,195.029,0z M202,147.029c0,3.844-3.127,6.971-6.971,6.971H7.971
		C4.127,154,1,150.873,1,147.029V7.973C1,4.129,4.127,1,7.971,1h187.059C198.873,1,202,4.129,202,7.973V147.029z"/>
	<path fill="#FFFFFF" d="M5.5,77C5.775,77,6,77.227,6,77.502S5.775,78,5.5,78S5,77.777,5,77.502S5.225,77,5.5,77 M5.5,76
		C4.672,76,4,76.672,4,77.502C4,78.33,4.672,79,5.5,79S7,78.33,7,77.502C7,76.672,6.328,76,5.5,76L5.5,76z"/>
	<path fill="#FFFFFF" d="M192.502,73c2.48,0,4.498,2.021,4.498,4.504c0,2.48-2.018,4.496-4.498,4.496
		C190.02,82,188,79.982,188,77.502C188,75.02,190.02,73,192.502,73 M192.502,72c-3.033,0-5.502,2.471-5.502,5.502
		c0,3.033,2.469,5.498,5.502,5.498c3.031,0,5.498-2.465,5.498-5.496C198,74.469,195.533,72,192.502,72L192.502,72z"/>
	<path fill="#FFFFFF" d="M183,12H11c-0.553,0-1,0.447-1,1v128.999c0,0.554,0.447,1.001,1,1.001h172c0.553,0,1-0.447,1-1.001V13
		C184,12.447,183.553,12,183,12z M183,141.999H11V13h172V141.999z"/>
</g>
</svg>
