<?xml version="1.0" encoding="utf-8"?>
<!-- Generator: Adobe Illustrator 16.0.0, SVG Export Plug-In . SVG Version: 6.00 Build 0)  -->
<!DOCTYPE svg PUBLIC "-//W3C//DTD SVG 1.1//EN" "http://www.w3.org/Graphics/SVG/1.1/DTD/svg11.dtd">
<svg version="1.1" id="Layer_1" xmlns="http://www.w3.org/2000/svg" xmlns:xlink="http://www.w3.org/1999/xlink" x="0px" y="0px"
	 width="74px" height="144px" viewBox="0 0 74 144" enable-background="new 0 0 74 144" xml:space="preserve">
<g>
	<path fill="#7A1A1E" d="M6.729,143.201c-3.27,0-5.93-2.66-5.93-5.931V6.729c0-3.27,2.66-5.93,5.93-5.93h60.543
		c3.269,0,5.928,2.66,5.928,5.93V137.27c0,3.271-2.659,5.931-5.928,5.931H6.729z M6,14.2c-0.441,0-0.8,0.359-0.8,0.8v112
		c0,0.441,0.359,0.8,0.8,0.8h62c0.441,0,0.8-0.358,0.8-0.8V15c0-0.441-0.358-0.8-0.8-0.8H6z"/>
	<path fill="#FFFFFF" d="M67.272,0H6.729C3.02,0,0,3.019,0,6.729V137.27c0,3.711,3.02,6.73,6.729,6.73h60.543
		c3.71,0,6.728-3.02,6.728-6.73V6.729C74,3.019,70.982,0,67.272,0z M73,137.27c0,3.16-2.569,5.73-5.728,5.73H6.729
		C3.57,143,1,140.43,1,137.27V6.729C1,3.57,3.57,1,6.729,1h60.543C70.431,1,73,3.57,73,6.729V137.27z"/>
	<path fill="#FFFFFF" d="M44.5,133c1.379,0,2.5,1.121,2.5,2.5s-1.121,2.5-2.5,2.5H29.501c-1.379,0-2.501-1.121-2.501-2.5
		s1.122-2.5,2.501-2.5H44.5 M44.5,132H29.501c-1.931,0-3.501,1.57-3.501,3.5c0,1.932,1.57,3.5,3.501,3.5H44.5
		c1.93,0,3.5-1.568,3.5-3.5C48,133.571,46.43,132,44.5,132L44.5,132z"/>
	<path fill="#FFFFFF" d="M41.755,8C41.817,8,42,8.173,42,8.502C42,8.829,41.817,9,41.755,9h-9.512C32.183,9,32,8.823,32,8.502
		C32,8.178,32.183,8,32.243,8H41.755 M41.755,7h-9.512C31.559,7,31,7.674,31,8.502C31,9.328,31.559,10,32.243,10h9.512
		C42.442,10,43,9.328,43,8.502C43,7.674,42.442,7,41.755,7L41.755,7z"/>
	<path fill="#FFFFFF" d="M68,14H6c-0.553,0-1,0.447-1,1v112c0,0.553,0.447,1,1,1h62c0.553,0,1-0.447,1-1V15
		C69,14.447,68.553,14,68,14z M68,127H6V15h62V127z"/>
	<path fill="#FFFFFF" d="M27.499,8C27.775,8,28,8.225,28,8.5S27.775,9,27.499,9C27.224,9,27,8.775,27,8.5S27.224,8,27.499,8
		 M27.499,7C26.671,7,26,7.672,26,8.5s0.671,1.5,1.499,1.5C28.329,10,29,9.328,29,8.5S28.329,7,27.499,7L27.499,7z"/>
</g>
</svg>
