<?xml version="1.0" encoding="utf-8"?>
<!-- Generator: Adobe Illustrator 16.0.0, SVG Export Plug-In . SVG Version: 6.00 Build 0)  -->
<!DOCTYPE svg PUBLIC "-//W3C//DTD SVG 1.1//EN" "http://www.w3.org/Graphics/SVG/1.1/DTD/svg11.dtd">
<svg version="1.1" id="Layer_1" xmlns="http://www.w3.org/2000/svg" xmlns:xlink="http://www.w3.org/1999/xlink" x="0px" y="0px"
	 width="46px" height="46px" viewBox="0 0 46 46" enable-background="new 0 0 46 46" xml:space="preserve">
<g>
	<path d="M21.674,23.623c0,3.02-2.449,5.468-5.469,5.468c-3.019,0-5.468-2.448-5.468-5.468c0-3.021,2.449-5.469,5.468-5.469
		C19.226,18.154,21.674,20.603,21.674,23.623z M29.522,21.034l-3.453-0.454c-0.188-0.61-0.433-1.196-0.726-1.751l2.121-2.764
		c0.112-0.146,0.098-0.374-0.033-0.504l-1.336-1.335c-0.129-0.13-0.344-0.345-0.475-0.476l-1.335-1.335
		c-0.131-0.131-0.357-0.146-0.504-0.033l-2.757,2.116c-0.558-0.295-1.146-0.542-1.759-0.732l-0.453-3.442
		c-0.024-0.183-0.195-0.333-0.38-0.333h-1.889c-0.185,0-0.488,0-0.672,0h-1.889c-0.185,0-0.356,0.149-0.38,0.333l-0.452,3.441
		c-0.614,0.19-1.202,0.438-1.76,0.733l-2.757-2.116c-0.146-0.112-0.373-0.097-0.504,0.033L6.792,13.75
		c-0.131,0.131-0.344,0.345-0.476,0.476l-1.335,1.335c-0.131,0.131-0.146,0.358-0.033,0.504l2.121,2.763
		c-0.293,0.557-0.538,1.142-0.726,1.752L2.89,21.034c-0.183,0.024-0.333,0.195-0.334,0.381v1.888c0,0.185,0.001,0.487,0,0.672v1.889
		c0,0.185,0.151,0.356,0.334,0.38L6.353,26.7c0.189,0.605,0.434,1.186,0.725,1.737l-2.13,2.776
		c-0.112,0.147-0.097,0.374,0.033,0.505l1.335,1.334c0.13,0.131,0.344,0.345,0.475,0.476l1.336,1.336
		c0.13,0.131,0.358,0.145,0.504,0.033l2.782-2.135c0.55,0.288,1.127,0.531,1.73,0.717l0.457,3.476
		c0.024,0.184,0.196,0.334,0.38,0.334h1.888c0.185,0,0.488,0,0.673,0h1.889c0.185,0,0.355-0.15,0.38-0.334l0.458-3.476
		c0.602-0.187,1.179-0.429,1.728-0.717l2.784,2.135c0.147,0.112,0.374,0.099,0.504-0.033l1.335-1.336
		c0.131-0.13,0.344-0.344,0.475-0.474l1.336-1.336c0.131-0.13,0.146-0.358,0.033-0.505l-2.131-2.776
		c0.292-0.551,0.537-1.132,0.726-1.737l3.464-0.456c0.183-0.024,0.333-0.196,0.333-0.38v-1.889c0-0.184,0-0.487,0-0.672v-1.888
		C29.855,21.229,29.705,21.059,29.522,21.034z"/>
	<path d="M38.366,12.661c0,1.587-1.287,2.873-2.873,2.873c-1.586,0-2.874-1.286-2.874-2.873c0-1.586,1.287-2.873,2.874-2.873
		C37.079,9.788,38.366,11.074,38.366,12.661z M43.5,12.341v-0.829c0-0.186-0.149-0.356-0.333-0.38l-2.592-0.341
		c-0.214-0.58-0.518-1.116-0.904-1.583l0.997-2.405c0.07-0.171-0.003-0.387-0.162-0.479L39.789,5.91
		c-0.161-0.092-0.423-0.244-0.583-0.336L38.488,5.16c-0.16-0.092-0.383-0.048-0.496,0.099l-1.583,2.065
		c-0.298-0.051-0.603-0.083-0.915-0.083c-0.313,0-0.616,0.033-0.914,0.083l-1.585-2.066c-0.112-0.146-0.335-0.19-0.496-0.097
		L31.78,5.574c-0.16,0.092-0.422,0.244-0.583,0.336L30.48,6.325c-0.161,0.092-0.232,0.308-0.163,0.479l0.997,2.405
		c-0.386,0.467-0.69,1.003-0.903,1.583l-2.593,0.341c-0.182,0.024-0.333,0.194-0.333,0.38v0.83c0,0.184,0,0.487,0,0.671v0.829
		c0,0.185,0.15,0.355,0.333,0.38l2.605,0.342c0.214,0.571,0.517,1.098,0.899,1.558l-1.006,2.428c-0.07,0.17,0.003,0.386,0.163,0.479
		l0.719,0.415c0.16,0.092,0.421,0.244,0.582,0.336l0.718,0.414c0.161,0.093,0.384,0.048,0.496-0.098l1.606-2.094
		c0.292,0.048,0.588,0.079,0.893,0.079c0.305,0,0.601-0.031,0.892-0.079l1.606,2.094c0.113,0.146,0.337,0.191,0.497,0.099
		l0.718-0.415c0.159-0.092,0.422-0.244,0.582-0.336l0.718-0.415c0.159-0.092,0.232-0.309,0.163-0.478l-1.008-2.428
		c0.384-0.46,0.686-0.987,0.9-1.558l2.605-0.343c0.184-0.024,0.333-0.195,0.333-0.381v-0.829C43.5,12.829,43.5,12.526,43.5,12.341z"
		/>
	<path d="M38.366,34.584c0,1.587-1.287,2.874-2.873,2.874c-1.586,0-2.874-1.286-2.874-2.874c0-1.586,1.287-2.873,2.874-2.873
		C37.079,31.711,38.366,32.998,38.366,34.584z M43.5,34.265v-0.829c0-0.185-0.149-0.356-0.333-0.381l-2.592-0.34
		c-0.214-0.58-0.518-1.115-0.904-1.583l0.997-2.406c0.07-0.17-0.003-0.386-0.162-0.478l-0.718-0.415
		c-0.161-0.092-0.423-0.244-0.583-0.336l-0.718-0.415c-0.16-0.092-0.383-0.048-0.496,0.1l-1.583,2.065
		c-0.298-0.051-0.603-0.083-0.915-0.083c-0.313,0-0.616,0.033-0.914,0.083l-1.585-2.065c-0.112-0.146-0.335-0.191-0.496-0.099
		l-0.718,0.415c-0.16,0.092-0.422,0.244-0.583,0.336l-0.718,0.414c-0.161,0.092-0.232,0.308-0.163,0.478l0.997,2.406
		c-0.386,0.467-0.69,1.003-0.903,1.583l-2.593,0.34c-0.182,0.025-0.333,0.196-0.333,0.381v0.829c0,0.184,0,0.487,0,0.672v0.829
		c0,0.186,0.15,0.355,0.333,0.38l2.605,0.342c0.214,0.57,0.517,1.098,0.899,1.558l-1.006,2.427c-0.07,0.172,0.003,0.388,0.163,0.48
		l0.719,0.415c0.16,0.092,0.421,0.243,0.582,0.335l0.718,0.415c0.161,0.093,0.384,0.048,0.496-0.099l1.606-2.094
		c0.292,0.047,0.588,0.079,0.893,0.079c0.305,0,0.601-0.032,0.892-0.079l1.606,2.093c0.113,0.147,0.337,0.191,0.497,0.1l0.718-0.415
		c0.159-0.092,0.422-0.243,0.582-0.337l0.718-0.413c0.159-0.093,0.232-0.309,0.163-0.479l-1.008-2.429
		c0.384-0.46,0.686-0.988,0.9-1.557l2.605-0.343c0.184-0.025,0.333-0.194,0.333-0.38v-0.829C43.5,34.752,43.5,34.449,43.5,34.265z"
		/>
</g>
</svg>
