<?xml version="1.0" encoding="utf-8"?>
<!-- Generator: Adobe Illustrator 16.0.0, SVG Export Plug-In . SVG Version: 6.00 Build 0)  -->
<!DOCTYPE svg PUBLIC "-//W3C//DTD SVG 1.1//EN" "http://www.w3.org/Graphics/SVG/1.1/DTD/svg11.dtd">
<svg version="1.1" id="Layer_1" xmlns="http://www.w3.org/2000/svg" xmlns:xlink="http://www.w3.org/1999/xlink" x="0px" y="0px"
	 width="46px" height="46px" viewBox="0 0 46 46" enable-background="new 0 0 46 46" xml:space="preserve">
<path d="M14.695,21.911l0.322-2.185c0,0,5.397-2.762,9.004-1.877c3.178,0.779,4.796,2.432,4.378,6.167
	c-0.395,3.517-2.882,10.566-3.027,12.33c-0.193,2.351,0.354,3.799,2.737,3.51c1.538-0.188,3.026-0.644,3.026-0.644l-0.387,2.093
	c0,0-3.129,1.662-5.667,2.027c-3.799,0.547-8.756-0.805-7.887-6.246c0.676-4.234,3.09-12.587,3.09-12.587
	c0.322-1.095-0.165-2.505-0.837-2.898C17.581,20.506,14.695,21.911,14.695,21.911z M26.821,4.473c-2.686,0-4.862,2.068-4.862,4.62
	c0,2.551,2.177,4.62,4.862,4.62c2.684,0,4.861-2.068,4.861-4.62C31.682,6.541,29.505,4.473,26.821,4.473z"/>
</svg>
