<?xml version="1.0" encoding="utf-8"?>
<!-- Generator: Adobe Illustrator 16.0.0, SVG Export Plug-In . SVG Version: 6.00 Build 0)  -->
<!DOCTYPE svg PUBLIC "-//W3C//DTD SVG 1.1//EN" "http://www.w3.org/Graphics/SVG/1.1/DTD/svg11.dtd">
<svg version="1.1" id="Layer_1" xmlns="http://www.w3.org/2000/svg" xmlns:xlink="http://www.w3.org/1999/xlink" x="0px" y="0px"
	 width="32px" height="32px" viewBox="0 0 32 32" enable-background="new 0 0 32 32" xml:space="preserve">
<g>
	<path d="M21.971,1.167l4.321,6.39l-1.447,1.119l-5.569-7.811l0.549-0.383C18.597,0.179,17.32,0,16,0C7.177,0,0,7.178,0,16
		s7.177,16,16,16c8.823,0,16-7.178,16-16C32,9.289,27.842,3.539,21.971,1.167z M17.425,2.446l6.98,6.723l-1.295,1.4l-7.181-6.552
		L17.425,2.446z M14.358,6.103l8.564,4.871l-0.911,1.666l-8.642-4.726L14.358,6.103z M12.367,10.149l9.425,2.967l-0.531,1.827
		l-9.494-2.717L12.367,10.149z M11.22,14.315l9.945,1.196l-0.184,1.923l-9.957-1.066L11.22,14.315z M11.024,18.056h9.951v2.063
		h-9.951V18.056z M24.984,22.011v2.063h-2.063H9.078H7.015v-2.063v-7.889h2.063v7.889h13.844v-7.889h2.063V22.011z"/>
</g>
</svg>
