<?xml version="1.0" encoding="utf-8"?>
<!-- Generator: Adobe Illustrator 16.0.0, SVG Export Plug-In . SVG Version: 6.00 Build 0)  -->
<!DOCTYPE svg PUBLIC "-//W3C//DTD SVG 1.1//EN" "http://www.w3.org/Graphics/SVG/1.1/DTD/svg11.dtd">
<svg version="1.1" id="Layer_1" xmlns="http://www.w3.org/2000/svg" xmlns:xlink="http://www.w3.org/1999/xlink" x="0px" y="0px"
	 width="32px" height="32px" viewBox="0 0 32 32" enable-background="new 0 0 32 32" xml:space="preserve">
<g>
	<polygon points="7.72,14.562 7.72,17.438 9.87,16 	"/>
	<polygon points="16.001,13.966 12.961,16 16.001,18.032 19.039,16 	"/>
	<polygon points="23.592,12.954 16.86,8.466 16.86,12.474 20.585,14.966 	"/>
	<polygon points="15.142,12.474 15.142,8.466 8.409,12.954 11.416,14.966 	"/>
	<polygon points="8.409,19.045 15.142,23.533 15.142,19.524 11.416,17.034 	"/>
	<path d="M16,0C7.177,0,0,7.178,0,16s7.177,16,16,16c8.822,0,16-7.178,16-16S24.822,0,16,0z M25.998,19.046
		c0,0.038-0.003,0.075-0.008,0.113c-0.001,0.012-0.004,0.024-0.008,0.036c-0.003,0.025-0.007,0.049-0.014,0.073
		c-0.005,0.013-0.009,0.027-0.014,0.042c-0.007,0.02-0.014,0.042-0.022,0.063c-0.005,0.015-0.013,0.027-0.019,0.042
		c-0.01,0.02-0.019,0.039-0.029,0.058c-0.008,0.012-0.017,0.026-0.024,0.039c-0.012,0.018-0.024,0.036-0.037,0.052
		c-0.009,0.013-0.019,0.026-0.028,0.038c-0.014,0.015-0.028,0.031-0.043,0.046c-0.012,0.011-0.022,0.022-0.035,0.034
		c-0.016,0.014-0.031,0.028-0.048,0.041c-0.013,0.009-0.026,0.02-0.039,0.029c-0.005,0.003-0.01,0.007-0.015,0.01l-9.139,6.093
		c-0.144,0.097-0.31,0.145-0.475,0.145c-0.167,0-0.333-0.048-0.477-0.145l-9.14-6.093c-0.004-0.003-0.009-0.007-0.014-0.01
		c-0.013-0.009-0.026-0.02-0.039-0.029c-0.016-0.013-0.033-0.027-0.048-0.041c-0.013-0.011-0.023-0.022-0.035-0.034
		c-0.014-0.015-0.029-0.031-0.042-0.046c-0.01-0.012-0.021-0.025-0.03-0.038c-0.013-0.017-0.025-0.034-0.036-0.052
		c-0.008-0.013-0.016-0.027-0.024-0.039c-0.011-0.019-0.021-0.038-0.03-0.058c-0.006-0.014-0.013-0.027-0.019-0.042
		c-0.009-0.021-0.016-0.042-0.022-0.063c-0.005-0.014-0.009-0.028-0.013-0.042c-0.007-0.024-0.01-0.048-0.015-0.073
		c-0.002-0.012-0.005-0.024-0.007-0.036c-0.005-0.038-0.007-0.075-0.007-0.113v-6.093c0-0.038,0.002-0.075,0.007-0.112
		c0.001-0.012,0.004-0.025,0.007-0.038c0.004-0.023,0.008-0.048,0.015-0.072c0.004-0.014,0.008-0.027,0.013-0.041
		c0.007-0.021,0.014-0.043,0.022-0.063c0.006-0.014,0.013-0.029,0.019-0.042c0.009-0.02,0.019-0.038,0.03-0.057
		c0.008-0.014,0.017-0.026,0.024-0.039c0.011-0.019,0.023-0.036,0.036-0.053c0.009-0.012,0.02-0.025,0.03-0.037
		c0.013-0.016,0.028-0.031,0.042-0.047C6.26,12.341,6.27,12.33,6.283,12.32c0.016-0.014,0.032-0.028,0.048-0.042
		c0.013-0.01,0.025-0.02,0.039-0.029c0.005-0.003,0.01-0.007,0.014-0.011l9.14-6.092c0.289-0.192,0.664-0.192,0.952,0l9.139,6.092
		c0.005,0.003,0.01,0.007,0.015,0.011c0.013,0.01,0.026,0.02,0.039,0.029c0.017,0.013,0.032,0.027,0.048,0.042
		c0.013,0.01,0.023,0.021,0.035,0.033c0.015,0.016,0.029,0.031,0.043,0.047c0.01,0.012,0.02,0.025,0.028,0.037
		c0.013,0.018,0.025,0.035,0.037,0.053c0.008,0.013,0.017,0.025,0.024,0.039c0.011,0.02,0.02,0.037,0.029,0.057
		c0.006,0.014,0.014,0.028,0.019,0.042c0.009,0.02,0.016,0.041,0.022,0.063c0.005,0.014,0.009,0.027,0.014,0.041
		c0.007,0.024,0.011,0.049,0.014,0.072c0.004,0.013,0.007,0.025,0.008,0.038c0.005,0.037,0.008,0.074,0.008,0.112V19.046z"/>
	<polygon points="16.86,19.524 16.86,23.533 23.592,19.045 20.585,17.034 	"/>
	<polygon points="24.279,17.438 24.279,14.562 22.13,16 	"/>
</g>
</svg>
