<?xml version="1.0" encoding="utf-8"?>
<!-- Generator: Adobe Illustrator 16.0.0, SVG Export Plug-In . SVG Version: 6.00 Build 0)  -->
<!DOCTYPE svg PUBLIC "-//W3C//DTD SVG 1.1//EN" "http://www.w3.org/Graphics/SVG/1.1/DTD/svg11.dtd">
<svg version="1.1" id="Layer_1" xmlns="http://www.w3.org/2000/svg" xmlns:xlink="http://www.w3.org/1999/xlink" x="0px" y="0px"
	 width="32px" height="32px" viewBox="0 0 32 32" enable-background="new 0 0 32 32" xml:space="preserve">
<g>
	<g>
		<path d="M16,0C7.178,0,0,7.178,0,16s7.178,16,16,16s16-7.178,16-16S24.822,0,16,0z M16,30.346C8.077,30.346,1.655,23.923,1.655,16
			S8.077,1.655,16,1.655S30.346,8.077,30.346,16S23.923,30.346,16,30.346z M25.778,16.187c-0.161-0.63-0.42-1.192-0.78-1.684
			c-0.362-0.493-0.822-0.886-1.384-1.176c-0.564-0.294-1.221-0.439-1.972-0.439c-0.68,0-1.294,0.121-1.851,0.361
			c-0.558,0.241-1.034,0.572-1.438,0.99c-0.402,0.416-0.708,0.912-0.93,1.487c-0.216,0.574-0.327,1.192-0.327,1.856
			c0,0.687,0.106,1.32,0.319,1.891c0.214,0.576,0.514,1.065,0.9,1.479c0.398,0.413,0.869,0.729,1.434,0.955
			c0.565,0.223,1.194,0.335,1.893,0.335c1.003,0,1.863-0.229,2.569-0.69c0.715-0.459,1.238-1.223,1.584-2.29h-2.146
			c-0.084,0.274-0.3,0.539-0.653,0.787c-0.355,0.248-0.779,0.372-1.271,0.372c-0.684,0-1.212-0.18-1.578-0.536
			c-0.366-0.356-0.602-1.02-0.602-1.722h6.403C25.994,17.474,25.938,16.817,25.778,16.187z M19.544,16.626
			c0.011-0.172,0.048-0.369,0.111-0.584c0.063-0.222,0.169-0.429,0.327-0.625c0.158-0.192,0.364-0.357,0.617-0.489
			c0.259-0.134,0.58-0.199,0.97-0.199c0.599,0,1.089,0.173,1.378,0.494c0.291,0.323,0.504,0.783,0.563,1.403H19.544z M24.014,10.579
			h-4.968v1.209h4.968V10.579z M14.064,15.346c0.552-0.262,0.967-0.599,1.25-1.011c0.28-0.412,0.419-0.927,0.419-1.544
			c0-0.57-0.093-1.053-0.279-1.438c-0.192-0.391-0.459-0.701-0.801-0.935c-0.348-0.233-0.757-0.404-1.238-0.506
			c-0.483-0.105-1.013-0.155-1.6-0.155H6.038v12.255h5.939c0.551,0,1.086-0.068,1.602-0.206c0.523-0.138,0.988-0.348,1.395-0.636
			c0.403-0.285,0.73-0.654,0.97-1.11c0.238-0.449,0.356-0.984,0.356-1.606c0-0.766-0.183-1.42-0.555-1.967
			C15.376,15.945,14.817,15.563,14.064,15.346z M8.736,11.845h2.524c0.24,0,0.473,0.018,0.695,0.061
			c0.225,0.039,0.42,0.111,0.594,0.214c0.173,0.102,0.311,0.244,0.416,0.426c0.1,0.184,0.149,0.42,0.149,0.705
			c0,0.514-0.149,0.887-0.46,1.114c-0.314,0.23-0.71,0.343-1.188,0.343H8.736V11.845z M13.447,19.101
			c-0.108,0.206-0.258,0.369-0.438,0.488c-0.182,0.125-0.394,0.208-0.636,0.261c-0.237,0.053-0.49,0.077-0.756,0.077h-2.88v-3.375
			h2.935c0.581,0,1.053,0.134,1.407,0.402c0.354,0.272,0.531,0.72,0.531,1.352C13.608,18.628,13.556,18.895,13.447,19.101z"/>
	</g>
</g>
</svg>
