<?xml version="1.0" encoding="utf-8"?>
<!-- Generator: Adobe Illustrator 16.0.0, SVG Export Plug-In . SVG Version: 6.00 Build 0)  -->
<!DOCTYPE svg PUBLIC "-//W3C//DTD SVG 1.1//EN" "http://www.w3.org/Graphics/SVG/1.1/DTD/svg11.dtd">
<svg version="1.1" id="Layer_1" xmlns="http://www.w3.org/2000/svg" xmlns:xlink="http://www.w3.org/1999/xlink" x="0px" y="0px"
	 width="64px" height="64px" viewBox="0 0 64 64" enable-background="new 0 0 64 64" xml:space="preserve">
<g>
	<polygon points="30.282,24.949 30.282,16.932 16.816,25.908 22.832,29.932 	"/>
	<polygon points="15.439,29.124 15.439,34.875 19.74,32 	"/>
	<polygon points="47.184,25.908 33.721,16.932 33.721,24.949 41.17,29.932 	"/>
	<polygon points="16.816,38.09 30.282,47.066 30.282,39.051 22.832,34.066 	"/>
	<polygon points="48.561,34.875 48.561,29.124 44.262,32 	"/>
	<polygon points="32.001,27.934 25.922,32 32.001,36.064 38.079,32 	"/>
	<path d="M32,0C14.355,0,0,14.355,0,32c0,17.645,14.355,32,32,32c17.645,0,32-14.355,32-32C64,14.355,49.645,0,32,0z M51.996,38.092
		c0,0.076-0.005,0.15-0.016,0.227c-0.002,0.023-0.008,0.048-0.015,0.07c-0.007,0.051-0.016,0.101-0.028,0.146
		c-0.008,0.027-0.019,0.055-0.027,0.082c-0.014,0.043-0.028,0.084-0.043,0.127c-0.012,0.029-0.027,0.057-0.039,0.082
		c-0.018,0.039-0.037,0.078-0.059,0.115c-0.016,0.026-0.031,0.055-0.049,0.08c-0.023,0.035-0.048,0.069-0.074,0.104
		c-0.019,0.027-0.037,0.051-0.058,0.074c-0.028,0.031-0.058,0.063-0.086,0.094c-0.022,0.023-0.045,0.045-0.067,0.066
		c-0.031,0.027-0.064,0.057-0.099,0.082c-0.024,0.02-0.05,0.041-0.077,0.059c-0.01,0.008-0.02,0.014-0.029,0.021L32.953,51.707
		c-0.288,0.193-0.621,0.291-0.952,0.291c-0.333,0-0.666-0.098-0.954-0.291L12.769,39.521c-0.009-0.008-0.019-0.015-0.029-0.021
		c-0.026-0.018-0.051-0.039-0.077-0.059c-0.034-0.025-0.066-0.055-0.097-0.082c-0.025-0.021-0.046-0.043-0.07-0.066
		c-0.029-0.031-0.058-0.063-0.085-0.094c-0.02-0.023-0.04-0.047-0.059-0.074c-0.025-0.033-0.049-0.068-0.072-0.104
		c-0.018-0.025-0.033-0.054-0.049-0.08c-0.021-0.037-0.041-0.076-0.059-0.115c-0.012-0.025-0.025-0.053-0.038-0.082
		c-0.017-0.043-0.031-0.084-0.044-0.127c-0.009-0.027-0.019-0.055-0.027-0.082c-0.013-0.047-0.021-0.096-0.03-0.146
		c-0.004-0.022-0.01-0.047-0.014-0.07c-0.009-0.075-0.015-0.149-0.015-0.227V25.906c0-0.076,0.006-0.151,0.015-0.225
		c0.003-0.024,0.01-0.05,0.014-0.074c0.009-0.047,0.017-0.097,0.03-0.145c0.008-0.029,0.018-0.056,0.027-0.083
		c0.014-0.043,0.028-0.085,0.044-0.125c0.012-0.028,0.025-0.058,0.038-0.084c0.019-0.04,0.038-0.077,0.059-0.114
		c0.016-0.025,0.032-0.053,0.049-0.078c0.023-0.037,0.047-0.07,0.072-0.104c0.019-0.024,0.04-0.05,0.059-0.075
		c0.027-0.031,0.056-0.063,0.085-0.093c0.024-0.022,0.045-0.046,0.07-0.065c0.031-0.029,0.063-0.058,0.097-0.084
		c0.025-0.02,0.05-0.039,0.077-0.058c0.011-0.007,0.021-0.015,0.029-0.021l18.278-12.187c0.578-0.385,1.329-0.385,1.906,0
		L51.23,24.479c0.01,0.006,0.021,0.014,0.029,0.021c0.027,0.019,0.053,0.038,0.077,0.058c0.034,0.027,0.067,0.055,0.099,0.084
		c0.022,0.02,0.045,0.041,0.067,0.065c0.028,0.03,0.058,0.062,0.086,0.093c0.021,0.024,0.039,0.051,0.058,0.075
		c0.025,0.034,0.051,0.067,0.074,0.104c0.018,0.025,0.033,0.053,0.049,0.078c0.021,0.037,0.041,0.075,0.059,0.114
		c0.012,0.026,0.027,0.056,0.039,0.084c0.016,0.04,0.029,0.082,0.043,0.125c0.009,0.027,0.02,0.054,0.027,0.083
		c0.013,0.048,0.021,0.098,0.028,0.145c0.007,0.024,0.013,0.05,0.015,0.074c0.011,0.073,0.016,0.147,0.016,0.225V38.092
		L51.996,38.092z"/>
	<polygon points="33.721,39.051 33.721,47.066 47.184,38.09 41.17,34.066 	"/>
</g>
</svg>
