<?xml version="1.0" encoding="utf-8"?>
<!-- Generator: Adobe Illustrator 16.0.0, SVG Export Plug-In . SVG Version: 6.00 Build 0)  -->
<!DOCTYPE svg PUBLIC "-//W3C//DTD SVG 1.1//EN" "http://www.w3.org/Graphics/SVG/1.1/DTD/svg11.dtd">
<svg version="1.1" id="Layer_1" xmlns="http://www.w3.org/2000/svg" xmlns:xlink="http://www.w3.org/1999/xlink" x="0px" y="0px"
	 width="34px" height="34px" viewBox="0 0 34 34" enable-background="new 0 0 34 34" xml:space="preserve">
<g>
	<path d="M13.655,15.365c0.311-0.227,0.46-0.601,0.46-1.114c0-0.285-0.05-0.521-0.149-0.705c-0.105-0.182-0.243-0.325-0.416-0.426
		c-0.174-0.103-0.369-0.175-0.594-0.214c-0.223-0.043-0.456-0.061-0.695-0.061H9.736v2.864h2.732
		C12.945,15.708,13.341,15.595,13.655,15.365z"/>
	<path d="M22.569,15.729c-0.39,0-0.711,0.065-0.97,0.199c-0.253,0.132-0.459,0.296-0.617,0.489
		c-0.158,0.196-0.264,0.403-0.327,0.625c-0.063,0.216-0.1,0.413-0.111,0.584h3.965c-0.059-0.621-0.271-1.081-0.563-1.403
		C23.658,15.902,23.168,15.729,22.569,15.729z"/>
	<path d="M12.67,17.551H9.736v3.375h2.88c0.266,0,0.519-0.024,0.756-0.077c0.242-0.053,0.455-0.136,0.636-0.261
		c0.18-0.119,0.331-0.282,0.438-0.488c0.108-0.206,0.161-0.473,0.161-0.795c0-0.632-0.178-1.08-0.531-1.352
		C13.723,17.685,13.251,17.551,12.67,17.551z"/>
	<path d="M17,1C8.178,1,1,8.178,1,17s7.178,16,16,16s16-7.178,16-16S25.822,1,17,1z M20.045,11.579h4.968v1.209h-4.968V11.579z
		 M16.944,21.061c-0.24,0.456-0.567,0.825-0.97,1.11c-0.406,0.288-0.872,0.498-1.395,0.636c-0.516,0.138-1.051,0.206-1.602,0.206
		H7.038V10.757h5.777c0.586,0,1.117,0.05,1.6,0.155c0.481,0.102,0.891,0.273,1.238,0.506c0.341,0.234,0.608,0.544,0.801,0.935
		c0.186,0.386,0.279,0.869,0.279,1.438c0,0.617-0.139,1.132-0.419,1.544c-0.283,0.412-0.698,0.749-1.25,1.011
		c0.753,0.217,1.313,0.599,1.682,1.141c0.373,0.547,0.555,1.201,0.555,1.967C17.301,20.077,17.182,20.612,16.944,21.061z
		 M21.146,20.885c0.365,0.356,0.894,0.536,1.578,0.536c0.492,0,0.916-0.124,1.271-0.372c0.354-0.248,0.569-0.513,0.653-0.787h2.146
		c-0.346,1.067-0.869,1.83-1.584,2.29c-0.706,0.46-1.565,0.69-2.569,0.69c-0.699,0-1.328-0.112-1.893-0.335
		c-0.564-0.227-1.036-0.542-1.434-0.955c-0.387-0.414-0.686-0.903-0.9-1.479c-0.213-0.571-0.319-1.205-0.319-1.891
		c0-0.664,0.111-1.283,0.327-1.856c0.223-0.575,0.528-1.071,0.93-1.487c0.403-0.418,0.88-0.749,1.438-0.99
		c0.557-0.24,1.171-0.361,1.851-0.361c0.751,0,1.408,0.145,1.972,0.439c0.562,0.29,1.021,0.684,1.384,1.176
		c0.36,0.491,0.619,1.054,0.78,1.684c0.159,0.63,0.216,1.288,0.169,1.977h-6.403C20.544,19.865,20.78,20.528,21.146,20.885z"/>
</g>
</svg>
