<?xml version="1.0" encoding="utf-8"?>
<!-- Generator: Adobe Illustrator 16.0.0, SVG Export Plug-In . SVG Version: 6.00 Build 0)  -->
<!DOCTYPE svg PUBLIC "-//W3C//DTD SVG 1.1//EN" "http://www.w3.org/Graphics/SVG/1.1/DTD/svg11.dtd">
<svg version="1.1" id="Layer_1" xmlns="http://www.w3.org/2000/svg" xmlns:xlink="http://www.w3.org/1999/xlink" x="0px" y="0px"
	 width="66px" height="50px" viewBox="0 0 66 50" enable-background="new 0 0 66 50" xml:space="preserve">
<g>
	<path opacity="0.4" d="M2,7c0-2.762,2.238-5,5-5h54c0.864,0,1.665,0.239,2.375,0.625C62.527,1.068,60.897,0,59,0H5
		C2.238,0,0,2.238,0,5c0,1.897,1.068,3.527,2.625,4.375C2.239,8.665,2,7.864,2,7z"/>
	<path opacity="0.4" d="M2,26c0-2.762,2.238-5,5-5h54c0.864,0,1.665,0.239,2.375,0.625C62.527,20.068,60.897,19,59,19H5
		c-2.762,0-5,2.238-5,5c0,1.897,1.068,3.527,2.625,4.375C2.239,27.665,2,26.864,2,26z"/>
	<path opacity="0.4" d="M2,45c0-2.762,2.238-5,5-5h54c0.864,0,1.665,0.239,2.375,0.625C62.527,39.068,60.897,38,59,38H5
		c-2.762,0-5,2.238-5,5c0,1.897,1.068,3.527,2.625,4.375C2.239,46.665,2,45.864,2,45z"/>
	<path opacity="0.4" fill="#FFFFFF" d="M7,2h54c2.762,0,5,2.238,5,5s-2.238,5-5,5H7c-2.762,0-5-2.238-5-5S4.238,2,7,2z"/>
	<path opacity="0.4" fill="#FFFFFF" d="M7,21h54c2.762,0,5,2.238,5,5s-2.238,5-5,5H7c-2.762,0-5-2.238-5-5S4.238,21,7,21z"/>
	<path opacity="0.4" fill="#FFFFFF" d="M7,40h54c2.762,0,5,2.238,5,5s-2.238,5-5,5H7c-2.762,0-5-2.238-5-5S4.238,40,7,40z"/>
</g>
</svg>
