<?xml version="1.0" encoding="utf-8"?>
<!-- Generator: Adobe Illustrator 16.0.0, SVG Export Plug-In . SVG Version: 6.00 Build 0)  -->
<!DOCTYPE svg PUBLIC "-//W3C//DTD SVG 1.1//EN" "http://www.w3.org/Graphics/SVG/1.1/DTD/svg11.dtd">
<svg version="1.1" id="Layer_1" xmlns="http://www.w3.org/2000/svg" xmlns:xlink="http://www.w3.org/1999/xlink" x="0px" y="0px"
	 width="32px" height="32px" viewBox="0 0 32 32" enable-background="new 0 0 32 32" xml:space="preserve">
<path d="M16,0C7.177,0,0,7.178,0,16s7.177,16,16,16c8.823,0,16-7.178,16-16S24.823,0,16,0z M11.533,24.075H8.177V13.288h3.355
	V24.075z M9.855,11.813c-1.077,0-1.945-0.871-1.945-1.944c0-1.073,0.869-1.944,1.945-1.944c1.072,0,1.943,0.871,1.943,1.944
	C11.799,10.943,10.928,11.813,9.855,11.813z M24.089,24.075h-3.351v-5.246c0-1.252-0.022-2.86-1.743-2.86
	c-1.746,0-2.011,1.363-2.011,2.771v5.335h-3.349V13.288h3.214v1.474h0.046c0.446-0.848,1.542-1.742,3.172-1.742
	c3.395,0,4.021,2.233,4.021,5.139V24.075z"/>
</svg>
