<?xml version="1.0" encoding="utf-8"?>
<!-- Generator: Adobe Illustrator 16.0.0, SVG Export Plug-In . SVG Version: 6.00 Build 0)  -->
<!DOCTYPE svg PUBLIC "-//W3C//DTD SVG 1.1//EN" "http://www.w3.org/Graphics/SVG/1.1/DTD/svg11.dtd">
<svg version="1.1" id="Layer_1" xmlns="http://www.w3.org/2000/svg" xmlns:xlink="http://www.w3.org/1999/xlink" x="0px" y="0px"
	 width="46px" height="46px" viewBox="0 0 46 46" enable-background="new 0 0 46 46" xml:space="preserve">
<path d="M37.228,36.646c0.038-0.605-1.149-2.698-2.507-4.728s-2.887-3.996-3.532-4.349c-0.668-0.363-1.339-0.285-1.974-0.014
	c-0.636,0.271-1.236,0.735-1.763,1.142c-0.026,0.021-0.052,0.042-0.079,0.063l7.394,11.111c0.072-0.047,0.143-0.093,0.214-0.142
	C36.132,38.945,37.149,37.894,37.228,36.646z M19.896,17.341c0.578-0.328,1.238-0.703,1.734-1.184
	c0.496-0.482,0.827-1.07,0.749-1.827c-0.075-0.732-1.298-2.901-2.646-4.938c-1.347-2.036-2.819-3.939-3.393-4.138
	c-1.182-0.41-2.544,0.123-3.711,0.882c-0.072,0.047-0.143,0.095-0.213,0.143l7.394,11.112
	C19.837,17.373,19.867,17.357,19.896,17.341z M25.368,30.453c-0.565,0.511-0.941,0.874-0.941,0.874
	c-3.135-1.872-4.462-3.414-5.581-5.096c-1.12-1.681-2.03-3.501-2.545-7.116c0,0,0.48-0.207,1.171-0.531
	c0.122-0.058,0.254-0.122,0.389-0.187L10.728,7.679c-0.279,0.274-0.502,0.52-0.649,0.7c-0.89,1.09-1.381,2.266-1.609,3.562
	c-0.229,1.296-0.195,2.71-0.035,4.277c0.268,2.625,0.975,4.987,1.944,7.188c0.969,2.201,2.203,4.241,3.522,6.224
	c1.319,1.983,2.7,3.872,4.331,5.579c1.631,1.707,3.512,3.234,5.831,4.495c1.382,0.752,2.674,1.33,3.958,1.619
	c1.283,0.291,2.558,0.292,3.908-0.108c0.223-0.065,0.535-0.177,0.896-0.328l-7.133-10.72C25.579,30.265,25.47,30.362,25.368,30.453z
	"/>
</svg>
