<?xml version="1.0" encoding="utf-8"?>
<!-- Generator: Adobe Illustrator 16.0.0, SVG Export Plug-In . SVG Version: 6.00 Build 0)  -->
<!DOCTYPE svg PUBLIC "-//W3C//DTD SVG 1.1//EN" "http://www.w3.org/Graphics/SVG/1.1/DTD/svg11.dtd">
<svg version="1.1" id="Layer_1" xmlns="http://www.w3.org/2000/svg" xmlns:xlink="http://www.w3.org/1999/xlink" x="0px" y="0px"
	 width="32px" height="32px" viewBox="0 0 32 32" enable-background="new 0 0 32 32" xml:space="preserve">
<g>
	<g>
		<path d="M16,0C7.178,0,0,7.178,0,16s7.178,16,16,16s16-7.178,16-16S24.822,0,16,0z M16,30.345C8.077,30.345,1.655,23.923,1.655,16
			S8.077,1.655,16,1.655S30.345,8.077,30.345,16S23.923,30.345,16,30.345z M18.585,6.878c-0.373-0.373-1-0.632-1.528-0.632H9.304
			c-0.76,0-1.379,0.619-1.379,1.379v16.75c0,0.761,0.619,1.38,1.379,1.38h13.391c0.761,0,1.379-0.619,1.379-1.38V13.263
			c0-0.527-0.26-1.155-0.632-1.527L18.585,6.878z M18.437,9.071l2.813,2.812h-2.813V9.071z M22.419,24.099H9.581V7.901h7.202v4.258
			c0,0.76,0.618,1.379,1.378,1.379h4.258V24.099z M15.757,16.56l1.844,5.669h1.797l1.845-5.669h-1.86l-0.749,3.332l-0.115,0.607
			l-0.031-0.005l-0.105-0.603l-0.76-3.332H15.757z M12.962,18.23c0.135-0.276,0.369-0.414,0.705-0.414
			c0.241,0,0.421,0.084,0.54,0.254c0.119,0.169,0.179,0.388,0.179,0.658h1.619l0.01-0.031c0.014-0.692-0.194-1.239-0.624-1.64
			c-0.429-0.402-1.004-0.603-1.724-0.603c-0.853,0-1.511,0.268-1.975,0.805c-0.464,0.536-0.697,1.229-0.697,2.078v0.121
			c0,0.853,0.233,1.545,0.7,2.08c0.466,0.535,1.128,0.802,1.988,0.802c0.685,0,1.249-0.195,1.69-0.584
			c0.442-0.39,0.656-0.894,0.642-1.512l-0.01-0.031h-1.619c0,0.25-0.058,0.442-0.173,0.571c-0.115,0.129-0.292,0.194-0.53,0.194
			c-0.345,0-0.585-0.135-0.72-0.403c-0.135-0.269-0.202-0.641-0.202-1.116v-0.121C12.76,18.875,12.827,18.507,12.962,18.23z"/>
	</g>
</g>
</svg>
