<?xml version="1.0" encoding="utf-8"?>
<!-- Generator: Adobe Illustrator 16.0.0, SVG Export Plug-In . SVG Version: 6.00 Build 0)  -->
<!DOCTYPE svg PUBLIC "-//W3C//DTD SVG 1.1//EN" "http://www.w3.org/Graphics/SVG/1.1/DTD/svg11.dtd">
<svg version="1.1" id="Layer_1" xmlns="http://www.w3.org/2000/svg" xmlns:xlink="http://www.w3.org/1999/xlink" x="0px" y="0px"
	 width="32px" height="32px" viewBox="0 0 32 32" enable-background="new 0 0 32 32" xml:space="preserve">
<g>
	<g>
		<path d="M16,0C7.177,0,0,7.178,0,16s7.177,16,16,16c8.822,0,16-7.178,16-16S24.822,0,16,0z M16,30.345
			C8.077,30.345,1.655,23.923,1.655,16S8.077,1.655,16,1.655S30.345,8.077,30.345,16S23.923,30.345,16,30.345z M25.982,12.804
			c-0.003-0.023-0.007-0.048-0.014-0.072c-0.005-0.014-0.009-0.027-0.014-0.041c-0.007-0.021-0.014-0.043-0.022-0.063
			c-0.005-0.014-0.013-0.029-0.019-0.042c-0.01-0.02-0.019-0.038-0.029-0.057c-0.008-0.014-0.017-0.026-0.024-0.039
			c-0.012-0.019-0.024-0.036-0.037-0.053c-0.009-0.012-0.019-0.025-0.028-0.037c-0.014-0.016-0.028-0.031-0.043-0.047
			c-0.012-0.011-0.022-0.023-0.035-0.033c-0.016-0.014-0.031-0.028-0.048-0.042c-0.013-0.01-0.026-0.02-0.039-0.029
			c-0.005-0.003-0.01-0.007-0.015-0.011l-9.139-6.092c-0.289-0.192-0.664-0.192-0.952,0l-9.14,6.092
			c-0.004,0.003-0.009,0.007-0.014,0.011c-0.013,0.01-0.026,0.02-0.039,0.029c-0.016,0.013-0.033,0.027-0.048,0.042
			c-0.013,0.01-0.023,0.021-0.035,0.033c-0.014,0.016-0.029,0.031-0.042,0.047c-0.01,0.012-0.021,0.025-0.03,0.037
			c-0.013,0.018-0.025,0.035-0.036,0.053c-0.008,0.013-0.016,0.025-0.024,0.039c-0.011,0.02-0.021,0.037-0.03,0.057
			c-0.006,0.014-0.013,0.028-0.019,0.042c-0.009,0.02-0.016,0.041-0.022,0.063c-0.005,0.014-0.009,0.027-0.013,0.041
			c-0.007,0.024-0.01,0.049-0.015,0.072c-0.002,0.013-0.005,0.025-0.007,0.038c-0.005,0.037-0.007,0.074-0.007,0.112v6.093
			c0,0.038,0.002,0.075,0.007,0.113c0.001,0.012,0.004,0.024,0.007,0.036c0.004,0.025,0.008,0.049,0.015,0.073
			c0.004,0.013,0.008,0.027,0.013,0.042c0.007,0.02,0.014,0.042,0.022,0.063c0.006,0.015,0.013,0.027,0.019,0.042
			c0.009,0.02,0.019,0.039,0.03,0.058c0.008,0.012,0.017,0.026,0.024,0.039c0.011,0.018,0.023,0.036,0.036,0.052
			c0.009,0.013,0.02,0.026,0.03,0.038c0.013,0.015,0.028,0.031,0.042,0.046c0.012,0.011,0.022,0.022,0.035,0.034
			c0.016,0.014,0.032,0.028,0.048,0.041c0.013,0.009,0.025,0.02,0.039,0.029c0.005,0.003,0.01,0.007,0.014,0.01l9.14,6.093
			c0.144,0.097,0.31,0.145,0.477,0.145c0.165,0,0.332-0.048,0.475-0.145l9.139-6.093c0.005-0.003,0.01-0.007,0.015-0.01
			c0.013-0.009,0.026-0.02,0.039-0.029c0.017-0.013,0.032-0.027,0.048-0.041c0.013-0.011,0.023-0.022,0.035-0.034
			c0.015-0.015,0.029-0.031,0.043-0.046c0.01-0.012,0.02-0.025,0.028-0.038c0.013-0.017,0.025-0.034,0.037-0.052
			c0.008-0.013,0.017-0.027,0.024-0.039c0.011-0.019,0.02-0.038,0.029-0.058c0.006-0.014,0.014-0.027,0.019-0.042
			c0.009-0.021,0.016-0.042,0.022-0.063c0.005-0.014,0.009-0.028,0.014-0.042c0.007-0.024,0.011-0.048,0.014-0.073
			c0.004-0.012,0.007-0.024,0.008-0.036c0.005-0.038,0.008-0.075,0.008-0.113v-6.093c0-0.038-0.003-0.075-0.008-0.112
			C25.989,12.829,25.986,12.816,25.982,12.804z M16.86,8.466l6.731,4.488l-3.007,2.012l-3.725-2.492V8.466z M15.142,8.466v4.008
			l-3.726,2.492l-3.007-2.012L15.142,8.466z M7.72,14.562L9.87,16l-2.15,1.438V14.562z M15.142,23.533l-6.733-4.488l3.007-2.012
			l3.726,2.491V23.533z M16.001,18.032L12.961,16l3.04-2.034L19.039,16L16.001,18.032z M16.86,23.533v-4.009l3.725-2.491
			l3.007,2.012L16.86,23.533z M24.279,17.438L22.13,16l2.149-1.438V17.438z"/>
	</g>
</g>
</svg>
