<?xml version="1.0" encoding="utf-8"?>
<!-- Generator: Adobe Illustrator 16.0.0, SVG Export Plug-In . SVG Version: 6.00 Build 0)  -->
<!DOCTYPE svg PUBLIC "-//W3C//DTD SVG 1.1//EN" "http://www.w3.org/Graphics/SVG/1.1/DTD/svg11.dtd">
<svg version="1.1" id="Layer_1" xmlns="http://www.w3.org/2000/svg" xmlns:xlink="http://www.w3.org/1999/xlink" x="0px" y="0px"
	 width="32px" height="32px" viewBox="0 0 32 32" enable-background="new 0 0 32 32" xml:space="preserve">
<g>
	<g>
		<path d="M21.971,1.167l-0.01-0.015c-0.369-0.148-0.746-0.281-1.128-0.402c-0.103-0.033-0.209-0.059-0.313-0.089
			c-0.224-0.066-0.447-0.136-0.675-0.193l-0.02,0.014C18.597,0.179,17.32,0,16,0C7.177,0,0,7.178,0,16s7.177,16,16,16
			c8.823,0,16-7.178,16-16C32,9.289,27.842,3.539,21.971,1.167z M16,30.345C8.077,30.345,1.655,23.923,1.655,16
			S8.077,1.655,16,1.655c1.502,0,2.95,0.233,4.311,0.662l4.534,6.359l1.447-1.119L23.914,4.04c3.874,2.568,6.431,6.963,6.431,11.96
			C30.345,23.923,23.923,30.345,16,30.345z M22.922,10.973l-8.564-4.871l-0.989,1.811l8.642,4.726L22.922,10.973z M24.405,9.169
			l-6.98-6.723l-1.496,1.572l7.181,6.552L24.405,9.169z M22.922,22.011H9.078v-7.889H7.015v9.952h17.97v-9.952h-2.063V22.011z
			 M21.792,13.116l-9.425-2.967l-0.6,2.076l9.494,2.717L21.792,13.116z M21.165,15.511l-9.945-1.196l-0.196,2.053l9.957,1.066
			L21.165,15.511z M20.976,18.056h-9.951v2.063h9.951V18.056z"/>
	</g>
</g>
</svg>
