<?xml version="1.0" encoding="utf-8"?>
<!-- Generator: Adobe Illustrator 16.0.0, SVG Export Plug-In . SVG Version: 6.00 Build 0)  -->
<!DOCTYPE svg PUBLIC "-//W3C//DTD SVG 1.1//EN" "http://www.w3.org/Graphics/SVG/1.1/DTD/svg11.dtd">
<svg version="1.1" id="Layer_1" xmlns="http://www.w3.org/2000/svg" xmlns:xlink="http://www.w3.org/1999/xlink" x="0px" y="0px"
	 width="46px" height="46px" viewBox="0 0 46 46" enable-background="new 0 0 46 46" xml:space="preserve">
<path d="M33.045,37.122h4.119c1.798,0,3.269-1.47,3.269-3.267v-8.981L33.045,37.122z M28.826,14.796
	c-0.052-1.175,0.114-1.375,0.363-1.676c0.16-0.191,0.357-0.429,0.54-0.759c0.895-1.621,0.238-3.968-1.434-5.125
	c-2.504-1.732-4.589-0.665-7.002,0.571c-0.627,0.321-1.337,0.685-2.142,1.057c-0.981,0.453-1.619,0.443-1.798,0.243
	c-0.192-0.215-0.246-0.859,0.152-1.51c0.471-0.77,0.227-1.776-0.542-2.246c-0.77-0.47-1.775-0.228-2.246,0.542
	c-1.102,1.805-1.021,4.02,0.197,5.386c0.596,0.669,2.335,2.062,5.608,0.549c0.865-0.4,1.607-0.779,2.261-1.115
	c2.474-1.266,2.85-1.348,3.653-0.792c0.377,0.261,0.465,0.742,0.434,0.859c-0.033,0.06-0.103,0.145-0.192,0.251
	c-0.644,0.775-1.214,1.658-1.114,3.908c0,0.005,0.001,0.01,0.003,0.015H4.545c-1.797,0-3.267,1.47-3.267,3.267v15.632
	c0,1.797,1.47,3.267,3.267,3.267h16.456l0.029-0.484l0.053-0.892c0,0,0.294-1.509,0.534-2.025c0.104-0.224,0.251-0.483,0.385-0.709
	H11.708c-0.3,0-0.545-0.245-0.545-0.544v-1.981c0-0.299,0.245-0.545,0.545-0.545h12.155l4.708-7.805h-0.55
	c-0.3,0-0.545-0.246-0.545-0.544V19.61c0-0.3,0.246-0.545,0.545-0.545h1.981c0.131,0,0.247,0.053,0.342,0.131l2.558-4.241h-4.085
	C28.819,14.902,28.829,14.85,28.826,14.796z M8.797,32.467c0,0.299-0.246,0.544-0.544,0.544H6.271c-0.299,0-0.544-0.245-0.544-0.544
	v-1.981c0-0.299,0.245-0.545,0.544-0.545h1.982c0.299,0,0.544,0.246,0.544,0.545V32.467z M8.797,27.029
	c0,0.298-0.246,0.544-0.544,0.544H6.271c-0.299,0-0.544-0.246-0.544-0.544v-1.983c0-0.298,0.245-0.544,0.544-0.544h1.982
	c0.299,0,0.544,0.246,0.544,0.544V27.029z M8.797,21.591c0,0.299-0.246,0.544-0.544,0.544H6.271c-0.299,0-0.544-0.246-0.544-0.544
	V19.61c0-0.3,0.245-0.545,0.544-0.545h1.982c0.299,0,0.544,0.245,0.544,0.545V21.591z M14.234,27.029
	c0,0.298-0.245,0.544-0.544,0.544h-1.981c-0.3,0-0.545-0.246-0.545-0.544v-1.983c0-0.298,0.245-0.544,0.545-0.544h1.981
	c0.299,0,0.544,0.246,0.544,0.544V27.029z M14.234,21.591c0,0.299-0.245,0.544-0.544,0.544h-1.981c-0.3,0-0.545-0.246-0.545-0.544
	V19.61c0-0.3,0.245-0.545,0.545-0.545h1.981c0.299,0,0.544,0.245,0.544,0.545V21.591z M19.671,27.029
	c0,0.298-0.245,0.544-0.545,0.544h-1.981c-0.299,0-0.544-0.246-0.544-0.544v-1.983c0-0.298,0.245-0.544,0.544-0.544h1.981
	c0.3,0,0.545,0.246,0.545,0.544V27.029z M19.671,21.591c0,0.299-0.245,0.544-0.545,0.544h-1.981c-0.299,0-0.544-0.246-0.544-0.544
	V19.61c0-0.3,0.245-0.545,0.544-0.545h1.981c0.3,0,0.545,0.245,0.545,0.545V21.591z M25.109,27.029c0,0.298-0.246,0.544-0.544,0.544
	h-1.982c-0.298,0-0.544-0.246-0.544-0.544v-1.983c0-0.298,0.246-0.544,0.544-0.544h1.982c0.299,0,0.544,0.246,0.544,0.544V27.029z
	 M25.109,21.591c0,0.299-0.246,0.544-0.544,0.544h-1.982c-0.298,0-0.544-0.246-0.544-0.544V19.61c0-0.3,0.246-0.545,0.544-0.545
	h1.982c0.299,0,0.544,0.245,0.544,0.545V21.591z"/>
<path d="M35.072,14.868l6.985,4.034l-10.753,17.83l-6.986-4.034L35.072,14.868z M43.315,12.587l-3.402-1.965
	c-0.985-0.569-2.258-0.228-2.827,0.757l-0.049,0.086l-1.035,1.791l1.788,1.032c0,0.001,0.002,0.002,0.004,0.002l2.817,1.627
	l2.377,1.373l1.034-1.792l0.051-0.086C44.641,14.427,44.301,13.156,43.315,12.587z M23.117,38.812l0.171-2.85l0.049-0.826
	c0.027-0.454,0.372-0.64,0.766-0.412l0.716,0.413l0.627,0.362c0.104,0.061,0.218,0.126,0.338,0.195
	c0.119,0.07,0.247,0.143,0.377,0.219c0.231,0.132,0.474,0.273,0.717,0.414c0.243,0.139,0.486,0.279,0.717,0.412
	c0.13,0.076,0.257,0.15,0.377,0.219c0.119,0.07,0.233,0.135,0.338,0.195l0.314,0.182l0.313,0.182l0.717,0.413
	c0.393,0.227,0.405,0.619,0.026,0.869l-0.692,0.456l-2.382,1.573l-0.304,0.201l-3.21-1.854L23.117,38.812z M22.946,41.663
	l0.086-1.431l2.391,1.381l-1.195,0.79c-0.38,0.249-0.713,0.291-0.947,0.157C23.05,42.427,22.917,42.117,22.946,41.663z"/>
</svg>
