<?xml version="1.0" encoding="utf-8"?>
<!-- Generator: Adobe Illustrator 16.0.0, SVG Export Plug-In . SVG Version: 6.00 Build 0)  -->
<!DOCTYPE svg PUBLIC "-//W3C//DTD SVG 1.1//EN" "http://www.w3.org/Graphics/SVG/1.1/DTD/svg11.dtd">
<svg version="1.1" id="Layer_1" xmlns="http://www.w3.org/2000/svg" xmlns:xlink="http://www.w3.org/1999/xlink" x="0px" y="0px"
	 width="32px" height="32px" viewBox="0 0 32 32" enable-background="new 0 0 32 32" xml:space="preserve">
<g>
	<g>
		<path d="M16,0C7.177,0,0,7.178,0,16s7.177,16,16,16c8.823,0,16-7.178,16-16S24.823,0,16,0z M16,30.345
			C8.078,30.345,1.655,23.923,1.655,16S8.078,1.655,16,1.655c7.923,0,14.346,6.422,14.346,14.345S23.923,30.345,16,30.345z
			 M22.125,7.827c0,0-0.895-0.287-2.931,1.094c-0.852-0.236-1.766-0.355-2.672-0.358c-0.907,0.003-1.82,0.123-2.671,0.358
			c-2.038-1.381-2.935-1.094-2.935-1.094c-0.58,1.469-0.214,2.555-0.104,2.824c-0.683,0.747-1.099,1.7-1.099,2.864
			c0,4.089,2.491,5.005,4.861,5.274c-0.305,0.267-0.581,0.737-0.677,1.427c-0.609,0.272-2.154,0.743-3.106-0.887
			c0,0-0.563-1.025-1.635-1.1c0,0-1.042-0.013-0.073,0.649c0,0,0.699,0.328,1.185,1.561c0,0,0.625,2.075,3.594,1.431
			c0.005,0.891,0.015,1.562,0.015,1.815c0,0.21-0.109,0.445-0.384,0.513h6.053c-0.273-0.067-0.379-0.303-0.379-0.513
			c0-0.35,0.014-1.502,0.014-2.928c0-0.997-0.342-1.646-0.725-1.977c2.376-0.264,4.872-1.166,4.872-5.266
			c0-1.164-0.413-2.117-1.098-2.864C22.342,10.382,22.708,9.296,22.125,7.827z"/>
	</g>
</g>
</svg>
