<?xml version="1.0" encoding="utf-8"?>
<!-- Generator: Adobe Illustrator 16.0.0, SVG Export Plug-In . SVG Version: 6.00 Build 0)  -->
<!DOCTYPE svg PUBLIC "-//W3C//DTD SVG 1.1//EN" "http://www.w3.org/Graphics/SVG/1.1/DTD/svg11.dtd">
<svg version="1.1" id="Layer_3" xmlns="http://www.w3.org/2000/svg" xmlns:xlink="http://www.w3.org/1999/xlink" x="0px" y="0px"
	 width="44px" height="44px" viewBox="0 0 44 44" enable-background="new 0 0 44 44" xml:space="preserve">
<path d="M22,1C10.42,1,1,10.42,1,22C1,33.578,10.42,43,22,43c11.58,0,21-9.422,21-21C43,10.42,33.58,1,22,1z M18.421,8.682
	c0.17-0.178,0.404-0.278,0.65-0.278h5.942c0.244,0,0.48,0.101,0.648,0.278c0.17,0.177,0.26,0.416,0.25,0.661l-0.713,16.466
	c-0.02,0.481-0.416,0.861-0.898,0.861h-4.518c-0.481,0-0.878-0.38-0.898-0.861L18.172,9.343C18.162,9.098,18.251,8.858,18.421,8.682
	z M24.809,34.584c-0.758,0.673-1.703,1.014-2.809,1.014c-1.105,0-2.051-0.342-2.807-1.014c-0.788-0.701-1.188-1.604-1.188-2.684
	s0.399-1.982,1.188-2.684c0.756-0.672,1.701-1.014,2.807-1.014c1.106,0,2.051,0.341,2.809,1.014c0.787,0.7,1.186,1.604,1.186,2.684
	S25.596,33.884,24.809,34.584z"/>
</svg>
