<?xml version="1.0" encoding="utf-8"?>
<!-- Generator: Adobe Illustrator 16.0.0, SVG Export Plug-In . SVG Version: 6.00 Build 0)  -->
<!DOCTYPE svg PUBLIC "-//W3C//DTD SVG 1.1//EN" "http://www.w3.org/Graphics/SVG/1.1/DTD/svg11.dtd">
<svg version="1.1" id="Layer_1" xmlns="http://www.w3.org/2000/svg" xmlns:xlink="http://www.w3.org/1999/xlink" x="0px" y="0px"
	 width="32px" height="32px" viewBox="0 0 32 32" enable-background="new 0 0 32 32" xml:space="preserve">
<g>
	<path d="M18.223,16l5.174-5.175c0.614-0.613,0.614-1.609,0-2.222c-0.613-0.614-1.607-0.614-2.222,0L16,13.777l-5.175-5.174
		c-0.614-0.614-1.608-0.614-2.223,0c-0.613,0.612-0.613,1.608,0,2.222L13.778,16l-5.175,5.175c-0.613,0.613-0.613,1.608,0,2.222
		c0.307,0.308,0.709,0.461,1.112,0.461c0.402,0,0.804-0.153,1.111-0.461L16,18.223l5.174,5.174c0.307,0.308,0.709,0.461,1.11,0.461
		c0.402,0,0.805-0.153,1.111-0.461c0.614-0.613,0.614-1.608,0-2.222L18.223,16z"/>
	<path d="M16,2.552c7.428,0,13.448,6.021,13.448,13.448S23.428,29.447,16,29.447c-7.427,0-13.448-6.02-13.448-13.447
		S8.573,2.552,16,2.552 M16,1C7.729,1,1,7.729,1,16c0,8.271,6.729,15,15,15c8.271,0,15-6.729,15-15C31,7.729,24.271,1,16,1L16,1z"/>
</g>
</svg>
