<?xml version="1.0" encoding="utf-8"?>
<!-- Generator: Adobe Illustrator 16.0.0, SVG Export Plug-In . SVG Version: 6.00 Build 0)  -->
<!DOCTYPE svg PUBLIC "-//W3C//DTD SVG 1.1//EN" "http://www.w3.org/Graphics/SVG/1.1/DTD/svg11.dtd">
<svg version="1.1" id="Layer_1" xmlns="http://www.w3.org/2000/svg" xmlns:xlink="http://www.w3.org/1999/xlink" x="0px" y="0px"
	 width="34px" height="34px" viewBox="0 0 34 34" enable-background="new 0 0 34 34" xml:space="preserve">
<g>
	<polygon points="19.437,10.071 19.437,12.883 22.249,12.883 	"/>
	<path d="M17.782,13.159V8.901h-7.202v16.198h12.838V14.538h-4.258C18.4,14.538,17.782,13.919,17.782,13.159z M13.962,21.573
		c0.135,0.269,0.375,0.403,0.72,0.403c0.237,0,0.415-0.064,0.53-0.194c0.115-0.129,0.173-0.32,0.173-0.571h1.619l0.01,0.031
		c0.014,0.618-0.2,1.122-0.642,1.512c-0.441,0.389-1.005,0.584-1.69,0.584c-0.859,0-1.522-0.268-1.988-0.802
		c-0.467-0.534-0.7-1.227-0.7-2.08v-0.121c0-0.849,0.232-1.542,0.697-2.078c0.464-0.537,1.123-0.805,1.975-0.805
		c0.72,0,1.295,0.201,1.724,0.603c0.429,0.401,0.638,0.948,0.624,1.64l-0.01,0.031h-1.619c0-0.27-0.06-0.488-0.179-0.658
		c-0.118-0.17-0.298-0.254-0.54-0.254c-0.335,0-0.57,0.138-0.705,0.414c-0.135,0.276-0.202,0.645-0.202,1.106v0.121
		C13.76,20.932,13.827,21.304,13.962,21.573z M19.487,21.494l0.031,0.005l0.115-0.607l0.749-3.332h1.86l-1.845,5.669h-1.797
		l-1.844-5.669h1.865l0.76,3.332L19.487,21.494z"/>
	<path d="M17,1C8.178,1,1,8.178,1,17s7.178,16,16,16s16-7.178,16-16S25.822,1,17,1z M25.074,25.375c0,0.761-0.618,1.38-1.379,1.38
		H10.304c-0.76,0-1.379-0.619-1.379-1.38V8.625c0-0.76,0.619-1.379,1.379-1.379h7.753c0.528,0,1.155,0.26,1.528,0.632l4.857,4.857
		c0.372,0.373,0.632,1,0.632,1.527V25.375z"/>
</g>
</svg>
