<?xml version="1.0" encoding="utf-8"?>
<!-- Generator: Adobe Illustrator 16.0.0, SVG Export Plug-In . SVG Version: 6.00 Build 0)  -->
<!DOCTYPE svg PUBLIC "-//W3C//DTD SVG 1.1//EN" "http://www.w3.org/Graphics/SVG/1.1/DTD/svg11.dtd">
<svg version="1.1" id="Layer_1" xmlns="http://www.w3.org/2000/svg" xmlns:xlink="http://www.w3.org/1999/xlink" x="0px" y="0px"
	 width="34px" height="34px" viewBox="0 0 34 34" enable-background="new 0 0 34 34" xml:space="preserve">
<path d="M17,1C8.177,1,1,8.178,1,17s7.177,16,16,16c8.823,0,16-7.178,16-16S25.823,1,17,1z M19.457,19.78
	c0.382,0.33,0.725,0.98,0.725,1.977c0,1.426-0.014,2.578-0.014,2.928c0,0.21,0.106,0.445,0.379,0.513h-6.053
	c0.275-0.067,0.384-0.303,0.384-0.513c0-0.254-0.01-0.925-0.015-1.815c-2.968,0.645-3.594-1.431-3.594-1.431
	c-0.486-1.232-1.185-1.561-1.185-1.561c-0.969-0.662,0.073-0.649,0.073-0.649c1.071,0.075,1.635,1.1,1.635,1.1
	c0.952,1.63,2.497,1.159,3.106,0.887c0.096-0.69,0.372-1.16,0.677-1.427c-2.37-0.269-4.861-1.185-4.861-5.274
	c0-1.164,0.416-2.117,1.099-2.864c-0.11-0.269-0.476-1.355,0.104-2.824c0,0,0.896-0.287,2.935,1.094
	c0.851-0.236,1.765-0.355,2.671-0.358c0.906,0.003,1.82,0.123,2.672,0.358c2.036-1.381,2.931-1.094,2.931-1.094
	c0.583,1.469,0.217,2.555,0.106,2.824c0.685,0.747,1.098,1.7,1.098,2.864C24.329,18.615,21.833,19.517,19.457,19.78z"/>
</svg>
