<?xml version="1.0" encoding="utf-8"?>
<!-- Generator: Adobe Illustrator 16.0.0, SVG Export Plug-In . SVG Version: 6.00 Build 0)  -->
<!DOCTYPE svg PUBLIC "-//W3C//DTD SVG 1.1//EN" "http://www.w3.org/Graphics/SVG/1.1/DTD/svg11.dtd">
<svg version="1.1" id="Layer_2" xmlns="http://www.w3.org/2000/svg" xmlns:xlink="http://www.w3.org/1999/xlink" x="0px" y="0px"
	 width="1400px" height="252px" viewBox="0 0 1400 252" preserveAspectRatio="none" enable-background="new 0 0 1400 252" xml:space="preserve">
<g>
	<path opacity="0.45" fill="#FFFFFF" d="M96.206,2v9.578v31.769c-0.592,0-1.428-0.037-2.494-0.112
		c-1.079-0.075-1.836-0.109-2.276-0.109c-6.441,0-10.769,1.106-12.982,3.327c-2.223,2.22-3.33,6.939-3.33,14.179v26.472
		c0,9.973-1.752,17.02-5.247,21.146c-3.495,4.128-9.817,7.016-18.968,8.643c9.222,1.717,15.561,4.604,19.024,8.666
		c3.464,4.06,5.191,11.006,5.191,20.842v26.803c0,7.12,1.091,11.788,3.273,14.013c1.079,1.102,2.725,1.902,4.833,2.458v-2.598h6.653
		l6.323-6.325v6.325v3.252v4.28v27.494H87.33c-10.329,0-18.185-0.389-23.566-1.168c-5.387-0.78-9.823-2.067-13.312-3.852
		c-4.458-2.231-7.601-5.368-9.419-9.415c-1.817-4.053-2.731-10.978-2.731-20.788v-28.686c0-9.418-1.724-16.05-5.175-19.909
		c-3.452-3.854-9.334-5.783-17.653-5.783c-0.371,0-13.471,0.224-13.471,0.224l9.578-9.577v-22.198c0.517,0,1.203,0.041,2.058,0.109
		c0.854,0.075,1.465,0.112,1.836,0.112c8.318,0,14.201-1.914,17.653-5.755c3.451-3.84,5.175-10.457,5.175-19.834V47.006
		c0-9.883,0.914-16.867,2.731-20.948c1.818-4.081,4.96-7.242,9.419-9.468c3.56-1.783,8.037-3.067,13.421-3.847
		c5.26-0.76,12.857-1.144,22.762-1.163l-0.006-0.003l1.471-1.472L96.206,2z M605.649,103.349v20.411l-9.577,9.577h9.577h15.741
		c0.071,1.117,0.127,2.273,0.165,3.464c0.041,1.191,0.057,2.899,0.057,5.142c0,9.823-1.216,16.935-3.638,21.327
		c-2.422,4.396-6.326,6.591-11.685,6.591c-5.362,0-9.039-2.494-11.024-7.481c-1.986-4.986-2.971-17.045-2.971-36.178V97.443
		c0-18.979,1.047-31.058,3.162-36.227c2.107-5.169,5.973-7.756,11.61-7.756c4.739,0,8.156,2.107,10.27,6.304
		c1.546,3.073,2.519,7.669,2.931,13.749l-9.344,9.347h9.578h38.083c0-0.814,0.037-1.902,0.112-3.274
		c0.071-1.359,0.112-2.375,0.112-3.046c0-18.11-4.269-31.728-12.801-40.856c-8.54-9.128-21.225-13.696-38.066-13.696
		c-10.769,0-20.059,1.893-27.884,5.674c-7.835,3.785-14.123,9.424-18.872,16.913c-3.267,5.194-5.674,12.979-7.236,23.364
		c-1.555,10.385-2.335,24.217-2.335,41.496c0,24.255,1.107,41.465,3.33,51.625c2.216,10.16,6.033,18.248,11.445,24.258
		c4.365,4.889,9.49,8.636,15.383,11.237c5.876,2.59,12.308,3.894,19.267,3.894c6.142,0,11.638-1.135,16.489-3.389
		c2.217-1.033,4.333-2.339,6.376-3.856l0.714,4.271h7.972h27.703v-94.125v-9.578l-9.578,9.578H605.649z M326.931,118.403
		c-3.935-6.082-12.926-13.577-26.952-22.475c-1.855-1.266-3.302-2.189-4.34-2.781c-1.278-0.82-3.111-2.002-5.502-3.561
		c-13.182-8.149-19.769-15.856-19.769-23.121c0-4.446,1.15-8.025,3.469-10.725c2.314-2.706,5.369-4.065,9.179-4.065
		c4.48,0,7.894,1.933,10.248,5.792c1.543,2.535,2.532,5.936,3.062,10.045l-9.113,9.109h9.578h36.002
		c0-0.667,0.041-1.596,0.112-2.787c0.078-1.185,0.112-2.12,0.112-2.793c0-15.903-4.365-28.059-13.107-36.455
		c-8.735-8.396-21.399-12.601-37.985-12.601c-15.252,0-27.224,4.262-35.922,12.792c-8.704,8.526-13.051,20.273-13.051,35.251
		c0,6.154,0.742,11.825,2.223,17.013c1.487,5.188,3.645,9.865,6.463,14.011c3.938,5.486,13.967,13.643,30.092,24.467l1.889,1.222
		c1.054,0.667,2.544,1.678,4.496,3.013c12.053,7.665,18.083,15.663,18.083,23.995c0,5.061-1.235,9.061-3.701,12.001
		c-2.469,2.936-5.836,4.407-10.098,4.407c-5.319,0-9.097-1.941-11.342-5.819c-2.245-3.879-3.364-10.558-3.364-20.032v-5.034v-9.577
		l-9.577,9.577h-27.108c-0.218,2.682-0.343,4.639-0.38,5.861c-0.037,1.225-0.05,2.4-0.05,3.514c0,17.552,4.362,30.768,13.101,39.653
		c8.729,8.892,21.798,13.331,39.195,13.331c16.576,0,29.328-4.633,38.247-13.911c8.919-9.269,13.381-22.472,13.381-39.612
		c0-5.855-0.648-11.287-1.945-16.296C331.255,126.806,329.381,122.335,326.931,118.403z M219.413,131.258v-9.578l-9.578,9.578
		h-29.92v7.572c0,11.804-1.203,19.879-3.607,24.219c-2.404,4.342-6.604,6.516-12.592,6.516c-6.438,0-10.84-2.986-13.21-8.967
		c-2.366-5.973-3.544-22.216-3.544-48.726v-3.236c0-24.673,1.185-39.884,3.566-45.646c2.375-5.758,6.796-8.639,13.263-8.639
		c5.942,0,10.182,2.363,12.708,7.077c1.802,3.37,2.987,8.54,3.579,15.441l-9.141,9.145h9.578l38.899,0.109v-1.671
		c0-20.785-4.695-36.389-14.086-46.817c-9.393-10.435-23.479-15.647-42.26-15.647c-10.912,0-20.302,1.877-28.171,5.625
		c-7.869,3.75-14.216,9.337-19.042,16.76c-3.417,5.35-5.861,12.779-7.345,22.282c-1.491,9.502-2.227,24.577-2.227,45.218
		c0,20.617,0.736,35.666,2.227,45.16c1.483,9.493,3.937,16.906,7.351,22.24c4.901,7.495,11.323,13.095,19.276,16.801
		c7.947,3.704,17.493,5.56,28.635,5.56c18.937,0,32.998-5.06,42.176-15.178c9.172-10.113,13.761-25.623,13.761-46.526
		c0-2.37-0.028-4.144-0.075-5.336C219.584,133.409,219.509,132.296,219.413,131.258z M439.927,131.813
		c-1.303-5.008-3.174-9.478-5.625-13.41c-3.931-6.082-12.92-13.577-26.955-22.475c-1.852-1.266-3.299-2.189-4.34-2.781
		c-1.272-0.82-3.108-2.002-5.5-3.561c-13.182-8.149-19.772-15.856-19.772-23.121c0-4.446,1.16-8.025,3.47-10.725
		c2.313-2.706,5.375-4.065,9.181-4.065c4.477,0,7.894,1.933,10.245,5.792c1.547,2.538,2.535,5.939,3.068,10.045l-9.109,9.109h9.577
		h35.997c0-0.667,0.043-1.596,0.112-2.787c0.075-1.185,0.112-2.12,0.112-2.793c0-15.903-4.368-28.059-13.104-36.455
		c-8.742-8.396-21.406-12.601-37.982-12.601c-15.258,0-27.229,4.262-35.928,12.792c-8.705,8.526-13.051,20.273-13.051,35.251
		c0,6.154,0.736,11.825,2.226,17.013c1.487,5.188,3.638,9.865,6.46,14.011c3.934,5.486,13.967,13.643,30.092,24.467l1.892,1.222
		c1.051,0.667,2.541,1.678,4.489,3.013c12.056,7.665,18.086,15.663,18.086,23.995c0,5.061-1.235,9.061-3.701,12.001
		c-2.473,2.936-5.839,4.407-10.102,4.407c-5.315,0-9.094-1.941-11.338-5.819c-2.245-3.879-3.368-10.558-3.368-20.032v-5.034v-9.577
		l-9.578,9.577h-27.104c-0.218,2.682-0.343,4.639-0.38,5.861c-0.038,1.225-0.05,2.4-0.05,3.514c0,17.552,4.365,30.768,13.101,39.653
		c8.729,8.892,21.798,13.331,39.195,13.331c16.58,0,29.331-4.633,38.25-13.911c8.919-9.269,13.381-22.472,13.381-39.612
		C441.875,142.254,441.224,136.822,439.927,131.813z M513.743,95.417c-3.451-3.84-5.175-10.457-5.175-19.834V47.006
		c0-9.659-0.933-16.567-2.793-20.726c-1.852-4.159-5.047-7.389-9.577-9.69c-3.495-1.783-7.913-3.067-13.263-3.847
		c-5.35-0.779-13.144-1.166-23.395-1.166h-8.875v22.191l-9.578,9.577c0,0,13.902-0.221,14.348-0.221
		c6.435,0,10.762,1.106,12.981,3.327c2.217,2.22,3.33,6.939,3.33,14.179v26.694c0,9.895,1.743,16.891,5.243,20.981
		c3.499,4.094,9.821,6.959,18.972,8.586c-9.222,1.714-15.567,4.595-19.027,8.655c-3.46,4.053-5.188,10.986-5.188,20.804v26.696
		c0,7.238-1.113,11.96-3.33,14.182c-2.22,2.214-6.547,3.323-12.981,3.323c-0.446,0-1.185-0.037-2.22-0.111
		c-1.041-0.071-1.889-0.112-2.55-0.112v22.197l-9.578,9.577h9.578h10.428c9.656,0,17.085-0.373,22.285-1.121
		c5.197-0.752,9.475-1.983,12.82-3.698c4.53-2.322,7.725-5.571,9.577-9.756c1.861-4.189,2.793-11.142,2.793-20.851v-28.582
		c0-9.381,1.724-15.991,5.175-19.832c3.452-3.84,9.334-5.761,17.653-5.761c0.371,0,0.982,0.037,1.836,0.111
		c0.854,0.075,1.541,0.112,2.058,0.112v-28.582v-3.192v-9.577l-9.459,9.462C520.4,100.134,516.366,98.335,513.743,95.417z
		 M741.525,25.847v107.678c0,15.997-0.998,25.998-2.98,30.017c-1.992,4.021-5.602,6.023-10.824,6.023
		c-5.163,0-8.752-1.933-10.778-5.799c-2.02-3.876-3.029-13.945-3.029-30.241V25.847V16.27l-9.578,9.577h-31.102v92.501
		c0,19.594,0.611,33.517,1.833,41.754c1.225,8.24,3.354,14.989,6.4,20.261c4.23,7.427,9.939,12.827,17.145,16.203
		c7.195,3.38,16.508,5.066,27.937,5.066c12.394,0,22.447-1.799,30.17-5.396c7.716-3.599,13.618-9.253,17.699-16.973
		c2.447-4.521,4.209-9.843,5.284-15.97c1.075-6.119,1.612-15.375,1.612-27.762V25.847V16.27l-9.578,9.577H741.525z M902.904,21.058
		l-8.536,4.789h-30.275l-16.66,54.275L830.89,25.847l-2.891-9.577l-1.897,4.789l-4.761,4.789h-33.608l39.494,98.852v63.197
		l-9.578,9.578h9.578h40.975v-72.775l39.492-98.852l3.825-9.577L902.904,21.058z M611.978,127.225
		c-0.037-1.192-0.094-2.349-0.165-3.464h-6.169l0.009,0.003l-4.785,4.785h11.142C612.002,128.059,611.99,127.604,611.978,127.225z
		 M600.86,128.548l-4.786,4.792l4.792-4.792H600.86z"/>
	<path d="M96.209,180.754l-9.581,9.577v22.194h-8.876c-10.329,0-18.186-0.39-23.566-1.169c-5.387-0.779-9.824-2.066-13.313-3.85
		c-4.458-2.232-7.601-5.369-9.418-9.416c-1.817-4.053-2.731-10.978-2.731-20.788v-28.686c0-9.418-1.724-16.051-5.175-19.91
		c-2.622-2.927-6.656-4.738-12.09-5.443L2,132.723v-9.577h0.003v-7.67V91.374c0.518,0,1.203,0.04,2.058,0.109
		c0.854,0.074,1.466,0.112,1.837,0.112c8.317,0,14.201-1.914,17.652-5.755s5.175-10.457,5.175-19.834V37.429
		c0-9.883,0.914-16.866,2.731-20.947c1.817-4.082,4.96-7.243,9.418-9.469c3.56-1.783,8.037-3.068,13.422-3.847
		C59.68,2.387,67.499,2,77.753,2h8.876l0,0h9.577l-9.577,9.578v22.191c-0.593,0-1.428-0.038-2.495-0.112
		c-1.079-0.075-1.836-0.109-2.275-0.109c-6.441,0-10.769,1.107-12.982,3.327c-2.223,2.22-3.33,6.94-3.33,14.179v26.472
		c0,9.974-1.752,17.019-5.247,21.147c-3.495,4.128-9.817,7.015-18.968,8.642c9.222,1.718,15.56,4.604,19.024,8.667
		c3.463,4.06,5.191,11.005,5.191,20.841v26.803c0,7.12,1.091,11.788,3.273,14.014c2.179,2.22,6.447,3.336,12.813,3.336
		C82.152,180.975,96.209,180.754,96.209,180.754z M521.818,91.595c-8.318,0-14.201-1.914-17.652-5.755
		c-3.451-3.841-5.175-10.457-5.175-19.834V37.429c0-9.658-0.933-16.567-2.793-20.726c-1.853-4.159-5.048-7.389-9.578-9.69
		c-3.495-1.783-7.913-3.068-13.262-3.847C468.008,2.387,460.214,2,449.963,2h-8.876v31.769l0,0v9.577l9.546-9.546
		c3.847,0.439,6.59,1.458,8.206,3.074c2.216,2.22,3.33,6.94,3.33,14.179v26.693c0,9.896,1.743,16.891,5.244,20.982
		c3.498,4.093,9.821,6.958,18.971,8.585c-9.222,1.715-15.567,4.596-19.027,8.655c-3.46,4.053-5.188,10.987-5.188,20.804v26.697
		c0,7.239-1.113,11.959-3.33,14.182c-2.22,2.214-6.547,3.323-12.982,3.323c-0.446,0-1.185-0.037-2.22-0.111
		c-1.041-0.072-1.889-0.112-2.55-0.112v31.771h-0.003v9.577l9.574-9.574h0.857c9.656,0,17.085-0.374,22.286-1.122
		c5.196-0.751,9.474-1.982,12.819-3.698c4.53-2.321,7.725-5.571,9.578-9.754c1.861-4.19,2.793-11.143,2.793-20.852v-28.583
		c0-9.38,1.724-15.989,5.175-19.831c3.451-3.841,9.334-5.761,17.652-5.761c0.371,0,0.982,0.037,1.836,0.112
		c0.854,0.075,1.54,0.112,2.058,0.112v-22.191l9.58-9.581C535.292,91.377,522.189,91.595,521.818,91.595z M365.483,129.696h-36.682
		c-0.218,2.681-0.343,4.639-0.38,5.86c-0.037,1.226-0.05,2.401-0.05,3.514c0,17.553,4.365,30.769,13.101,39.654
		c8.729,8.892,21.799,13.33,39.195,13.33c16.579,0,29.331-4.633,38.25-13.91c8.919-9.27,13.38-22.472,13.38-39.613
		c0-5.855-0.651-11.285-1.948-16.296c-1.303-5.006-3.174-9.478-5.624-13.408c-3.932-6.083-12.919-13.578-26.955-22.476
		c-1.852-1.266-3.299-2.188-4.34-2.78c-1.272-0.82-3.108-2.002-5.5-3.561c-13.182-8.149-19.772-15.856-19.772-23.121
		c0-4.446,1.16-8.025,3.47-10.725c2.313-2.706,5.375-4.065,9.182-4.065c4.477,0,7.894,1.933,10.244,5.792
		c2.351,3.86,3.536,9.54,3.536,17.035v2.12l0,0v9.578l9.577-9.578h26.419c0-0.667,0.043-1.596,0.112-2.787
		c0.075-1.185,0.112-2.12,0.112-2.793c0-15.903-4.368-28.059-13.104-36.455c-8.742-8.396-21.406-12.602-37.982-12.602
		c-15.258,0-27.229,4.262-35.928,12.792c-8.704,8.527-13.051,20.274-13.051,35.251c0,6.154,0.736,11.826,2.227,17.014
		c1.487,5.187,3.638,9.864,6.459,14.01c3.935,5.487,13.967,13.644,30.092,24.468l1.892,1.222c1.051,0.667,2.541,1.677,4.49,3.011
		c12.056,7.667,18.085,15.664,18.085,23.997c0,5.061-1.235,9.061-3.701,12c-2.472,2.938-5.839,4.408-10.102,4.408
		c-5.315,0-9.094-1.942-11.338-5.82c-1.874-3.235-2.953-8.452-3.261-15.588l9.474-9.475h-9.577L365.483,129.696z M322.978,122.235
		c-1.3-5.006-3.174-9.478-5.624-13.408c-3.935-6.083-12.926-13.578-26.952-22.476c-1.855-1.266-3.302-2.188-4.339-2.78
		c-1.279-0.82-3.112-2.002-5.503-3.561c-13.182-8.149-19.769-15.856-19.769-23.121c0-4.446,1.15-8.025,3.47-10.725
		c2.313-2.706,5.369-4.065,9.179-4.065c4.479,0,7.894,1.933,10.247,5.792c2.352,3.86,3.526,9.54,3.526,17.035v2.12l0,0v9.578
		l9.578-9.578h26.425c0-0.667,0.04-1.596,0.112-2.787c0.078-1.185,0.113-2.12,0.113-2.793c0-15.903-4.365-28.059-13.107-36.455
		c-8.736-8.396-21.399-12.602-37.985-12.602c-15.251,0-27.223,4.262-35.922,12.792c-8.704,8.527-13.05,20.274-13.05,35.251
		c0,6.154,0.742,11.826,2.223,17.014c1.487,5.187,3.644,9.864,6.463,14.01c3.937,5.487,13.967,13.644,30.091,24.468l1.889,1.222
		c1.054,0.667,2.544,1.677,4.496,3.011c12.053,7.667,18.083,15.664,18.083,23.997c0,5.061-1.235,9.061-3.701,12
		c-2.469,2.938-5.836,4.408-10.098,4.408c-5.318,0-9.097-1.942-11.342-5.82c-1.877-3.235-2.953-8.455-3.261-15.591l9.475-9.475
		h-9.577H221.43c-0.218,2.681-0.343,4.639-0.38,5.86c-0.038,1.226-0.05,2.401-0.05,3.514c0,17.553,4.362,30.769,13.101,39.654
		c8.729,8.892,21.799,13.33,39.195,13.33c16.576,0,29.328-4.633,38.248-13.91c8.919-9.27,13.38-22.472,13.38-39.613
		C324.923,132.676,324.274,127.246,322.978,122.235z M219.409,121.677h-9.577v0.003h-39.495v7.573
		c0,11.804-1.203,19.878-3.607,24.219c-2.404,4.342-6.603,6.515-12.592,6.515c-6.438,0-10.841-2.985-13.21-8.966
		c-2.366-5.974-3.544-22.216-3.544-48.726v-3.237c0-24.672,1.184-39.884,3.566-45.645c2.376-5.758,6.797-8.639,13.263-8.639
		c5.942,0,10.183,2.364,12.708,7.078c2.525,4.726,3.866,12.919,4.016,24.585l0,0v9.578l9.552-9.549l29.347,0.081v-1.671
		c0-20.785-4.695-36.389-14.085-46.817c-9.394-10.435-23.479-15.648-42.26-15.648c-10.912,0-20.303,1.877-28.172,5.625
		c-7.869,3.75-14.216,9.337-19.042,16.761c-3.417,5.35-5.861,12.779-7.345,22.281c-1.491,9.503-2.227,24.577-2.227,45.219
		c0,20.617,0.736,35.666,2.227,45.159c1.483,9.493,3.938,16.907,7.351,22.241c4.901,7.495,11.324,13.095,19.276,16.801
		c7.947,3.704,17.493,5.559,28.636,5.559c18.937,0,32.998-5.06,42.176-15.177c9.079-10.011,13.649-25.324,13.742-45.903
		L219.409,121.677z M771.735,16.27h-39.787v107.678c0,15.997-0.997,25.998-2.981,30.017c-1.992,4.021-5.602,6.022-10.824,6.022
		c-5.162,0-8.751-1.933-10.777-5.798c-2.021-3.876-3.03-13.945-3.03-30.241V25.844l0.004,0.006l9.577-9.578h-9.581V16.27h-40.68
		v92.5c0,19.595,0.612,33.518,1.833,41.754c1.226,8.24,3.354,14.99,6.401,20.262c4.23,7.426,9.939,12.827,17.144,16.203
		c7.196,3.38,16.509,5.065,27.938,5.065c12.393,0,22.447-1.798,30.17-5.396c7.717-3.598,13.618-9.253,17.699-16.973
		c2.446-4.52,4.209-9.843,5.283-15.969c1.076-6.12,1.612-15.376,1.612-27.763V25.847l9.578-9.577H771.735z M650.711,93.771
		L650.711,93.771h-54.639v29.989h0.003v9.58l4.786-4.792h0.006h11.142h4.593l-4.574,4.789h-0.006
		c-0.081,9.31-1.285,16.112-3.625,20.355c-2.423,4.396-6.326,6.591-11.686,6.591c-5.362,0-9.038-2.494-11.024-7.482
		c-1.986-4.985-2.971-17.044-2.971-36.177V87.866c0-18.98,1.048-31.058,3.162-36.227c2.107-5.169,5.973-7.757,11.61-7.757
		c4.739,0,8.156,2.108,10.27,6.304c2.107,4.196,3.164,11.199,3.164,20.994v2.102h0.003v9.581l9.578-9.578l-0.013-0.003h28.514
		c0-0.814,0.038-1.902,0.112-3.274c0.072-1.359,0.112-2.375,0.112-3.046c0-18.11-4.268-31.729-12.801-40.857
		c-8.538-9.128-21.224-13.696-38.066-13.696c-10.768,0-20.059,1.893-27.884,5.674c-7.834,3.785-14.123,9.424-18.872,16.913
		c-3.267,5.194-5.674,12.979-7.235,23.364c-1.556,10.385-2.335,24.218-2.335,41.496c0,24.255,1.106,41.465,3.33,51.625
		c2.216,10.16,6.032,18.247,11.444,24.258c4.365,4.889,9.49,8.636,15.383,11.236c5.877,2.591,12.309,3.894,19.267,3.894
		c6.142,0,11.639-1.134,16.49-3.389c4.848-2.254,9.275-5.681,13.271-10.272h7.719v10.687h2.045h19.729v-84.546l9.578-9.578H650.711z
		 M899.855,16.27h-1.74h-10.182h-33.418l-16.661,54.275l-14.3-46.924l2.547-2.563l1.897-4.789h-6.687h-2.891h-40.268l39.494,98.852
		v72.774h0.004v9.581l9.577-9.577l-0.003-0.004h31.397v-72.774L894.306,25.8l0.063,0.046l8.536-4.789l8.614-4.789H899.855z"/>
	<linearGradient id="SVGID_1_" gradientUnits="userSpaceOnUse" x1="454.8481" y1="6.7886" x2="454.8481" y2="217.3149">
		<stop  offset="0" style="stop-color:#383B37"/>
		<stop  offset="1" style="stop-color:#222520"/>
	</linearGradient>
	<path fill="url(#SVGID_1_)" d="M600.86,128.548h15.741c0.071,1.117,0.127,2.273,0.165,3.464c0.041,1.192,0.056,2.9,0.056,5.142
		c0,9.823-1.216,16.936-3.638,21.327c-2.423,4.396-6.326,6.592-11.685,6.592c-5.362,0-9.039-2.495-11.024-7.482
		c-1.986-4.985-2.971-17.044-2.971-36.178V92.655c0-18.98,1.048-31.058,3.162-36.228c2.107-5.169,5.973-7.756,11.61-7.756
		c4.739,0,8.156,2.107,10.269,6.304c2.107,4.196,3.165,11.199,3.165,20.994v2.102h38.083c0-0.814,0.037-1.902,0.112-3.274
		c0.071-1.359,0.112-2.375,0.112-3.046c0-18.11-4.269-31.729-12.801-40.857c-8.539-9.128-21.224-13.696-38.066-13.696
		c-10.768,0-20.059,1.893-27.884,5.674c-7.834,3.785-14.123,9.425-18.871,16.913c-3.267,5.194-5.674,12.979-7.236,23.364
		c-1.556,10.385-2.335,24.218-2.335,41.496c0,24.255,1.107,41.464,3.33,51.625c2.216,10.16,6.033,18.247,11.445,24.258
		c4.364,4.889,9.49,8.636,15.382,11.236c5.877,2.591,12.309,3.894,19.267,3.894c6.142,0,11.638-1.135,16.489-3.389
		c4.848-2.255,9.275-5.681,13.272-10.272l1.79,10.687H655.5V98.56h-54.64V128.548z M736.736,128.735
		c0,15.997-0.998,25.998-2.98,30.017c-1.992,4.022-5.602,6.023-10.824,6.023c-5.163,0-8.751-1.933-10.777-5.798
		c-2.021-3.876-3.03-13.946-3.03-30.242V21.058h-40.68v92.501c0,19.594,0.612,33.517,1.833,41.754
		c1.225,8.24,3.354,14.989,6.401,20.262c4.23,7.426,9.939,12.826,17.144,16.203c7.195,3.379,16.508,5.065,27.938,5.065
		c12.393,0,22.447-1.799,30.17-5.396c7.715-3.599,13.617-9.253,17.698-16.973c2.447-4.521,4.209-9.843,5.284-15.969
		c1.076-6.12,1.612-15.376,1.612-27.763V21.058h-39.788V128.735z M859.304,21.058l-16.66,54.275l-16.542-54.275h-43.158
		l39.494,98.851v72.775h40.976v-72.775l39.491-98.851H859.304z M59.084,7.955c-5.385,0.779-9.862,2.063-13.422,3.847
		c-4.458,2.226-7.601,5.387-9.418,9.468c-1.818,4.081-2.731,11.065-2.731,20.948v28.576c0,9.378-1.724,15.994-5.176,19.835
		c-3.451,3.84-9.334,5.754-17.652,5.754c-0.371,0-0.982-0.037-1.836-0.112c-0.854-0.068-1.541-0.109-2.058-0.109v31.775
		c0.517,0,1.203-0.037,2.058-0.111c0.854-0.076,1.465-0.113,1.836-0.113c8.317,0,14.201,1.931,17.652,5.783
		c3.452,3.859,5.176,10.491,5.176,19.909v28.686c0,9.812,0.913,16.735,2.731,20.788c1.817,4.047,4.96,7.184,9.418,9.415
		c3.489,1.784,7.925,3.072,13.313,3.852c5.381,0.779,13.237,1.169,23.566,1.169h8.876v-31.775c-0.593,0-1.443,0.041-2.55,0.113
		c-1.116,0.073-1.927,0.111-2.444,0.111c-6.366,0-10.635-1.116-12.813-3.336c-2.183-2.226-3.273-6.894-3.273-14.014v-26.803
		c0-9.836-1.727-16.782-5.191-20.841c-3.464-4.063-9.802-6.949-19.024-8.667c9.15-1.627,15.473-4.514,18.968-8.642
		s5.247-11.173,5.247-21.147V55.842c0-7.239,1.106-11.959,3.33-14.179c2.213-2.22,6.541-3.327,12.982-3.327
		c0.439,0,1.197,0.035,2.276,0.109c1.066,0.075,1.901,0.112,2.494,0.112V6.789h-8.876C72.288,6.789,64.468,7.175,59.084,7.955z
		 M214.624,126.469h-39.497v7.573c0,11.804-1.204,19.878-3.607,24.218c-2.404,4.343-6.604,6.516-12.592,6.516
		c-6.438,0-10.84-2.986-13.21-8.967c-2.366-5.973-3.544-22.216-3.544-48.725v-3.237c0-24.673,1.185-39.884,3.566-45.646
		c2.375-5.758,6.796-8.639,13.262-8.639c5.942,0,10.182,2.364,12.708,7.078c2.525,4.726,3.866,12.919,4.015,24.586l38.899,0.109
		v-1.671c0-20.785-4.695-36.389-14.085-46.818c-9.394-10.435-23.479-15.647-42.26-15.647c-10.912,0-20.302,1.877-28.171,5.625
		c-7.869,3.75-14.216,9.337-19.042,16.761c-3.417,5.35-5.861,12.779-7.345,22.281c-1.49,9.503-2.226,24.577-2.226,45.219
		c0,20.617,0.736,35.666,2.226,45.159c1.484,9.493,3.938,16.907,7.351,22.241c4.901,7.494,11.324,13.094,19.276,16.801
		c7.947,3.704,17.493,5.559,28.636,5.559c18.937,0,32.998-5.06,42.176-15.177c9.172-10.114,13.761-25.624,13.761-46.527
		c0-2.37-0.028-4.144-0.075-5.335C214.795,128.62,214.721,127.508,214.624,126.469z M322.143,113.616
		c-3.935-6.083-12.926-13.579-26.952-22.476c-1.855-1.266-3.302-2.188-4.34-2.781c-1.279-0.82-3.111-2.001-5.503-3.561
		c-13.182-8.149-19.769-15.856-19.769-23.12c0-4.446,1.15-8.025,3.47-10.725c2.314-2.706,5.369-4.065,9.178-4.065
		c4.48,0,7.894,1.934,10.248,5.792c2.351,3.86,3.526,9.54,3.526,17.035v2.12h36.002c0-0.667,0.041-1.596,0.113-2.788
		c0.078-1.184,0.112-2.12,0.112-2.793c0-15.903-4.365-28.059-13.107-36.455c-8.735-8.396-21.399-12.602-37.985-12.602
		c-15.252,0-27.223,4.262-35.921,12.792c-8.705,8.527-13.051,20.274-13.051,35.251c0,6.154,0.742,11.826,2.223,17.014
		c1.487,5.187,3.645,9.864,6.463,14.01c3.938,5.487,13.967,13.643,30.092,24.467l1.889,1.223c1.054,0.667,2.544,1.677,4.496,3.011
		c12.053,7.667,18.083,15.664,18.083,23.997c0,5.06-1.235,9.06-3.701,12c-2.469,2.937-5.836,4.408-10.099,4.408
		c-5.318,0-9.097-1.942-11.341-5.82c-2.245-3.878-3.365-10.557-3.365-20.031v-5.034h-36.685c-0.218,2.681-0.343,4.639-0.38,5.86
		c-0.038,1.225-0.05,2.401-0.05,3.514c0,17.552,4.362,30.769,13.101,39.653c8.729,8.892,21.798,13.331,39.195,13.331
		c16.577,0,29.328-4.633,38.248-13.91c8.92-9.27,13.38-22.473,13.38-39.613c0-5.855-0.648-11.286-1.945-16.297
		C326.466,122.018,324.593,117.546,322.143,113.616z M429.514,113.616c-3.932-6.083-12.919-13.579-26.955-22.476
		c-1.852-1.266-3.299-2.188-4.34-2.781c-1.271-0.82-3.108-2.001-5.499-3.561c-13.182-8.149-19.772-15.856-19.772-23.12
		c0-4.446,1.159-8.025,3.469-10.725c2.314-2.706,5.375-4.065,9.182-4.065c4.477,0,7.894,1.934,10.245,5.792
		c2.351,3.86,3.536,9.54,3.536,17.035v2.12h35.996c0-0.667,0.044-1.596,0.112-2.788c0.075-1.184,0.112-2.12,0.112-2.793
		c0-15.903-4.368-28.059-13.104-36.455c-8.742-8.396-21.406-12.602-37.982-12.602c-15.258,0-27.229,4.262-35.928,12.792
		c-8.704,8.527-13.05,20.274-13.05,35.251c0,6.154,0.736,11.826,2.226,17.014c1.487,5.187,3.638,9.864,6.46,14.01
		c3.934,5.487,13.967,13.643,30.091,24.467l1.893,1.223c1.05,0.667,2.541,1.677,4.489,3.011
		c12.056,7.667,18.085,15.664,18.085,23.997c0,5.06-1.235,9.06-3.701,12c-2.472,2.937-5.839,4.408-10.101,4.408
		c-5.315,0-9.094-1.942-11.339-5.82s-3.367-10.557-3.367-20.031v-5.034H333.59c-0.218,2.681-0.343,4.639-0.38,5.86
		c-0.038,1.225-0.05,2.401-0.05,3.514c0,17.552,4.365,30.769,13.101,39.653c8.729,8.892,21.799,13.331,39.195,13.331
		c16.58,0,29.331-4.633,38.25-13.91c8.919-9.27,13.38-22.473,13.38-39.613c0-5.855-0.651-11.286-1.948-16.297
		C433.835,122.018,431.964,117.546,429.514,113.616z M526.607,96.383c-8.318,0-14.201-1.914-17.652-5.754
		c-3.451-3.841-5.175-10.457-5.175-19.835V42.218c0-9.659-0.933-16.567-2.793-20.726c-1.852-4.159-5.047-7.389-9.578-9.69
		c-3.495-1.783-7.913-3.068-13.262-3.847c-5.35-0.78-13.145-1.167-23.395-1.167h-8.876v31.769c0.661,0,1.508-0.038,2.55-0.112
		c1.035-0.075,1.774-0.109,2.22-0.109c6.435,0,10.762,1.107,12.982,3.327c2.216,2.219,3.329,6.939,3.329,14.179v26.693
		c0,9.896,1.743,16.892,5.244,20.981c3.499,4.094,9.821,6.959,18.971,8.586c-9.222,1.714-15.566,4.595-19.027,8.655
		c-3.46,4.053-5.188,10.986-5.188,20.804v26.696c0,7.239-1.113,11.96-3.329,14.183c-2.22,2.213-6.547,3.323-12.982,3.323
		c-0.446,0-1.185-0.038-2.22-0.111c-1.042-0.072-1.889-0.113-2.55-0.113v31.775h10.428c9.655,0,17.085-0.374,22.285-1.122
		c5.197-0.752,9.474-1.982,12.819-3.698c4.53-2.322,7.726-5.571,9.578-9.754c1.861-4.19,2.793-11.144,2.793-20.852v-28.583
		c0-9.381,1.724-15.991,5.175-19.831c3.451-3.841,9.334-5.762,17.652-5.762c0.371,0,0.982,0.037,1.836,0.113
		c0.854,0.074,1.541,0.111,2.058,0.111V96.162c-0.517,0-1.203,0.041-2.058,0.109C527.589,96.346,526.979,96.383,526.607,96.383z"/>
	<path opacity="0.4" d="M1156.026,205.895l-4.789,3.192v5.524c-0.663-0.159-1.293-0.283-1.889-0.364
		c-0.599-0.081-1.144-0.122-1.634-0.122c-1.901,0-3.229,0.677-3.975,2.026c-0.749,1.356-1.116,4-1.116,7.935v20.373h-7.056v4.789
		l-4.788-4.789v-42.468h10.924l2.565,2.565c0.553-0.563,1.117-1.082,1.703-1.499c1.555-1.101,3.311-1.752,5.265-1.952
		L1156.026,205.895z M1270.005,214.823v29.636h-6.955v4.789l-4.789-4.789v-26.256c0-2.292-0.109-3.95-0.31-5.076h-5.365v-1.213
		c-0.155,0.194-0.312,0.38-0.445,0.614c-0.748,1.284-1.122,3.081-1.122,5.378v26.553h-7.056v4.789l-4.789-4.789v-42.468h11.112
		l2.244,2.244c0.691-0.673,1.418-1.243,2.188-1.689c1.662-0.96,3.604-1.44,5.827-1.44c3.273,0,5.671,1.101,7.187,3.296
		C1269.247,206.596,1270.005,210.072,1270.005,214.823z M1236.611,244.459h-7.638v4.789l-4.789-4.789h-0.698h-3.636v-1.047
		c-0.417,0.243-0.815,0.536-1.253,0.733c-1.771,0.798-3.693,1.199-5.771,1.199c-3.321,0-5.949-1.078-7.888-3.232
		c-1.942-2.154-2.912-5.069-2.912-8.745c0-0.262,0.041-0.496,0.051-0.751h-1.083h-1.378h-0.172
		c-0.407,3.834-1.521,6.899-3.506,9.009c-2.52,2.676-6.345,4.014-11.48,4.014c-5.795,0-9.87-1.653-12.227-4.945
		c-2.36-3.295-3.539-9.113-3.539-17.449c0-8.333,1.179-14.154,3.548-17.465c2.37-3.308,6.432-4.967,12.193-4.967
		c5.173,0,8.981,1.331,11.424,3.98c2.443,2.654,3.659,6.792,3.659,12.418v0.729h-6.662v4.789l-4.789-4.789v-1.203
		c0-2.537-0.271-4.337-0.813-5.409c-0.543-1.069-1.459-1.605-2.744-1.605c-1.478,0-2.478,0.724-2.995,2.17
		c-0.524,1.45-0.786,5.24-0.786,11.379c0,5.887,0.262,9.637,0.793,11.243c0.523,1.609,1.511,2.412,2.951,2.412
		c1.247,0,2.161-0.567,2.734-1.704c0.576-1.141,0.86-2.943,0.86-5.416c0-0.196-0.009-0.511-0.034-0.954
		c-0.025-0.442-0.034-0.782-0.034-1.025h11.619l2.688,2.688c0.359-1.951,1.076-3.66,2.211-5.085c1.654-2.08,4.381-3.878,8.162-5.396
		c0.895-0.343,2.107-0.792,3.635-1.354c4.39-1.609,6.585-3.427,6.585-5.449c0-1.244-0.315-2.189-0.942-2.831
		c-0.626-0.648-1.531-0.973-2.716-0.973c-1.421,0-2.48,0.437-3.167,1.294c-0.688,0.86-1.029,2.192-1.029,3.993v0.294h-3.962
		l-3.192,4.788l-4.789-4.788c0-4.795,1.335-8.358,3.997-10.691c2.666-2.331,6.709-3.504,12.137-3.504c2.445,0,4.624,0.23,6.542,0.68
		c1.917,0.452,3.521,1.104,4.819,1.961c1.664,1.129,2.831,2.482,3.505,4.074c0.666,1.588,1.01,4.484,1.01,8.687v16.371
		c0,3.323,0.112,5.86,0.346,7.607C1235.686,241.94,1236.072,243.362,1236.611,244.459z M1222.672,224.032
		c-3.02,0.858-5.23,1.921-6.624,3.196c-1.388,1.27-2.083,2.861-2.083,4.771c0,1.344,0.344,2.422,1.031,3.229
		c0.689,0.805,1.616,1.206,2.781,1.206c1.716,0,2.962-0.583,3.735-1.758c0.773-1.173,1.159-3.146,1.159-5.912V224.032z
		 M1392.042,240.192c0.233,1.748,0.617,3.17,1.157,4.267h-7.639v4.789l-4.789-4.789h-0.698h-4.789v-0.373
		c-0.034,0.016-0.065,0.044-0.099,0.06c-1.771,0.798-3.695,1.199-5.771,1.199c-3.313,0-5.948-1.078-7.887-3.232
		c-1.94-2.154-2.912-5.069-2.912-8.745c0-3.208,0.829-5.855,2.49-7.938c1.659-2.08,4.378-3.878,8.159-5.396
		c0.895-0.343,2.107-0.792,3.636-1.354c4.392-1.609,6.587-3.427,6.587-5.449c0-1.244-0.317-2.189-0.944-2.831
		c-0.627-0.648-1.531-0.973-2.713-0.973c-1.424,0-2.479,0.437-3.171,1.294c-0.688,0.86-1.028,2.192-1.028,3.993v0.294h-3.959
		l-3.193,4.788l-4.788-4.788c0-4.795,1.331-8.358,3.999-10.691c2.66-2.331,6.707-3.504,12.135-3.504c2.441,0,4.62,0.23,6.541,0.68
		c1.914,0.452,3.522,1.104,4.819,1.961c1.665,1.129,2.828,2.482,3.505,4.074c0.667,1.588,1.006,4.484,1.006,8.687v16.371
		C1391.695,235.908,1391.812,238.445,1392.042,240.192z M1379.266,224.032c-3.023,0.858-5.231,1.921-6.625,3.196
		c-1.394,1.27-2.083,2.861-2.083,4.771c0,1.344,0.341,2.422,1.03,3.229c0.688,0.805,1.617,1.206,2.78,1.206
		c1.711,0,2.958-0.583,3.731-1.758c0.773-1.173,1.166-3.146,1.166-5.912V224.032z M1393.211,153.156l4.789,4.788h-4.789v29.951
		h-37.785v56.563h-6.956v4.789l-4.788-4.789V234.28h-4.091c-0.509,3.188-1.699,5.722-3.598,7.573
		c-2.594,2.524-6.456,3.785-11.592,3.785c-2.59,0-4.938-0.368-7.043-1.102c-2.104-0.738-3.74-1.755-4.909-3.055
		c-1.322-1.493-2.264-3.479-2.828-5.955c-0.561-2.476-0.839-6.435-0.839-11.878c0-6.008,0.284-10.201,0.86-12.577
		c0.574-2.378,1.559-4.339,2.952-5.886c1.344-1.44,3.046-2.534,5.113-3.264c2.067-0.739,4.471-1.11,7.208-1.11
		c2.787,0,5.194,0.402,7.224,1.194c2.029,0.798,3.679,1.979,4.953,3.544c1.073,1.322,1.844,2.903,2.308,4.736
		c0.465,1.84,0.695,4.973,0.695,9.403v5.104h-19.276c-0.025,0.121-0.041,0.28-0.041,0.477c-0.097,1.793-0.146,3.046-0.146,3.76
		c0,2.997,0.317,5.078,0.95,6.245c0.636,1.169,1.719,1.749,3.255,1.749c1.34,0,2.351-0.449,3.033-1.354
		c0.684-0.903,1.022-2.272,1.022-4.103c0-0.371-0.036-0.941-0.112-1.708c-0.021-0.147-0.033-0.272-0.033-0.369h11.133l3.801,3.802
		v-45.397h-38.678v56.563h-6.137v4.789l-4.787-4.789h-3.297v-1.003c-0.286,0.215-0.536,0.495-0.838,0.683
		c-1.631,0.997-3.436,1.5-5.422,1.5c-1.664,0-3.177-0.3-4.536-0.898c-1.362-0.599-2.506-1.449-3.436-2.55
		c-1.057-1.315-1.796-3.087-2.226-5.298c-0.428-2.213-0.643-6.362-0.643-12.451c0-9.58,0.808-15.882,2.426-18.903
		c1.615-3.017,4.521-4.529,8.71-4.529c1.786,0,3.354,0.396,4.705,1.19c1.344,0.799,2.556,2.027,3.636,3.686v-17.989h-40.732v4.789
		l-4.789-4.789c-1.113-3.56-1.927-7.295-2.438-11.188c-0.521-3.9-0.776-8.071-0.776-12.527c0-2.746,0.069-6.069,0.219-9.963
		c0.144-3.904,0.219-6.445,0.219-7.629c0-10.47-1.356-17.631-4.057-21.494c-2.702-3.857-7.557-5.79-14.565-5.79h-8.103v68.591
		h-35.002v4.789l-4.789-4.789V16.27h45.156c14.749,0,25.462,0.692,32.134,2.067c6.672,1.378,12.077,3.738,16.23,7.089
		c4.889,4.016,8.54,8.967,10.949,14.844c2.409,5.879,3.616,12.873,3.616,20.981c0,9.901-1.733,18.195-5.197,24.894
		c-3.464,6.703-8.845,12.203-16.146,16.518c12.371,5.494,18.89,18.512,19.561,39.055v0.558c0.077,2.154,0.149,5.274,0.222,9.35
		c0.302,19.286,3.491,31.379,9.58,36.271h5.521V16.27h93.239l4.789,4.789h-4.789v28.468h-53.449v31.475h49.328l4.788,4.789h-4.788
		v29.655h-49.328v37.711H1393.211z M1245.752,66.055c0-7.395-1.714-12.642-5.137-15.741c-3.424-3.102-9.264-4.648-17.509-4.648
		c-0.516,0-1.31,0.037-2.376,0.112c-1.066,0.074-1.937,0.112-2.594,0.112v42.013c0.657,0,1.527,0.038,2.594,0.113
		c1.066,0.074,1.86,0.112,2.376,0.112c8.245,0,14.085-1.677,17.509-5.039C1244.038,79.729,1245.752,74.055,1245.752,66.055z
		 M1293.418,220.55c0-3.594-0.293-6.069-0.869-7.426c-0.58-1.354-1.584-2.033-3.012-2.033c-1.497,0-2.528,0.771-3.08,2.311
		c-0.555,1.538-0.833,4.951-0.833,10.229c0,5.5,0.257,8.926,0.776,10.285c0.518,1.356,1.466,2.032,2.846,2.032
		c1.575,0,2.663-0.816,3.269-2.457C1293.116,231.853,1293.418,227.54,1293.418,220.55z M1321.038,215.098
		c0,0.61,0.006,1.088,0.016,1.434c0.012,0.344,0.034,0.652,0.056,0.92h7.931v-0.222c0.097-1.078,0.147-1.836,0.147-2.281
		c0-2.082-0.334-3.623-1.008-4.621c-0.667-0.99-1.708-1.489-3.123-1.489c-1.435,0-2.466,0.489-3.09,1.455
		C1321.346,211.263,1321.038,212.866,1321.038,215.098z M983.614,125.244l4.789,4.788h-4.789v24.607h-14.846v33.256h-32.034v4.789
		l-4.789-4.789V154.64h-51.626v4.789l-4.788-4.789v-32.376l53.97-103.914h39.268l4.788,4.789h-4.788v102.106H983.614z
		 M936.301,56.609l-31.117,68.635h31.117V56.609z M1122.911,16.27v171.626l4.788,4.789v-4.789h35.299V21.058h4.788l-4.788-4.789
		H1122.911z M1128.299,240.192c0.229,1.748,0.617,3.17,1.156,4.267h-7.639v4.789l-4.789-4.789h-0.701h-4.57v-0.498
		c-0.109,0.053-0.206,0.134-0.315,0.185c-1.773,0.798-3.697,1.199-5.771,1.199c-3.319,0-5.948-1.078-7.891-3.232
		s-2.911-5.069-2.911-8.745c0-3.208,0.829-5.855,2.487-7.938c1.659-2.08,4.381-3.878,8.165-5.396
		c0.896-0.343,2.107-0.792,3.636-1.354c4.389-1.609,6.581-3.427,6.581-5.449c0-1.244-0.312-2.189-0.938-2.831
		c-0.627-0.648-1.534-0.973-2.719-0.973c-1.418,0-2.479,0.437-3.164,1.294c-0.687,0.86-1.032,2.192-1.032,3.993v0.294h-3.957
		l-3.191,4.788l-4.789-4.788c0-4.795,1.331-8.358,3.993-10.691c2.666-2.331,6.709-3.504,12.135-3.504c2.444,0,4.627,0.23,6.544,0.68
		c1.92,0.452,3.526,1.104,4.816,1.961c1.664,1.129,2.834,2.482,3.505,4.074c0.673,1.588,1.01,4.484,1.01,8.687v16.371
		C1127.949,235.908,1128.064,238.445,1128.299,240.192z M1115.519,224.032c-3.026,0.858-5.234,1.921-6.625,3.196
		c-1.391,1.27-2.086,2.861-2.086,4.771c0,1.344,0.344,2.422,1.033,3.229c0.688,0.805,1.614,1.206,2.777,1.206
		c1.718,0,2.965-0.583,3.738-1.758c0.776-1.173,1.162-3.146,1.162-5.912V224.032z M1002.316,187.896h35.299v-71.26h32.068v71.26
		l4.789,4.789v-4.789h34.408V21.058h4.789l-4.789-4.789h-39.197v64.731h-32.068V21.058h4.789l-4.789-4.789h-40.088v171.626
		l4.789,4.789V187.896z M1093.527,232.132c0,4.297-1.325,7.62-3.973,9.975c-2.646,2.353-6.422,3.532-11.326,3.532
		c-4.657,0-8.283-1.186-10.868-3.555c-2.123-1.945-3.326-4.574-3.704-7.804h-1.817c-0.508,3.188-1.695,5.722-3.601,7.573
		c-2.591,2.524-6.453,3.785-11.586,3.785c-2.594,0-4.938-0.368-7.042-1.102c-2.104-0.738-3.741-1.755-4.91-3.055
		c-1.325-1.493-2.267-3.479-2.831-5.955c-0.182-0.798-0.32-1.805-0.442-2.911h-1.478h-1.281h-0.172
		c-0.408,3.834-1.525,6.899-3.511,9.009c-2.519,2.676-6.345,4.014-11.477,4.014c-5.796,0-9.872-1.653-12.233-4.945
		c-2.357-3.295-3.538-9.113-3.538-17.449c0-8.333,1.185-14.154,3.554-17.465c2.363-3.308,6.432-4.967,12.193-4.967
		c5.172,0,8.979,1.331,11.42,3.98c2.441,2.654,3.66,6.792,3.66,12.418v0.729h-6.659v4.789l-4.788-4.789v-1.203
		c0-2.537-0.275-4.337-0.817-5.409c-0.546-1.069-1.463-1.605-2.747-1.605c-1.475,0-2.475,0.724-2.996,2.17
		c-0.521,1.45-0.779,5.24-0.779,11.379c0,5.887,0.262,9.637,0.788,11.243c0.525,1.609,1.513,2.412,2.953,2.412
		c1.247,0,2.161-0.567,2.737-1.704c0.573-1.141,0.861-2.943,0.861-5.416c0-0.196-0.01-0.511-0.038-0.954
		c-0.021-0.442-0.034-0.782-0.034-1.025h11.623l2.553,2.554c-0.125-1.914-0.193-4.144-0.193-6.731c0-6.008,0.29-10.201,0.863-12.577
		c0.574-2.378,1.557-4.339,2.953-5.886c1.347-1.44,3.049-2.534,5.112-3.264c1.435-0.512,3.09-0.783,4.848-0.938l-3.498-3.498
		l7.296-10.472h5.896h4.917l4.788,4.788h-4.788v0.845h-4.917l-7.14,8.181c2.701,0.019,5.051,0.405,7.033,1.179
		c2.027,0.798,3.68,1.979,4.951,3.544c1.075,1.322,1.843,2.903,2.307,4.736c0.469,1.84,0.698,4.973,0.698,9.403v5.104h-19.278
		c-0.025,0.121-0.038,0.28-0.038,0.477c-0.097,1.793-0.146,3.046-0.146,3.76c0,2.997,0.315,5.078,0.951,6.245
		c0.63,1.169,1.718,1.749,3.252,1.749c1.341,0,2.35-0.449,3.033-1.354c0.679-0.903,1.022-2.272,1.022-4.103
		c0-0.371-0.041-0.941-0.109-1.708c-0.024-0.147-0.034-0.272-0.034-0.369h11.13l1.563,1.563l10.359,0.041l4.789,4.788h-3.498
		c0.003,0.004,0.006,0.013,0.009,0.016c0.739,1.01,1.853,1.519,3.337,1.519c1.185,0,2.16-0.347,2.927-1.045
		c0.764-0.695,1.147-1.593,1.147-2.693c0-0.953-0.265-1.742-0.792-2.362c-0.53-0.627-1.709-1.366-3.532-2.224
		c-0.39-0.193-1.004-0.486-1.834-0.879c-4.271-1.989-7.251-3.856-8.931-5.597c-1.201-1.179-2.117-2.553-2.75-4.125
		c-0.633-1.573-0.951-3.217-0.951-4.938c0-3.879,1.313-6.971,3.94-9.278c2.625-2.307,6.173-3.464,10.65-3.464
		c4.639,0,8.212,1.11,10.722,3.32c2.503,2.21,3.753,5.382,3.753,9.512v0.773l-5.583-0.02v4.773l-4.788-4.789
		c-0.051-2.138-0.378-3.665-0.977-4.569c-0.599-0.911-1.575-1.366-2.922-1.366c-1.203,0-2.156,0.328-2.867,0.979
		s-1.067,1.509-1.067,2.563c0,1.87,1.778,3.592,5.331,5.166c0.49,0.222,0.87,0.396,1.143,0.515c4.859,2.188,8.108,4.309,9.751,6.366
		C1092.704,226.1,1093.527,228.793,1093.527,232.132z M1043.286,215.098c0,0.61,0.009,1.088,0.019,1.434
		c0.009,0.344,0.031,0.652,0.056,0.92h7.929v-0.222c0.1-1.078,0.15-1.836,0.15-2.281c0-2.082-0.338-3.623-1.008-4.621
		c-0.673-0.99-1.712-1.489-3.123-1.489c-1.438,0-2.467,0.489-3.09,1.455C1043.598,211.263,1043.286,212.866,1043.286,215.098z"/>
	<path fill="#FFFFFF" d="M1127.699,192.685h40.087V21.058h-40.087V192.685z M973.557,23.138H934.29l-53.971,103.915v32.376h56.415
		v33.256h36.822v-33.256h14.847v-29.396h-14.847V23.138z M1042.404,121.425h32.068v71.26h39.197V21.058h-39.197V85.79h-32.068
		V21.058h-40.088v171.626h40.088V121.425z M1033.456,232.616h-11.622c0,0.242,0.012,0.583,0.034,1.025
		c0.028,0.443,0.037,0.758,0.037,0.954c0,2.472-0.287,4.273-0.86,5.415c-0.577,1.138-1.49,1.705-2.737,1.705
		c-1.44,0-2.429-0.804-2.953-2.412c-0.526-1.606-0.788-5.356-0.788-11.243c0-6.139,0.259-9.93,0.779-11.379
		c0.521-1.447,1.521-2.17,2.996-2.17c1.284,0,2.201,0.536,2.746,1.605c0.543,1.072,0.817,2.872,0.817,5.409v1.203h11.448V222
		c0-5.627-1.219-9.764-3.661-12.418c-2.44-2.649-6.247-3.981-11.419-3.981c-5.762,0-9.831,1.659-12.193,4.967
		c-2.37,3.312-3.555,9.133-3.555,17.465c0,8.337,1.182,14.155,3.539,17.45c2.359,3.292,6.438,4.945,12.233,4.945
		c5.132,0,8.957-1.338,11.477-4.014c2.517-2.675,3.778-6.725,3.778-12.149c0-0.174-0.019-0.433-0.05-0.786
		C1033.469,233.124,1033.456,232.834,1033.456,232.616z M1051.371,202.274l12.831-10.472h-10.812l-7.296,10.472H1051.371z
		 M1064.131,210.34c-1.271-1.564-2.925-2.747-4.951-3.544c-2.032-0.792-4.436-1.195-7.224-1.195c-2.74,0-5.141,0.372-7.211,1.111
		c-2.064,0.729-3.766,1.823-5.112,3.264c-1.397,1.547-2.38,3.508-2.953,5.886c-0.573,2.376-0.864,6.569-0.864,12.577
		c0,5.443,0.281,9.402,0.843,11.878c0.563,2.476,1.506,4.462,2.831,5.955c1.168,1.3,2.806,2.315,4.91,3.055
		c2.104,0.732,4.448,1.102,7.042,1.102c5.132,0,8.994-1.261,11.586-3.786c2.594-2.524,3.891-6.288,3.891-11.288v-1.073h-11.13
		c0,0.097,0.009,0.222,0.034,0.368c0.068,0.768,0.109,1.338,0.109,1.708c0,1.831-0.344,3.2-1.023,4.104
		c-0.683,0.904-1.692,1.353-3.033,1.353c-1.534,0-2.621-0.579-3.251-1.748c-0.636-1.167-0.951-3.249-0.951-6.245
		c0-0.714,0.05-1.967,0.146-3.761c0-0.195,0.013-0.354,0.037-0.477h19.279v-5.103c0-4.431-0.23-7.564-0.698-9.404
		C1065.973,213.242,1065.206,211.662,1064.131,210.34z M1265.335,205.895c-2.224,0-4.165,0.479-5.827,1.44
		c-1.661,0.96-3.14,2.447-4.434,4.464v-5.019h-11.111v42.468h11.845v-26.553c0-2.297,0.373-4.094,1.122-5.378
		c0.745-1.284,1.779-1.93,3.104-1.93c1.129,0,1.912,0.417,2.354,1.25c0.438,0.833,0.661,2.953,0.661,6.354v26.256h11.744v-29.636
		c0-4.751-0.758-8.228-2.273-10.423C1271.005,206.995,1268.608,205.895,1265.335,205.895z M1398,54.314V21.058h-93.239v171.626
		h-5.521c-6.089-4.892-9.278-16.984-9.581-36.271c-0.071-4.075-0.144-7.195-0.222-9.35v-0.559
		c-0.67-20.542-7.188-33.562-19.56-39.054c7.301-4.315,12.683-9.814,16.146-16.518c3.464-6.699,5.198-14.993,5.198-24.895
		c0-8.109-1.207-15.102-3.617-20.981c-2.41-5.877-6.061-10.828-10.949-14.843c-4.152-3.352-9.559-5.711-16.229-7.09
		c-6.672-1.375-17.385-2.067-32.134-2.067h-45.156v171.626h39.791v-68.591h8.103c7.009,0,11.862,1.933,14.565,5.789
		c2.7,3.863,4.057,11.023,4.057,21.493c0,1.185-0.075,3.726-0.219,7.629c-0.15,3.894-0.219,7.218-0.219,9.964
		c0,4.456,0.256,8.626,0.776,12.527c0.511,3.894,1.325,7.628,2.438,11.188h45.521v17.989c-1.079-1.659-2.292-2.887-3.635-3.686
		c-1.351-0.795-2.919-1.19-4.705-1.19c-4.19,0-7.095,1.512-8.71,4.529c-1.619,3.021-2.427,9.322-2.427,18.903
		c0,6.089,0.216,10.238,0.643,12.451c0.431,2.211,1.17,3.981,2.227,5.298c0.929,1.1,2.073,1.951,3.436,2.55
		c1.359,0.599,2.871,0.898,4.536,0.898c1.986,0,3.791-0.503,5.422-1.5c1.63-1.001,3.005-2.451,4.133-4.355v4.676h10.925v-56.563
		h38.678v56.563h11.745v-56.563H1398v-34.74h-53.449v-37.71h49.327V85.79h-49.327V54.314H1398z M1341.882,210.34
		c-1.275-1.564-2.924-2.747-4.953-3.544c-2.029-0.792-4.438-1.195-7.225-1.195c-2.737,0-5.141,0.372-7.207,1.111
		c-2.067,0.729-3.77,1.823-5.113,3.264c-1.395,1.547-2.379,3.508-2.952,5.886c-0.576,2.376-0.86,6.569-0.86,12.577
		c0,5.443,0.276,9.402,0.839,11.878c0.563,2.476,1.505,4.462,2.826,5.955c1.17,1.3,2.807,2.315,4.911,3.055
		c2.104,0.732,4.452,1.102,7.043,1.102c5.134,0,8.998-1.261,11.592-3.786c2.587-2.524,3.887-6.288,3.887-11.288v-1.073h-11.132
		c0,0.097,0.012,0.222,0.033,0.368c0.075,0.768,0.112,1.338,0.112,1.708c0,1.831-0.34,3.2-1.022,4.104
		c-0.683,0.904-1.693,1.353-3.034,1.353c-1.536,0-2.618-0.579-3.254-1.748c-0.633-1.167-0.95-3.249-0.95-6.245
		c0-0.714,0.049-1.967,0.146-3.761c0-0.195,0.016-0.354,0.041-0.477h19.276v-5.103c0-4.431-0.231-7.564-0.695-9.404
		C1343.726,213.242,1342.955,211.662,1341.882,210.34z M1396.484,237.374v-16.371c0-4.203-0.339-7.1-1.007-8.687
		c-0.676-1.593-1.84-2.945-3.504-4.075c-1.297-0.856-2.906-1.508-4.82-1.961c-1.92-0.448-4.1-0.68-6.54-0.68
		c-5.428,0-9.476,1.174-12.135,3.505c-2.669,2.332-4,5.896-4,10.69h11.941v-0.293c0-1.802,0.339-3.133,1.028-3.993
		c0.692-0.857,1.746-1.294,3.171-1.294c1.182,0,2.086,0.323,2.713,0.972c0.626,0.643,0.944,1.588,0.944,2.831
		c0,2.023-2.195,3.841-6.588,5.45c-1.527,0.561-2.74,1.011-3.636,1.353c-3.781,1.519-6.5,3.317-8.158,5.396
		c-1.662,2.083-2.491,4.729-2.491,7.938c0,3.675,0.973,6.591,2.911,8.745c1.94,2.154,4.574,3.232,7.889,3.232
		c2.076,0,4-0.401,5.771-1.2c1.767-0.798,3.4-1.989,4.887-3.563l0.699,3.878h12.427c-0.539-1.097-0.923-2.519-1.156-4.268
		C1396.601,243.234,1396.484,240.697,1396.484,237.374z M1239.897,237.374v-16.371c0-4.203-0.343-7.1-1.011-8.687
		c-0.673-1.593-1.839-2.945-3.503-4.075c-1.298-0.856-2.903-1.508-4.82-1.961c-1.917-0.448-4.097-0.68-6.541-0.68
		c-5.428,0-9.472,1.174-12.137,3.505c-2.663,2.332-3.997,5.896-3.997,10.69h11.943v-0.293c0-1.802,0.34-3.133,1.029-3.993
		c0.686-0.857,1.745-1.294,3.167-1.294c1.185,0,2.089,0.323,2.716,0.972c0.626,0.643,0.941,1.588,0.941,2.831
		c0,2.023-2.194,3.841-6.584,5.45c-1.527,0.561-2.74,1.011-3.636,1.353c-3.782,1.519-6.507,3.317-8.161,5.396
		c-1.659,2.083-2.488,4.729-2.488,7.938c0,3.675,0.97,6.591,2.911,8.745c1.939,2.154,4.567,3.232,7.889,3.232
		c2.076,0,4-0.401,5.771-1.2c1.771-0.798,3.395-1.989,4.889-3.563l0.698,3.878h12.427c-0.539-1.097-0.926-2.519-1.156-4.268
		C1240.01,243.234,1239.897,240.697,1239.897,237.374z M1146.493,212.7v-5.92h-10.925v42.468h11.845v-20.374
		c0-3.934,0.367-6.577,1.115-7.934c0.745-1.35,2.073-2.026,3.975-2.026c0.489,0,1.036,0.04,1.635,0.121
		c0.595,0.081,1.225,0.206,1.889,0.365v-13.506c-1.954,0.2-3.71,0.852-5.266,1.951
		C1149.211,208.949,1147.786,210.567,1146.493,212.7z M1204.406,232.616h-11.619c0,0.242,0.009,0.583,0.034,1.025
		c0.024,0.443,0.034,0.758,0.034,0.954c0,2.472-0.284,4.273-0.86,5.415c-0.574,1.138-1.488,1.705-2.734,1.705
		c-1.44,0-2.429-0.804-2.952-2.412c-0.53-1.606-0.792-5.356-0.792-11.243c0-6.139,0.262-9.93,0.786-11.379
		c0.517-1.447,1.518-2.17,2.995-2.17c1.284,0,2.201,0.536,2.744,1.605c0.542,1.072,0.813,2.872,0.813,5.409v1.203h11.451V222
		c0-5.627-1.216-9.764-3.66-12.418c-2.441-2.649-6.251-3.981-11.424-3.981c-5.761,0-9.822,1.659-12.192,4.967
		c-2.369,3.312-3.548,9.133-3.548,17.465c0,8.337,1.179,14.155,3.538,17.45c2.357,3.292,6.433,4.945,12.228,4.945
		c5.135,0,8.96-1.338,11.479-4.014c2.521-2.675,3.776-6.725,3.776-12.149c0-0.174-0.013-0.433-0.05-0.786
		C1204.422,233.124,1204.406,232.834,1204.406,232.616z M1132.737,237.374v-16.371c0-4.203-0.336-7.1-1.01-8.687
		c-0.67-1.593-1.84-2.945-3.504-4.075c-1.291-0.856-2.896-1.508-4.817-1.961c-1.917-0.448-4.1-0.68-6.543-0.68
		c-5.426,0-9.47,1.174-12.135,3.505c-2.662,2.332-3.993,5.896-3.993,10.69h11.938v-0.293c0-1.802,0.346-3.133,1.031-3.993
		c0.687-0.857,1.747-1.294,3.165-1.294c1.185,0,2.092,0.323,2.719,0.972c0.627,0.643,0.938,1.588,0.938,2.831
		c0,2.023-2.191,3.841-6.58,5.45c-1.528,0.561-2.741,1.011-3.636,1.353c-3.785,1.519-6.506,3.317-8.165,5.396
		c-1.658,2.083-2.488,4.729-2.488,7.938c0,3.675,0.97,6.591,2.911,8.745c1.943,2.154,4.571,3.232,7.892,3.232
		c2.073,0,3.997-0.401,5.771-1.2c1.769-0.798,3.398-1.989,4.886-3.563l0.701,3.878h12.427c-0.539-1.097-0.926-2.519-1.156-4.268
		C1132.854,243.234,1132.737,240.697,1132.737,237.374z M1086.095,222.459c-0.271-0.119-0.651-0.294-1.142-0.516
		c-3.553-1.573-5.331-3.295-5.331-5.165c0-1.055,0.356-1.911,1.065-2.563c0.713-0.651,1.666-0.979,2.869-0.979
		c1.347,0,2.323,0.455,2.922,1.365c0.598,0.904,0.926,2.433,0.976,4.57l10.372,0.034v-0.772c0-4.131-1.25-7.302-3.753-9.513
		c-2.51-2.209-6.083-3.32-10.722-3.32c-4.478,0-8.025,1.158-10.65,3.464c-2.628,2.308-3.94,5.4-3.94,9.279
		c0,1.721,0.317,3.363,0.951,4.938c0.633,1.571,1.549,2.946,2.75,4.125c1.68,1.74,4.66,3.607,8.931,5.596
		c0.83,0.394,1.443,0.687,1.834,0.88c1.823,0.857,3.002,1.596,3.532,2.223c0.527,0.621,0.792,1.408,0.792,2.363
		c0,1.1-0.384,1.998-1.147,2.693c-0.768,0.698-1.742,1.045-2.927,1.045c-1.484,0-2.598-0.509-3.337-1.519
		c-0.745-1.011-1.179-2.609-1.3-4.805l-10.568-0.04v1.063c0,4.274,1.294,7.598,3.878,9.968c2.584,2.369,6.21,3.555,10.868,3.555
		c4.904,0,8.679-1.18,11.326-3.533s3.973-5.677,3.973-9.974c0-3.339-0.823-6.032-2.47-8.097
		C1094.204,226.767,1090.955,224.646,1086.095,222.459z M941.089,130.032h-31.117l31.117-68.635V130.032z M1056.078,222.019v0.222
		h-7.929c-0.025-0.269-0.047-0.576-0.057-0.92c-0.009-0.346-0.019-0.823-0.019-1.435c0-2.231,0.313-3.834,0.933-4.804
		c0.624-0.966,1.652-1.455,3.089-1.455c1.413,0,2.451,0.498,3.125,1.489c0.67,0.998,1.006,2.538,1.006,4.621
		C1056.227,220.183,1056.178,220.94,1056.078,222.019z M1245.403,87.879c-3.423,3.36-9.263,5.038-17.508,5.038
		c-0.516,0-1.31-0.037-2.377-0.112c-1.065-0.075-1.936-0.112-2.593-0.112V50.679c0.657,0,1.527-0.037,2.593-0.112
		c1.067-0.074,1.861-0.112,2.377-0.112c8.245,0,14.085,1.546,17.508,4.648c3.423,3.099,5.138,8.346,5.138,15.741
		C1250.541,78.844,1248.826,84.518,1245.403,87.879z M1297.304,238.28c-0.605,1.641-1.693,2.457-3.269,2.457
		c-1.381,0-2.328-0.677-2.846-2.032c-0.521-1.359-0.776-4.786-0.776-10.285c0-5.278,0.276-8.692,0.833-10.229
		c0.552-1.54,1.583-2.311,3.079-2.311c1.428,0,2.433,0.68,3.013,2.033c0.576,1.355,0.869,3.832,0.869,7.426
		C1298.207,232.329,1297.904,236.641,1297.304,238.28z M1333.829,222.019v0.222h-7.931c-0.022-0.269-0.044-0.576-0.057-0.92
		c-0.009-0.346-0.016-0.823-0.016-1.435c0-2.231,0.309-3.834,0.93-4.804c0.623-0.966,1.655-1.455,3.089-1.455
		c1.416,0,2.457,0.498,3.124,1.489c0.673,0.998,1.007,2.538,1.007,4.621C1333.976,220.183,1333.926,220.94,1333.829,222.019z
		 M1384.055,233.554c0,2.766-0.393,4.739-1.166,5.912c-0.773,1.175-2.021,1.758-3.731,1.758c-1.163,0-2.092-0.401-2.781-1.206
		c-0.688-0.808-1.029-1.887-1.029-3.23c0-1.908,0.689-3.501,2.083-4.77c1.394-1.276,3.601-2.339,6.625-3.196V233.554z
		 M1227.461,233.554c0,2.766-0.386,4.739-1.159,5.912c-0.773,1.175-2.021,1.758-3.735,1.758c-1.166,0-2.092-0.401-2.781-1.206
		c-0.688-0.808-1.031-1.887-1.031-3.23c0-1.908,0.695-3.501,2.083-4.77c1.393-1.276,3.604-2.339,6.624-3.196V233.554z
		 M1120.308,233.554c0,2.766-0.387,4.739-1.163,5.912c-0.773,1.175-2.021,1.758-3.737,1.758c-1.164,0-2.089-0.401-2.778-1.206
		c-0.688-0.808-1.032-1.887-1.032-3.23c0-1.908,0.695-3.501,2.086-4.77c1.391-1.276,3.598-2.339,6.625-3.196V233.554z"/>
</g>
</svg>
