<?xml version="1.0" encoding="utf-8"?>
<!-- Generator: Adobe Illustrator 16.0.0, SVG Export Plug-In . SVG Version: 6.00 Build 0)  -->
<!DOCTYPE svg PUBLIC "-//W3C//DTD SVG 1.1//EN" "http://www.w3.org/Graphics/SVG/1.1/DTD/svg11.dtd">
<svg version="1.1" id="Layer_1" xmlns="http://www.w3.org/2000/svg" xmlns:xlink="http://www.w3.org/1999/xlink" x="0px" y="0px"
	 width="64px" height="64px" viewBox="0 0 64 64" enable-background="new 0 0 64 64" xml:space="preserve">
<g>
	<path d="M39.757,0.956"/>
	<path d="M43.928,2.315l8.655,12.798l-2.896,2.237L38.552,1.729l1.134-0.791C37.223,0.329,34.648,0,32,0C14.354,0,0,14.355,0,32
		c0,17.645,14.354,32,32,32c17.645,0,32-14.355,32-32C64,18.571,55.68,7.054,43.928,2.315z M34.85,4.892l13.961,13.447l-2.59,2.802
		L31.857,8.036L34.85,4.892z M28.716,12.205l17.127,9.742l-1.821,3.33l-17.283-9.452L28.716,12.205z M24.732,20.298l18.851,5.933
		l-1.063,3.655l-18.985-5.435L24.732,20.298z M22.439,28.629l19.891,2.395l-0.369,3.844l-19.913-2.131L22.439,28.629z
		 M22.048,36.111H41.95v4.127H22.048V36.111z M49.969,44.023v4.125h-4.126H18.154h-4.125v-4.125v-15.78h4.125v15.78h27.688v-15.78
		h4.126V44.023z"/>
</g>
</svg>
