<?xml version="1.0" encoding="utf-8"?>
<!-- Generator: Adobe Illustrator 16.0.0, SVG Export Plug-In . SVG Version: 6.00 Build 0)  -->
<!DOCTYPE svg PUBLIC "-//W3C//DTD SVG 1.1//EN" "http://www.w3.org/Graphics/SVG/1.1/DTD/svg11.dtd">
<svg version="1.1" id="Layer_1" xmlns="http://www.w3.org/2000/svg" xmlns:xlink="http://www.w3.org/1999/xlink" x="0px" y="0px"
	 width="64px" height="64px" viewBox="0 0 64 64" enable-background="new 0 0 64 64" xml:space="preserve">
<path d="M32,0C14.355,0,0,14.355,0,32c0,17.645,14.355,32,32,32s32-14.355,32-32C64,14.355,49.645,0,32,0z M23.064,48.15h-6.711
	V26.575h6.711V48.15z M19.71,23.627c-2.153,0-3.89-1.742-3.89-3.889s1.736-3.889,3.89-3.889c2.146,0,3.888,1.742,3.888,3.889
	S21.855,23.627,19.71,23.627z M48.18,48.15h-6.705V37.658c0-2.502-0.043-5.721-3.484-5.721c-3.489,0-4.021,2.727-4.021,5.541V48.15
	h-6.697V26.575H33.7v2.95h0.092c0.896-1.696,3.083-3.485,6.347-3.485c6.787,0,8.041,4.467,8.041,10.276V48.15L48.18,48.15z"/>
</svg>
