<?xml version="1.0" encoding="utf-8"?>
<!-- Generator: Adobe Illustrator 16.0.0, SVG Export Plug-In . SVG Version: 6.00 Build 0)  -->
<!DOCTYPE svg PUBLIC "-//W3C//DTD SVG 1.1//EN" "http://www.w3.org/Graphics/SVG/1.1/DTD/svg11.dtd">
<svg version="1.1" id="Layer_2" xmlns="http://www.w3.org/2000/svg" xmlns:xlink="http://www.w3.org/1999/xlink" x="0px" y="0px"
	 width="44px" height="44px" viewBox="0 0 44 44" enable-background="new 0 0 44 44" xml:space="preserve">
<path d="M25.111,22l7.244-7.244c0.859-0.859,0.859-2.254,0-3.111c-0.858-0.859-2.252-0.859-3.11,0L22,18.889l-7.245-7.244
	c-0.859-0.859-2.252-0.859-3.111,0c-0.859,0.857-0.859,2.252,0,3.111L18.889,22l-7.245,7.244c-0.859,0.859-0.859,2.252,0,3.111
	C12.074,32.785,12.637,33,13.2,33s1.125-0.215,1.555-0.645L22,25.111l7.245,7.244C29.675,32.785,30.236,33,30.8,33
	s1.127-0.215,1.558-0.645c0.858-0.859,0.858-2.252,0-3.111L25.111,22z"/>
<path d="M22,3.172c10.396,0,18.827,8.43,18.827,18.828c0,10.398-8.431,18.826-18.827,18.826C11.602,40.826,3.172,32.398,3.172,22
	C3.172,11.602,11.602,3.172,22,3.172 M22,1C10.42,1,1,10.42,1,22c0,11.578,9.42,21,21,21c11.579,0,21-9.422,21-21
	C43,10.42,33.579,1,22,1L22,1z"/>
</svg>
