<?xml version="1.0" encoding="utf-8"?>
<!-- Generator: Adobe Illustrator 16.0.0, SVG Export Plug-In . SVG Version: 6.00 Build 0)  -->
<!DOCTYPE svg PUBLIC "-//W3C//DTD SVG 1.1//EN" "http://www.w3.org/Graphics/SVG/1.1/DTD/svg11.dtd">
<svg version="1.1" id="Layer_1" xmlns="http://www.w3.org/2000/svg" xmlns:xlink="http://www.w3.org/1999/xlink" x="0px" y="0px"
	 width="64px" height="64px" viewBox="0 0 64 64" enable-background="new 0 0 64 64" xml:space="preserve">
<path d="M32,0C14.355,0,0,14.355,0,32c0,17.645,14.355,32,32,32c17.645,0,32-14.355,32-32C64,14.355,49.645,0,32,0z
	 M36.913,37.561c0.767,0.658,1.45,1.961,1.45,3.951c0,2.854-0.027,5.158-0.027,5.855c0,0.422,0.212,0.893,0.758,1.027H26.988
	c0.549-0.137,0.767-0.605,0.767-1.027c0-0.506-0.02-1.848-0.03-3.629c-5.937,1.289-7.188-2.861-7.188-2.861
	c-0.971-2.467-2.37-3.121-2.37-3.121c-1.938-1.326,0.146-1.297,0.146-1.297c2.143,0.15,3.27,2.197,3.27,2.197
	c1.903,3.262,4.995,2.32,6.212,1.773c0.193-1.381,0.745-2.318,1.353-2.854c-4.739-0.537-9.721-2.367-9.721-10.546
	c0-2.33,0.832-4.235,2.198-5.727c-0.22-0.54-0.952-2.709,0.208-5.646c0,0,1.792-0.574,5.869,2.188
	c1.702-0.473,3.528-0.711,5.343-0.719c1.813,0.007,3.639,0.246,5.344,0.719c4.072-2.762,5.861-2.188,5.861-2.188
	c1.165,2.938,0.434,5.107,0.212,5.646c1.369,1.492,2.194,3.397,2.194,5.727C46.657,35.229,41.667,37.031,36.913,37.561z"/>
</svg>
