<?xml version="1.0" encoding="utf-8"?>
<!-- Generator: Adobe Illustrator 16.0.0, SVG Export Plug-In . SVG Version: 6.00 Build 0)  -->
<!DOCTYPE svg PUBLIC "-//W3C//DTD SVG 1.1//EN" "http://www.w3.org/Graphics/SVG/1.1/DTD/svg11.dtd">
<svg version="1.1" id="Layer_2" xmlns="http://www.w3.org/2000/svg" xmlns:xlink="http://www.w3.org/1999/xlink" x="0px" y="0px"
	 width="44px" height="44px" viewBox="0 0 44 44" enable-background="new 0 0 44 44" xml:space="preserve">
<path d="M22,3.172c10.398,0,18.828,8.43,18.828,18.828c0,10.398-8.43,18.826-18.828,18.826C11.602,40.826,3.172,32.398,3.172,22
	C3.172,11.602,11.602,3.172,22,3.172 M22,1C10.42,1,1,10.42,1,22c0,11.578,9.42,21,21,21s21-9.422,21-21C43,10.42,33.58,1,22,1L22,1
	z"/>
<path d="M22,15.947c-0.525,0-1.051,0.195-1.458,0.584l-8.89,8.494c-0.843,0.807-0.873,2.142-0.068,2.982
	c0.807,0.844,2.143,0.873,2.984,0.067L22,20.977l7.432,7.101c0.842,0.806,2.18,0.775,2.983-0.067
	c0.806-0.843,0.774-2.178-0.067-2.983l-8.89-8.493C23.05,16.143,22.525,15.947,22,15.947z"/>
</svg>
