<?xml version="1.0" encoding="utf-8"?>
<!-- Generator: Adobe Illustrator 16.0.0, SVG Export Plug-In . SVG Version: 6.00 Build 0)  -->
<!DOCTYPE svg PUBLIC "-//W3C//DTD SVG 1.1//EN" "http://www.w3.org/Graphics/SVG/1.1/DTD/svg11.dtd">
<svg version="1.1" id="Layer_1" xmlns="http://www.w3.org/2000/svg" xmlns:xlink="http://www.w3.org/1999/xlink" x="0px" y="0px"
	 width="28px" height="28px" viewBox="0 0 28 28" enable-background="new 0 0 28 28" xml:space="preserve">
<g opacity="0.4">
	<path d="M22.956,2.045c0.943-0.943,2.373-1.1,3.493-0.496c-0.132-0.245-0.288-0.481-0.494-0.688c-1.15-1.15-3.032-1.15-4.182,0
		l-8.364,8.364l1.183,1.183L22.956,2.045z"/>
	<path d="M1.55,26.449c-0.605-1.12-0.448-2.55,0.495-3.494l8.364-8.364l-1.183-1.183l-8.364,8.364c-1.15,1.15-1.15,3.031,0,4.182
		v0.001C1.069,26.161,1.305,26.317,1.55,26.449z"/>
	<path d="M2.045,6.227c-1.15-1.15-1.15-3.032,0-4.182v0c1.151-1.15,3.032-1.15,4.182,0L5.045,0.862c-1.15-1.15-3.032-1.15-4.182,0v0
		c-1.15,1.15-1.15,3.032,0,4.182L2.045,6.227z"/>
</g>
<path opacity="0.4" fill="#FFFFFF" d="M18.773,14.591l8.364-8.364c1.149-1.15,1.149-3.032,0-4.182c-1.15-1.15-3.032-1.15-4.182,0
	l-8.364,8.364L6.228,2.045c-1.15-1.15-3.031-1.15-4.182,0v0c-1.15,1.15-1.15,3.032,0,4.182l8.364,8.364l-8.364,8.364
	c-1.15,1.15-1.15,3.032,0,4.181v0.001c1.151,1.149,3.032,1.149,4.182,0l8.364-8.364l8.364,8.364c1.15,1.149,3.031,1.149,4.182,0
	c1.149-1.15,1.149-3.032,0-4.182L18.773,14.591z"/>
</svg>
