<?xml version="1.0" encoding="utf-8"?>
<!-- Generator: Adobe Illustrator 16.0.0, SVG Export Plug-In . SVG Version: 6.00 Build 0)  -->
<!DOCTYPE svg PUBLIC "-//W3C//DTD SVG 1.1//EN" "http://www.w3.org/Graphics/SVG/1.1/DTD/svg11.dtd">
<svg version="1.1" id="Layer_1" xmlns="http://www.w3.org/2000/svg" xmlns:xlink="http://www.w3.org/1999/xlink" x="0px" y="0px"
	 width="32px" height="32px" viewBox="0 0 32 32" enable-background="new 0 0 32 32" xml:space="preserve">
<path d="M16,1C7.729,1,1,7.729,1,16c0,8.271,6.729,15,15,15c8.271,0,15-6.729,15-15C31,7.729,24.271,1,16,1z M23.396,21.175
	c0.614,0.613,0.614,1.608,0,2.222c-0.307,0.308-0.709,0.461-1.111,0.461c-0.401,0-0.804-0.153-1.11-0.461L16,18.223l-5.175,5.174
	c-0.307,0.308-0.709,0.461-1.111,0.461c-0.402,0-0.805-0.153-1.112-0.461c-0.613-0.613-0.613-1.608,0-2.222L13.778,16l-5.175-5.175
	c-0.613-0.613-0.613-1.609,0-2.222c0.614-0.614,1.609-0.614,2.223,0L16,13.777l5.174-5.174c0.614-0.614,1.608-0.614,2.222,0
	c0.614,0.612,0.614,1.608,0,2.222L18.223,16L23.396,21.175z"/>
</svg>
