<?xml version="1.0" encoding="utf-8"?>
<!-- Generator: Adobe Illustrator 16.0.0, SVG Export Plug-In . SVG Version: 6.00 Build 0)  -->
<!DOCTYPE svg PUBLIC "-//W3C//DTD SVG 1.1//EN" "http://www.w3.org/Graphics/SVG/1.1/DTD/svg11.dtd">
<svg version="1.1" id="Layer_1" xmlns="http://www.w3.org/2000/svg" xmlns:xlink="http://www.w3.org/1999/xlink" x="0px" y="0px"
	 width="197px" height="100px" viewBox="5.5 0 197 100" enable-background="new 5.5 0 197 100" xml:space="preserve">
<g id="g22-Clipped">
	<g id="g22">
	</g>
</g>
<g id="path106">
</g>
<g id="path106_1_">
</g>
<g>
	<g>
		<g>
			<path d="M18.059,86.979c0.447-0.097,1.05-0.157,1.654-0.157c0.941,0,1.678,0.133,2.208,0.628c0.482,0.422,0.7,1.098,0.7,1.786
				c0,0.881-0.265,1.495-0.688,1.955c-0.507,0.53-1.327,0.772-1.979,0.772c-0.108,0-0.218,0-0.313,0v3.028h-1.582V86.979z
				 M19.641,90.673c0.072,0.025,0.156,0.025,0.253,0.025c0.796,0,1.159-0.569,1.159-1.328c0-0.712-0.291-1.268-1.026-1.268
				c-0.145,0-0.29,0.024-0.386,0.061V90.673z"/>
			<path d="M23.574,86.979c0.495-0.097,1.122-0.157,1.726-0.157c0.869,0,1.641,0.121,2.173,0.603
				c0.495,0.447,0.639,0.991,0.639,1.691c0,0.868-0.422,1.652-1.254,2.038v0.023c0.555,0.218,0.832,0.737,0.989,1.606
				c0.157,0.904,0.375,1.908,0.519,2.208h-1.653c-0.098-0.23-0.278-1.049-0.398-1.943c-0.145-1.014-0.398-1.306-0.93-1.306h-0.229
				v3.249h-1.582L23.574,86.979L23.574,86.979z M25.156,90.527h0.277c0.688,0,1.086-0.557,1.086-1.268
				c0-0.688-0.277-1.181-0.989-1.206c-0.133,0-0.29,0.011-0.374,0.049V90.527z"/>
			<path d="M34.05,90.781c0,3.065-1.085,4.309-2.63,4.309c-1.847,0-2.57-1.956-2.57-4.188c0-2.221,0.881-4.14,2.679-4.14
				C33.495,86.762,34.05,88.923,34.05,90.781z M30.489,90.925c0,1.847,0.35,2.789,0.989,2.789c0.664,0,0.917-1.208,0.917-2.861
				c0-1.424-0.217-2.716-0.929-2.716C30.839,88.139,30.489,89.176,30.489,90.925z"/>
			<path d="M36.186,94.994l-1.823-8.135h1.75l0.578,3.513c0.146,0.867,0.315,1.87,0.423,2.823h0.024
				c0.108-0.965,0.241-1.941,0.386-2.861l0.556-3.475h1.738l-1.859,8.135H36.186z"/>
			<path d="M43.944,91.421h-1.858v2.195h2.1v1.376h-3.681v-8.134h3.536v1.376h-1.955v1.87h1.858V91.421z"/>
			<path d="M48.7,91.421h-1.858v2.195h2.1v1.376H45.26v-8.134h3.537v1.376h-1.956v1.87H48.7V91.421z"/>
			<path d="M50.015,86.979c0.398-0.097,0.978-0.157,1.605-0.157c1.026,0,1.738,0.242,2.256,0.725c0.7,0.628,1.062,1.702,1.062,3.283
				c0,1.641-0.422,2.812-1.135,3.439c-0.542,0.531-1.352,0.784-2.486,0.784c-0.495,0-0.99-0.049-1.305-0.085v-7.989H50.015z
				 M51.596,93.738c0.072,0.025,0.192,0.025,0.277,0.025c0.76,0,1.424-0.75,1.424-2.995c0-1.665-0.435-2.679-1.388-2.679
				c-0.108,0-0.217,0-0.313,0.037V93.738z"/>
			<path d="M60.744,90.781c0,3.065-1.087,4.309-2.631,4.309c-1.846,0-2.57-1.956-2.57-4.188c0-2.221,0.88-4.14,2.68-4.14
				C60.189,86.762,60.744,88.923,60.744,90.781z M57.184,90.925c0,1.847,0.35,2.789,0.989,2.789c0.664,0,0.917-1.208,0.917-2.861
				c0-1.424-0.217-2.716-0.929-2.716C57.533,88.139,57.184,89.176,57.184,90.925z"/>
			<path d="M61.744,86.979c0.495-0.097,1.124-0.157,1.726-0.157c0.87,0,1.642,0.121,2.173,0.603
				c0.495,0.447,0.639,0.991,0.639,1.691c0,0.868-0.423,1.652-1.255,2.038v0.023c0.555,0.218,0.832,0.737,0.99,1.606
				c0.157,0.904,0.374,1.908,0.519,2.208h-1.654c-0.097-0.23-0.277-1.049-0.398-1.943c-0.144-1.014-0.398-1.306-0.929-1.306h-0.228
				v3.249h-1.582V86.979z M63.326,90.527h0.277c0.688,0,1.085-0.557,1.085-1.268c0-0.688-0.277-1.181-0.989-1.206
				c-0.133,0-0.29,0.011-0.374,0.049V90.527z"/>
			<path d="M70.856,91.421h-1.857v2.195h2.099v1.376h-3.68v-8.134h3.536v1.376h-1.955v1.87h1.857V91.421z"/>
			<path d="M71.99,93.375c0.326,0.181,0.881,0.315,1.339,0.315c0.748,0,1.111-0.387,1.111-0.919c0-0.59-0.363-0.881-1.05-1.325
				c-1.11-0.678-1.533-1.533-1.533-2.271c0-1.303,0.868-2.39,2.57-2.39c0.531,0,1.038,0.146,1.28,0.29l-0.255,1.365
				c-0.228-0.146-0.579-0.277-1.037-0.277c-0.676,0-1.003,0.41-1.003,0.845c0,0.482,0.242,0.735,1.123,1.268
				c1.075,0.651,1.473,1.471,1.473,2.329c0,1.483-1.099,2.462-2.69,2.462c-0.652,0-1.292-0.17-1.557-0.326L71.99,93.375z"/>
			<path d="M78.845,86.979c0.398-0.097,0.978-0.157,1.606-0.157c1.025,0,1.737,0.242,2.256,0.725c0.7,0.628,1.061,1.702,1.061,3.283
				c0,1.641-0.422,2.812-1.134,3.439c-0.543,0.531-1.351,0.784-2.486,0.784c-0.495,0-0.989-0.049-1.304-0.085L78.845,86.979
				L78.845,86.979z M80.426,93.738c0.072,0.025,0.193,0.025,0.277,0.025c0.76,0,1.424-0.75,1.424-2.995
				c0-1.665-0.435-2.679-1.387-2.679c-0.109,0-0.217,0-0.314,0.037V93.738z"/>
			<path d="M88.21,91.421h-1.858v2.195h2.1v1.376h-3.68v-8.134h3.536v1.376h-1.955v1.87h1.858V91.421z"/>
			<path d="M91.444,86.979c0.446-0.097,1.05-0.157,1.653-0.157c0.941,0,1.678,0.133,2.208,0.628
				c0.483,0.422,0.701,1.098,0.701,1.786c0,0.881-0.265,1.495-0.688,1.955c-0.507,0.53-1.327,0.772-1.979,0.772
				c-0.108,0-0.217,0-0.313,0v3.028h-1.582V86.979z M93.025,90.673c0.072,0.025,0.156,0.025,0.253,0.025
				c0.796,0,1.159-0.569,1.159-1.328c0-0.712-0.29-1.268-1.026-1.268c-0.145,0-0.289,0.024-0.386,0.061L93.025,90.673L93.025,90.673
				z"/>
			<path d="M96.958,86.979c0.496-0.097,1.124-0.157,1.727-0.157c0.869,0,1.641,0.121,2.173,0.603
				c0.494,0.447,0.639,0.991,0.639,1.691c0,0.868-0.422,1.652-1.255,2.038v0.023c0.554,0.218,0.832,0.737,0.989,1.606
				c0.156,0.904,0.375,1.908,0.519,2.208h-1.653c-0.097-0.23-0.276-1.049-0.397-1.943c-0.145-1.014-0.398-1.306-0.929-1.306h-0.23
				v3.249h-1.582V86.979z M98.54,90.527h0.278c0.688,0,1.086-0.557,1.086-1.268c0-0.688-0.277-1.181-0.99-1.206
				c-0.133,0-0.29,0.011-0.374,0.049V90.527z"/>
			<path d="M106.071,91.421h-1.859v2.195h2.101v1.376h-3.682v-8.134h3.536v1.376h-1.955v1.87h1.859V91.421z"/>
			<path d="M107.205,93.375c0.325,0.181,0.882,0.315,1.34,0.315c0.749,0,1.108-0.387,1.108-0.919c0-0.59-0.359-0.881-1.048-1.325
				c-1.11-0.678-1.533-1.533-1.533-2.271c0-1.303,0.869-2.39,2.571-2.39c0.53,0,1.037,0.146,1.279,0.29l-0.254,1.365
				c-0.229-0.146-0.579-0.277-1.039-0.277c-0.676,0-1.001,0.41-1.001,0.845c0,0.482,0.24,0.735,1.122,1.268
				c1.076,0.651,1.474,1.471,1.474,2.329c0,1.483-1.098,2.462-2.691,2.462c-0.654,0-1.292-0.17-1.559-0.326L107.205,93.375z"/>
			<path d="M115.58,91.421h-1.859v2.195h2.1v1.376h-3.682v-8.134h3.537v1.376h-1.955v1.87h1.859V91.421z"/>
			<path d="M116.896,94.994v-8.135h1.446l1.256,3.187c0.241,0.627,0.639,1.677,0.869,2.377h0.024
				c-0.048-0.855-0.158-2.271-0.158-3.765v-1.8h1.388v8.134h-1.446l-1.243-3.09c-0.267-0.688-0.642-1.713-0.82-2.448h-0.024
				c0.035,0.819,0.095,2.076,0.095,3.705v1.833h-1.386V94.994z"/>
			<path d="M127.02,94.874c-0.23,0.107-0.675,0.192-1.229,0.192c-2.077,0-3.066-1.714-3.066-4.02c0-3.065,1.701-4.259,3.283-4.259
				c0.556,0,0.94,0.107,1.098,0.217l-0.266,1.327c-0.181-0.085-0.386-0.156-0.735-0.156c-0.893,0-1.701,0.772-1.701,2.788
				c0,1.942,0.735,2.704,1.701,2.704c0.267,0,0.568-0.061,0.761-0.121L127.02,94.874z"/>
			<path d="M129.47,86.858v8.134h-1.581v-8.134H129.47z"/>
			<path d="M132.173,93.136l-0.362,1.858h-1.532l1.762-8.135h1.896l1.58,8.135h-1.532l-0.351-1.858H132.173z M133.487,91.903
				l-0.265-1.702c-0.086-0.494-0.193-1.302-0.266-1.847h-0.036c-0.085,0.545-0.206,1.389-0.29,1.86l-0.301,1.688H133.487z"/>
			<path d="M141.768,91.421h-1.859v2.195h2.1v1.376h-3.681v-8.134h3.536v1.376h-1.955v1.87h1.859V91.421z"/>
			<path d="M143.083,94.994v-8.135h1.448l1.254,3.187c0.242,0.627,0.64,1.677,0.869,2.377h0.022
				c-0.048-0.855-0.157-2.271-0.157-3.765v-1.8h1.39v8.134h-1.448l-1.243-3.09c-0.265-0.688-0.64-1.713-0.82-2.448h-0.024
				c0.036,0.819,0.098,2.076,0.098,3.705v1.833h-1.388V94.994z"/>
			<path d="M152.808,86.858v8.134h-1.58v-8.134H152.808z"/>
			<path d="M154.22,94.994v-8.135h1.448l1.255,3.187c0.241,0.627,0.64,1.677,0.868,2.377h0.024
				c-0.049-0.855-0.156-2.271-0.156-3.765v-1.8h1.388v8.134h-1.448l-1.243-3.09c-0.265-0.688-0.639-1.713-0.819-2.448h-0.026
				c0.038,0.819,0.099,2.076,0.099,3.705v1.833h-1.389V94.994z"/>
			<path d="M161.33,88.32h-1.438v-1.462h4.465v1.462h-1.448v6.672h-1.579V88.32L161.33,88.32z"/>
			<path d="M168.629,91.421h-1.858v2.195h2.101v1.376h-3.681v-8.134h3.537v1.376h-1.957v1.87h1.858V91.421L168.629,91.421z"/>
			<path d="M169.945,86.979c0.495-0.097,1.122-0.157,1.726-0.157c0.869,0,1.641,0.121,2.173,0.603
				c0.493,0.447,0.64,0.991,0.64,1.691c0,0.868-0.422,1.652-1.255,2.038v0.023c0.555,0.218,0.833,0.737,0.988,1.606
				c0.157,0.904,0.376,1.908,0.52,2.208h-1.654c-0.096-0.23-0.276-1.049-0.396-1.943c-0.145-1.014-0.398-1.306-0.93-1.306h-0.229
				v3.249h-1.58v-8.013H169.945z M171.527,90.527h0.278c0.688,0,1.085-0.557,1.085-1.268c0-0.688-0.277-1.181-0.99-1.206
				c-0.133,0-0.29,0.011-0.373,0.049V90.527L171.527,90.527z"/>
			<path d="M175.617,94.994v-8.135h1.448l1.254,3.187c0.241,0.627,0.64,1.677,0.869,2.377h0.022
				c-0.048-0.855-0.157-2.271-0.157-3.765v-1.8h1.389v8.134h-1.448l-1.241-3.09c-0.267-0.688-0.641-1.713-0.822-2.448h-0.023
				c0.037,0.819,0.098,2.076,0.098,3.705v1.833h-1.388V94.994z"/>
			<path d="M185.283,91.421h-1.858v2.195h2.099v1.376h-3.68v-8.134h3.536v1.376h-1.955v1.87h1.858V91.421z"/>
			<path d="M187.478,88.32h-1.435v-1.462h4.465v1.462h-1.448v6.672h-1.582V88.32z"/>
		</g>
		<path d="M194.068,100H13.932c-4.575,0-8.297-3.724-8.297-8.297v-1.508c0-4.574,3.722-8.296,8.297-8.296h180.137
			c4.574,0,8.297,3.722,8.297,8.296v1.508C202.365,96.276,198.643,100,194.068,100z M13.932,83.407
			c-3.743,0-6.788,3.044-6.788,6.788v1.508c0,3.743,3.045,6.788,6.788,6.788h180.137c3.744,0,6.789-3.045,6.789-6.788v-1.508
			c0-3.744-3.045-6.788-6.789-6.788H13.932z"/>
	</g>
	<g>
		<path d="M77.181,21.515c-4.266-4.106-9.495-6.189-15.543-6.189c-2.332,0-4.639,0.35-6.856,1.042
			c-1.905,0.594-3.78,1.464-5.585,2.594v-2.493H38.48c-2.254,0-3.836,0.441-4.84,1.351c-1.007,0.911-1.517,2.097-1.517,3.525
			c0,1.455,0.51,2.655,1.517,3.567c1.004,0.909,2.587,1.351,4.84,1.351h0.925v38.091H38.48c-2.223,0-3.798,0.44-4.816,1.348
			c-1.022,0.911-1.542,2.112-1.542,3.569c0,1.429,0.51,2.615,1.517,3.524c1.003,0.908,2.587,1.351,4.84,1.351h15.369
			c2.252,0,3.835-0.442,4.84-1.351c1.007-0.909,1.517-2.096,1.517-3.524c0-1.457-0.511-2.655-1.517-3.566
			c-1.005-0.908-2.587-1.351-4.84-1.351h-4.65V51.654c1.903,1.075,3.837,1.909,5.761,2.484c2.215,0.661,4.49,0.996,6.765,0.996
			c5.264,0,10.064-1.604,14.263-4.77c5.064-3.819,7.631-8.739,7.631-14.626C83.618,30.414,81.452,25.627,77.181,21.515z
			 M73.825,35.781c0,2.221-1.177,4.389-3.497,6.441c-2.338,2.071-5.306,3.121-8.818,3.121c-3.485,0-6.444-1.057-8.797-3.142
			c-2.333-2.065-3.516-4.198-3.516-6.336c0-1.924,0.831-3.974,2.464-6.091c2.418-3.088,5.731-4.656,9.85-4.656
			c2.561,0,4.818,0.605,6.71,1.798c1.895,1.197,3.317,2.704,4.226,4.482C73.362,33.19,73.825,34.663,73.825,35.781z"/>
		<path d="M127.479,21.515c-4.266-4.106-9.494-6.189-15.543-6.189c-2.332,0-4.64,0.35-6.854,1.042
			c-1.906,0.594-3.781,1.464-5.586,2.594v-2.493H88.778c-2.253,0-3.836,0.441-4.84,1.351c-1.007,0.911-1.517,2.097-1.517,3.525
			c0,1.455,0.51,2.655,1.517,3.567c1.005,0.909,2.587,1.351,4.84,1.351h0.925v38.091h-0.925c-2.223,0-3.798,0.44-4.816,1.348
			c-1.023,0.911-1.542,2.112-1.542,3.569c0,1.429,0.51,2.615,1.517,3.524c1.004,0.908,2.587,1.351,4.84,1.351h15.37
			c2.253,0,3.834-0.442,4.839-1.351c1.006-0.909,1.516-2.098,1.516-3.524c0-1.455-0.51-2.655-1.516-3.566
			c-1.005-0.908-2.587-1.351-4.839-1.351h-4.651V51.654c1.904,1.075,3.838,1.909,5.761,2.484c2.213,0.661,4.489,0.996,6.764,0.996
			c5.265,0,10.064-1.604,14.265-4.77c5.064-3.819,7.631-8.74,7.631-14.626C133.916,30.413,131.75,25.627,127.479,21.515z
			 M124.122,35.781c0,2.221-1.176,4.389-3.495,6.441c-2.338,2.071-5.304,3.121-8.818,3.121c-3.482,0-6.443-1.057-8.796-3.142
			c-2.335-2.065-3.517-4.198-3.517-6.336c0-1.924,0.831-3.974,2.464-6.091c2.418-3.088,5.731-4.656,9.849-4.656
			c2.563,0,4.819,0.605,6.71,1.798c1.896,1.196,3.317,2.704,4.226,4.482C123.659,33.19,124.122,34.664,124.122,35.781z"/>
		<g>
			<rect x="147.035" width="11.444" height="10.301"/>
			<path d="M174.363,47.583c-1.005-0.909-2.589-1.351-4.84-1.351h-9.86V16.469h-16.222c-2.252,0-3.836,0.441-4.839,1.351
				c-1.006,0.911-1.517,2.097-1.517,3.525c0,1.458,0.52,2.659,1.542,3.57c1.019,0.906,2.593,1.348,4.815,1.348h6.429v19.97h-9.858
				c-2.253,0-3.836,0.442-4.84,1.351c-1.006,0.911-1.518,2.097-1.518,3.524c0,1.457,0.512,2.656,1.518,3.568
				c1.005,0.908,2.588,1.351,4.84,1.351h29.51c2.251,0,3.834-0.442,4.84-1.351c1.006-0.911,1.515-2.098,1.515-3.524
				C175.88,49.695,175.369,48.495,174.363,47.583z"/>
		</g>
	</g>
</g>
</svg>
