<?xml version="1.0" encoding="utf-8"?>
<!-- Generator: Adobe Illustrator 16.0.0, SVG Export Plug-In . SVG Version: 6.00 Build 0)  -->
<!DOCTYPE svg PUBLIC "-//W3C//DTD SVG 1.1//EN" "http://www.w3.org/Graphics/SVG/1.1/DTD/svg11.dtd">
<svg version="1.1" id="Layer_1" xmlns="http://www.w3.org/2000/svg" xmlns:xlink="http://www.w3.org/1999/xlink" x="0px" y="0px"
	 width="200px" height="35.025px" viewBox="0 0 200 35.025" enable-background="new 0 0 200 35.025" xml:space="preserve">
<path fill="#DCB92D" d="M85.403,17.504h2.263c0.011,0.16,0.019,0.327,0.024,0.498c0.005,0.171,0.008,0.417,0.008,0.739
	c0,1.413-0.175,2.435-0.523,3.066c-0.348,0.632-0.909,0.947-1.68,0.947c-0.771,0-1.299-0.358-1.584-1.076
	c-0.286-0.717-0.428-2.45-0.428-5.201v-4.134c0-2.729,0.151-4.465,0.455-5.208c0.303-0.743,0.859-1.115,1.669-1.115
	c0.681,0,1.172,0.302,1.476,0.906c0.303,0.604,0.455,1.61,0.455,3.018v0.302h5.475c0-0.117,0.005-0.273,0.016-0.47
	c0.01-0.196,0.016-0.342,0.016-0.438c0-2.604-0.613-4.561-1.84-5.874c-1.228-1.313-3.051-1.969-5.473-1.969
	c-1.547,0-2.883,0.272-4.008,0.815c-1.126,0.544-2.03,1.355-2.713,2.432c-0.47,0.747-0.816,1.866-1.04,3.359
	c-0.224,1.493-0.336,3.481-0.336,5.965c0,3.487,0.159,5.961,0.479,7.422c0.319,1.46,0.867,2.623,1.646,3.487
	c0.627,0.703,1.364,1.242,2.211,1.615c0.845,0.373,1.77,0.56,2.771,0.56c0.883,0,1.673-0.163,2.37-0.487
	c0.697-0.324,1.333-0.817,1.908-1.477l0.257,1.536h3.983V13.193h-7.855V17.504z"/>
<path fill="#DCB92D" d="M104.937,17.531c0,2.299-0.143,3.737-0.429,4.315c-0.287,0.578-0.805,0.866-1.556,0.866
	c-0.742,0-1.258-0.278-1.549-0.834c-0.29-0.557-0.436-2.004-0.436-4.347V2.051h-5.848V15.35c0,2.817,0.088,4.818,0.264,6.002
	c0.176,1.185,0.482,2.155,0.92,2.913c0.608,1.067,1.429,1.843,2.464,2.329c1.035,0.486,2.374,0.728,4.017,0.728
	c1.782,0,3.227-0.258,4.337-0.775c1.109-0.518,1.958-1.331,2.544-2.44c0.352-0.65,0.605-1.415,0.76-2.296
	c0.154-0.88,0.231-2.21,0.231-3.991V2.051h-5.72V17.531z"/>
<polygon fill="#DCB92D" points="122.557,2.051 120.162,9.854 117.784,2.051 111.58,2.051 117.257,16.262 117.257,26.725 
	123.148,26.725 123.148,16.262 128.825,2.051 "/>
<path fill="#DCB92D" d="M7.518,0.168C6.744,0.28,6.1,0.465,5.588,0.721c-0.641,0.32-1.093,0.774-1.354,1.361
	S3.841,3.673,3.841,5.093v4.108c0,1.349-0.248,2.299-0.744,2.852C2.601,12.605,1.755,12.88,0.56,12.88
	c-0.053,0-0.141-0.005-0.264-0.016C0.173,12.854,0.075,12.849,0,12.849v4.568c0.075,0,0.173-0.006,0.296-0.016
	c0.123-0.011,0.211-0.016,0.264-0.016c1.196,0,2.042,0.277,2.538,0.831c0.497,0.555,0.744,1.508,0.744,2.862v4.124
	c0,1.411,0.131,2.406,0.393,2.988c0.261,0.582,0.713,1.033,1.354,1.354c0.501,0.256,1.14,0.441,1.914,0.553s1.904,0.168,3.388,0.168
	h1.276v-4.568c-0.085,0-0.208,0.006-0.367,0.016c-0.16,0.011-0.277,0.016-0.351,0.016c-0.916,0-1.529-0.16-1.843-0.479
	c-0.313-0.32-0.471-0.991-0.471-2.015v-3.853c0-1.414-0.249-2.413-0.746-2.997c-0.498-0.583-1.409-0.999-2.735-1.246
	c1.315-0.234,2.224-0.649,2.727-1.243c0.502-0.593,0.754-1.606,0.754-3.04V7.052c0-1.041,0.159-1.719,0.479-2.038
	c0.319-0.319,0.941-0.479,1.867-0.479c0.063,0,0.172,0.005,0.327,0.016c0.154,0.011,0.273,0.016,0.359,0.016V0H10.89
	C9.416,0,8.292,0.056,7.518,0.168z"/>
<path fill="#DCB92D" d="M29.878,17.206H24.2v1.088c0,1.697-0.173,2.857-0.519,3.481c-0.346,0.625-0.949,0.937-1.81,0.937
	c-0.926,0-1.559-0.43-1.899-1.289c-0.34-0.858-0.51-3.194-0.51-7.005v-0.464c0-3.547,0.17-5.734,0.513-6.563
	c0.341-0.828,0.977-1.242,1.907-1.242c0.854,0,1.463,0.34,1.827,1.018c0.363,0.679,0.556,1.857,0.577,3.534l5.592,0.016v-0.24
	c0-2.988-0.675-5.231-2.025-6.731c-1.351-1.5-3.375-2.249-6.076-2.249c-1.568,0-2.918,0.27-4.049,0.809
	c-1.132,0.539-2.044,1.342-2.738,2.41c-0.491,0.769-0.843,1.837-1.056,3.203c-0.214,1.367-0.32,3.534-0.32,6.5
	c0,2.964,0.106,5.128,0.32,6.493c0.213,1.365,0.566,2.431,1.057,3.198c0.704,1.077,1.628,1.882,2.771,2.415
	c1.143,0.533,2.515,0.799,4.117,0.799c2.723,0,4.744-0.727,6.063-2.182c1.319-1.454,1.979-3.684,1.979-6.689
	c0-0.34-0.004-0.596-0.011-0.767C29.902,17.515,29.892,17.355,29.878,17.206z"/>
<path fill="#DCB92D" d="M45.334,15.357c-0.565-0.875-1.857-1.952-3.875-3.231c-0.266-0.182-0.475-0.315-0.624-0.4
	c-0.184-0.118-0.447-0.288-0.791-0.512c-1.895-1.172-2.842-2.279-2.842-3.324c0-0.639,0.166-1.154,0.499-1.542
	c0.333-0.389,0.772-0.584,1.32-0.584c0.644,0,1.135,0.277,1.473,0.833c0.338,0.555,0.507,1.372,0.507,2.449v0.304h5.176
	c0-0.096,0.005-0.229,0.016-0.4c0.011-0.17,0.016-0.305,0.016-0.402c0-2.286-0.627-4.034-1.884-5.241s-3.077-1.812-5.461-1.812
	c-2.192,0-3.914,0.613-5.165,1.839s-1.876,2.915-1.876,5.068c0,0.885,0.106,1.7,0.32,2.446c0.214,0.746,0.524,1.418,0.929,2.014
	c0.566,0.789,2.008,1.961,4.326,3.517l0.272,0.176c0.151,0.096,0.365,0.241,0.646,0.433c1.733,1.102,2.6,2.251,2.6,3.45
	c0,0.728-0.177,1.302-0.532,1.725c-0.355,0.422-0.839,0.634-1.452,0.634c-0.765,0-1.308-0.279-1.63-0.836
	c-0.323-0.558-0.484-1.518-0.484-2.88v-0.724h-5.274c-0.031,0.385-0.049,0.667-0.054,0.842c-0.006,0.176-0.008,0.345-0.008,0.505
	c0,2.523,0.627,4.423,1.884,5.701c1.255,1.278,3.134,1.916,5.635,1.916c2.383,0,4.216-0.666,5.499-2
	c1.282-1.332,1.923-3.23,1.923-5.694c0-0.842-0.093-1.623-0.28-2.343C45.957,16.565,45.687,15.923,45.334,15.357z"/>
<path fill="#DCB92D" d="M60.771,15.357c-0.565-0.875-1.857-1.952-3.875-3.231c-0.266-0.182-0.475-0.315-0.624-0.4
	c-0.184-0.118-0.447-0.288-0.792-0.512c-1.895-1.172-2.842-2.279-2.842-3.324c0-0.639,0.166-1.154,0.499-1.542
	c0.333-0.389,0.773-0.584,1.32-0.584c0.644,0,1.135,0.277,1.473,0.833c0.338,0.555,0.508,1.372,0.508,2.449v0.304h5.175
	c0-0.096,0.006-0.229,0.016-0.4c0.011-0.17,0.016-0.305,0.016-0.402c0-2.286-0.628-4.034-1.884-5.241
	c-1.257-1.207-3.077-1.812-5.461-1.812c-2.193,0-3.914,0.613-5.165,1.839C47.885,4.562,47.26,6.25,47.26,8.403
	c0,0.885,0.106,1.7,0.32,2.446s0.523,1.418,0.929,2.014c0.566,0.789,2.008,1.961,4.326,3.517l0.272,0.176
	c0.15,0.096,0.365,0.241,0.646,0.433c1.733,1.102,2.6,2.251,2.6,3.45c0,0.728-0.178,1.302-0.532,1.725
	c-0.355,0.422-0.839,0.634-1.452,0.634c-0.764,0-1.308-0.279-1.63-0.836c-0.322-0.558-0.483-1.518-0.483-2.88v-0.724h-5.273
	c-0.032,0.385-0.05,0.667-0.055,0.842c-0.005,0.176-0.007,0.345-0.007,0.505c0,2.523,0.627,4.423,1.884,5.701
	c1.255,1.278,3.133,1.916,5.634,1.916c2.383,0,4.217-0.666,5.499-2c1.282-1.332,1.923-3.23,1.923-5.694
	c0-0.842-0.093-1.623-0.28-2.343C61.392,16.565,61.123,15.923,60.771,15.357z"/>
<path fill="#DCB92D" d="M74.729,12.88c-1.196,0-2.041-0.275-2.538-0.828c-0.496-0.552-0.744-1.503-0.744-2.852V5.093
	c0-1.389-0.134-2.381-0.402-2.979c-0.266-0.598-0.726-1.063-1.377-1.393c-0.502-0.256-1.138-0.441-1.907-0.553
	C66.993,0.056,65.872,0,64.398,0h-1.276v4.567c0.095,0,0.217-0.005,0.367-0.016c0.149-0.011,0.255-0.016,0.319-0.016
	c0.925,0,1.547,0.159,1.866,0.479c0.319,0.319,0.479,0.998,0.479,2.038v3.837c0,1.423,0.25,2.429,0.753,3.016
	c0.503,0.589,1.412,1,2.727,1.235c-1.326,0.247-2.238,0.661-2.735,1.244s-0.745,1.58-0.745,2.991v3.838
	c0,1.041-0.161,1.72-0.479,2.039c-0.319,0.318-0.941,0.478-1.866,0.478c-0.064,0-0.17-0.005-0.319-0.016
	c-0.149-0.01-0.271-0.016-0.367-0.016v4.568h1.5c1.388,0,2.456-0.054,3.204-0.161c0.748-0.108,1.362-0.285,1.843-0.532
	c0.651-0.334,1.111-0.801,1.377-1.402c0.268-0.603,0.402-1.602,0.402-2.998v-4.109c0-1.349,0.248-2.299,0.744-2.851
	c0.497-0.552,1.342-0.828,2.538-0.828c0.053,0,0.141,0.005,0.264,0.016c0.123,0.01,0.221,0.016,0.296,0.016v-4.568
	c-0.075,0-0.173,0.005-0.296,0.016C74.87,12.875,74.782,12.88,74.729,12.88z"/>
<rect x="161.142" y="2.051" fill="#333D3A" width="5.763" height="24.673"/>
<path fill="#333D3A" d="M138.982,2.35h-5.645l-7.759,14.939v4.655h8.11v4.781h5.293v-4.781h2.135v-4.226h-2.135V2.35z
	 M134.314,17.718h-4.473l4.473-9.867V17.718z"/>
<polygon fill="#333D3A" points="148.879,16.48 153.49,16.48 153.49,26.725 159.125,26.725 159.125,2.051 153.49,2.051 
	153.49,11.357 148.879,11.357 148.879,2.051 143.117,2.051 143.117,26.725 148.879,26.725 "/>
<path fill="#333D3A" d="M147.593,32.465h-1.671c0,0.035,0.002,0.084,0.005,0.148c0.004,0.063,0.005,0.108,0.005,0.137
	c0,0.355-0.042,0.614-0.124,0.778c-0.083,0.164-0.214,0.246-0.394,0.246c-0.207,0-0.349-0.116-0.424-0.347
	c-0.076-0.231-0.113-0.77-0.113-1.616c0-0.882,0.037-1.428,0.112-1.636s0.219-0.312,0.431-0.312c0.185,0,0.316,0.077,0.395,0.231
	c0.078,0.154,0.118,0.413,0.118,0.777v0.173h1.646v-0.105c0-0.809-0.175-1.404-0.526-1.785c-0.351-0.381-0.898-0.572-1.642-0.572
	c-0.828,0-1.413,0.238-1.753,0.714c-0.34,0.476-0.511,1.313-0.511,2.511c0,1.199,0.169,2.035,0.509,2.508
	c0.339,0.474,0.925,0.711,1.758,0.711c0.738,0,1.288-0.192,1.65-0.577c0.362-0.385,0.543-0.967,0.543-1.747
	c0-0.025-0.002-0.063-0.007-0.113C147.595,32.538,147.593,32.497,147.593,32.465z"/>
<g>
	<polygon fill="#333D3A" points="150.169,28.104 152.013,26.598 150.459,26.598 149.41,28.104 	"/>
	<path fill="#333D3A" d="M152.003,29.263c-0.184-0.225-0.421-0.395-0.712-0.509c-0.292-0.114-0.638-0.172-1.039-0.172
		c-0.394,0-0.739,0.053-1.037,0.159c-0.297,0.105-0.542,0.262-0.735,0.47c-0.201,0.222-0.342,0.504-0.425,0.846
		c-0.083,0.341-0.124,0.944-0.124,1.808c0,0.782,0.041,1.351,0.121,1.707c0.081,0.356,0.216,0.642,0.407,0.856
		c0.168,0.187,0.403,0.333,0.706,0.439c0.302,0.105,0.64,0.158,1.012,0.158c0.738,0,1.293-0.181,1.666-0.544
		c0.373-0.363,0.559-0.904,0.559-1.623v-0.154h-1.6c0,0.014,0.001,0.032,0.005,0.053c0.01,0.11,0.016,0.192,0.016,0.246
		c0,0.263-0.049,0.46-0.147,0.589c-0.098,0.13-0.243,0.195-0.436,0.195c-0.221,0-0.377-0.083-0.468-0.251
		c-0.091-0.168-0.136-0.467-0.136-0.898c0-0.103,0.007-0.283,0.021-0.541c0-0.028,0.002-0.051,0.005-0.069h2.771v-0.733
		c0-0.637-0.033-1.087-0.1-1.352C152.268,29.68,152.158,29.453,152.003,29.263z M150.845,30.942v0.031h-1.14
		c-0.003-0.039-0.006-0.083-0.008-0.132c-0.001-0.05-0.002-0.118-0.002-0.207c0-0.321,0.044-0.551,0.133-0.69
		c0.09-0.139,0.238-0.209,0.444-0.209c0.203,0,0.353,0.071,0.449,0.214c0.097,0.144,0.145,0.365,0.145,0.664
		C150.867,30.677,150.86,30.787,150.845,30.942z"/>
</g>
<path fill="#333D3A" d="M180.928,28.624c-0.319,0-0.599,0.069-0.837,0.208c-0.239,0.138-0.452,0.351-0.638,0.641v-0.721h-1.597
	v6.105h1.703v-3.817c0-0.331,0.054-0.588,0.161-0.773c0.107-0.185,0.256-0.278,0.446-0.278c0.163,0,0.275,0.06,0.339,0.18
	c0.063,0.12,0.095,0.424,0.095,0.913v3.775h1.688v-4.261c0-0.683-0.109-1.183-0.327-1.499S181.399,28.624,180.928,28.624z"/>
<path fill="#333D3A" d="M200,6.833V2.051h-13.404v24.673h-0.794c-0.875-0.703-1.334-2.441-1.377-5.214
	c-0.011-0.586-0.021-1.035-0.032-1.344v-0.08c-0.096-2.953-1.033-4.825-2.812-5.615c1.05-0.62,1.823-1.411,2.321-2.374
	c0.498-0.963,0.747-2.156,0.747-3.579c0-1.166-0.173-2.171-0.52-3.017c-0.347-0.845-0.871-1.557-1.574-2.134
	c-0.597-0.481-1.375-0.821-2.333-1.02c-0.959-0.197-2.499-0.297-4.619-0.297h-6.492v24.673h5.72v-9.86h1.166
	c1.007,0,1.705,0.277,2.094,0.832c0.388,0.555,0.583,1.584,0.583,3.09c0,0.17-0.011,0.536-0.031,1.097
	c-0.021,0.56-0.032,1.037-0.032,1.432c0,0.641,0.037,1.24,0.112,1.801c0.074,0.56,0.19,1.097,0.351,1.608h6.544v2.586
	c-0.155-0.238-0.329-0.415-0.522-0.53c-0.194-0.114-0.42-0.171-0.677-0.171c-0.602,0-1.02,0.217-1.252,0.651
	c-0.232,0.435-0.349,1.34-0.349,2.717c0,0.875,0.031,1.472,0.092,1.79c0.062,0.318,0.168,0.573,0.32,0.762
	c0.134,0.158,0.298,0.28,0.494,0.367c0.195,0.086,0.413,0.129,0.652,0.129c0.286,0,0.545-0.072,0.78-0.216
	c0.234-0.144,0.432-0.352,0.594-0.625v0.672h1.57v-8.132h5.56v8.132h1.688v-8.132H200V21.73h-7.684v-5.422h7.091v-4.951h-7.091
	V6.833H200z M178.063,11.657c-0.492,0.483-1.332,0.725-2.517,0.725c-0.074,0-0.188-0.005-0.342-0.016
	c-0.153-0.01-0.278-0.016-0.373-0.016V6.31c0.095,0,0.22-0.006,0.373-0.016c0.153-0.011,0.268-0.016,0.342-0.016
	c1.186,0,2.025,0.222,2.517,0.668c0.492,0.445,0.738,1.2,0.738,2.263C178.801,10.358,178.555,11.175,178.063,11.657z M185.524,33.28
	c-0.087,0.235-0.244,0.353-0.47,0.353c-0.198,0-0.334-0.097-0.409-0.292s-0.112-0.688-0.112-1.479c0-0.759,0.04-1.25,0.12-1.471
	s0.228-0.332,0.443-0.332c0.205,0,0.35,0.098,0.433,0.292s0.125,0.551,0.125,1.067C185.654,32.424,185.61,33.044,185.524,33.28z
	 M191.933,29.263c-0.183-0.225-0.42-0.395-0.712-0.509c-0.292-0.114-0.638-0.172-1.039-0.172c-0.394,0-0.739,0.053-1.036,0.159
	c-0.297,0.105-0.542,0.262-0.735,0.47c-0.2,0.222-0.342,0.504-0.424,0.846c-0.083,0.341-0.124,0.944-0.124,1.808
	c0,0.782,0.04,1.351,0.121,1.707c0.081,0.356,0.216,0.642,0.406,0.856c0.168,0.187,0.404,0.333,0.706,0.439
	c0.302,0.105,0.64,0.158,1.012,0.158c0.738,0,1.293-0.181,1.667-0.544c0.372-0.363,0.559-0.904,0.559-1.623v-0.154h-1.601
	c0,0.014,0.001,0.032,0.005,0.053c0.011,0.11,0.016,0.192,0.016,0.246c0,0.263-0.049,0.46-0.147,0.589
	c-0.098,0.13-0.244,0.195-0.436,0.195c-0.221,0-0.376-0.083-0.468-0.251c-0.091-0.168-0.137-0.467-0.137-0.898
	c0-0.103,0.007-0.283,0.021-0.541c0-0.028,0.002-0.051,0.005-0.069h2.771v-0.733c0-0.637-0.033-1.087-0.1-1.352
	C192.198,29.68,192.087,29.453,191.933,29.263z M190.775,30.942v0.031h-1.14c-0.003-0.039-0.006-0.083-0.008-0.132
	c-0.001-0.05-0.002-0.118-0.002-0.207c0-0.321,0.044-0.551,0.134-0.69s0.238-0.209,0.444-0.209c0.204,0,0.353,0.071,0.449,0.214
	c0.097,0.144,0.145,0.365,0.145,0.664C190.796,30.677,190.789,30.787,190.775,30.942z M199.782,33.149v-2.354
	c0-0.604-0.049-1.02-0.145-1.249c-0.098-0.229-0.265-0.424-0.504-0.586c-0.187-0.123-0.418-0.217-0.693-0.282
	c-0.275-0.064-0.589-0.098-0.939-0.098c-0.78,0-1.362,0.168-1.745,0.504c-0.383,0.335-0.575,0.848-0.575,1.537h1.716V30.58
	c0-0.259,0.049-0.45,0.148-0.574c0.099-0.124,0.251-0.186,0.456-0.186c0.169,0,0.3,0.046,0.39,0.14
	c0.09,0.093,0.136,0.229,0.136,0.407c0,0.291-0.315,0.552-0.947,0.783c-0.22,0.081-0.394,0.146-0.522,0.194
	c-0.544,0.218-0.935,0.478-1.173,0.776c-0.239,0.299-0.358,0.68-0.358,1.141c0,0.528,0.14,0.947,0.419,1.257
	c0.279,0.309,0.657,0.464,1.134,0.464c0.299,0,0.575-0.058,0.83-0.173c0.254-0.114,0.488-0.286,0.702-0.512l0.101,0.558h1.786
	c-0.077-0.158-0.132-0.363-0.166-0.614C199.799,33.992,199.782,33.626,199.782,33.149z M197.995,32.6
	c0,0.397-0.056,0.681-0.167,0.85c-0.111,0.169-0.291,0.253-0.537,0.253c-0.167,0-0.3-0.058-0.399-0.174
	c-0.099-0.116-0.148-0.271-0.148-0.464c0-0.274,0.1-0.503,0.3-0.686c0.2-0.183,0.518-0.336,0.952-0.459V32.6z"/>
<path fill="#333D3A" d="M177.271,33.149v-2.354c0-0.604-0.049-1.02-0.145-1.249c-0.097-0.229-0.264-0.424-0.504-0.586
	c-0.186-0.123-0.417-0.217-0.693-0.282c-0.275-0.064-0.589-0.098-0.94-0.098c-0.78,0-1.361,0.168-1.744,0.504
	c-0.383,0.335-0.575,0.848-0.575,1.537h1.717V30.58c0-0.259,0.049-0.45,0.148-0.574c0.099-0.124,0.251-0.186,0.455-0.186
	c0.17,0,0.301,0.046,0.391,0.14c0.09,0.093,0.135,0.229,0.135,0.407c0,0.291-0.315,0.552-0.946,0.783
	c-0.22,0.081-0.394,0.146-0.522,0.194c-0.544,0.218-0.936,0.478-1.174,0.776c-0.238,0.299-0.357,0.68-0.357,1.141
	c0,0.528,0.139,0.947,0.418,1.257c0.279,0.309,0.657,0.464,1.134,0.464c0.298,0,0.575-0.058,0.83-0.173
	c0.254-0.114,0.488-0.286,0.702-0.512l0.101,0.558h1.786c-0.078-0.158-0.133-0.363-0.166-0.614
	C177.288,33.992,177.271,33.626,177.271,33.149z M175.484,32.6c0,0.397-0.056,0.681-0.167,0.85
	c-0.111,0.169-0.291,0.253-0.537,0.253c-0.167,0-0.3-0.058-0.4-0.174c-0.099-0.116-0.148-0.271-0.148-0.464
	c0-0.274,0.1-0.503,0.299-0.686c0.2-0.183,0.518-0.336,0.953-0.459V32.6z"/>
<path fill="#333D3A" d="M163.843,29.602v-0.851h-1.57v6.105h1.703v-2.929c0-0.566,0.053-0.946,0.161-1.141
	c0.107-0.194,0.298-0.292,0.571-0.292c0.071,0,0.149,0.006,0.235,0.018c0.085,0.012,0.176,0.03,0.271,0.053v-1.942
	c-0.281,0.029-0.533,0.122-0.757,0.28C164.234,29.063,164.03,29.295,163.843,29.602z"/>
<path fill="#333D3A" d="M172.169,32.465h-1.67c0,0.035,0.001,0.084,0.005,0.148c0.003,0.063,0.005,0.108,0.005,0.137
	c0,0.355-0.041,0.614-0.124,0.778c-0.083,0.164-0.214,0.246-0.393,0.246c-0.208,0-0.35-0.116-0.425-0.347
	c-0.076-0.231-0.114-0.77-0.114-1.616c0-0.882,0.038-1.428,0.113-1.636c0.075-0.208,0.218-0.312,0.431-0.312
	c0.185,0,0.316,0.077,0.395,0.231c0.078,0.154,0.117,0.413,0.117,0.777v0.173h1.646v-0.105c0-0.809-0.175-1.404-0.526-1.785
	c-0.351-0.381-0.899-0.572-1.643-0.572c-0.828,0-1.412,0.238-1.753,0.714c-0.34,0.476-0.51,1.313-0.51,2.511
	c0,1.199,0.17,2.035,0.509,2.508s0.925,0.711,1.758,0.711c0.738,0,1.289-0.192,1.65-0.577c0.362-0.385,0.543-0.967,0.543-1.747
	c0-0.025-0.002-0.063-0.007-0.113C172.171,32.538,172.169,32.497,172.169,32.465z"/>
<path fill="#333D3A" d="M161.866,33.149v-2.354c0-0.604-0.049-1.02-0.146-1.249c-0.097-0.229-0.264-0.424-0.503-0.586
	c-0.186-0.123-0.417-0.217-0.692-0.282c-0.276-0.064-0.589-0.098-0.941-0.098c-0.78,0-1.361,0.168-1.745,0.504
	c-0.382,0.335-0.574,0.848-0.574,1.537h1.716V30.58c0-0.259,0.05-0.45,0.148-0.574c0.099-0.124,0.251-0.186,0.455-0.186
	c0.17,0,0.3,0.046,0.391,0.14c0.09,0.093,0.135,0.229,0.135,0.407c0,0.291-0.315,0.552-0.946,0.783
	c-0.22,0.081-0.394,0.146-0.523,0.194c-0.544,0.218-0.936,0.478-1.174,0.776c-0.238,0.299-0.357,0.68-0.357,1.141
	c0,0.528,0.139,0.947,0.418,1.257c0.279,0.309,0.657,0.464,1.134,0.464c0.298,0,0.575-0.058,0.83-0.173
	c0.254-0.114,0.489-0.286,0.703-0.512l0.101,0.558h1.787c-0.078-0.158-0.133-0.363-0.167-0.614S161.866,33.626,161.866,33.149z
	 M160.079,32.6c0,0.397-0.056,0.681-0.167,0.85c-0.111,0.169-0.291,0.253-0.538,0.253c-0.167,0-0.3-0.058-0.399-0.174
	c-0.099-0.116-0.148-0.271-0.148-0.464c0-0.274,0.1-0.503,0.3-0.686c0.2-0.183,0.517-0.336,0.952-0.459V32.6z"/>
<path fill="#333D3A" d="M155.161,31.005c-0.039-0.017-0.094-0.042-0.164-0.074c-0.511-0.226-0.766-0.474-0.766-0.742
	c0-0.152,0.051-0.275,0.153-0.369c0.102-0.094,0.239-0.141,0.412-0.141c0.193,0,0.334,0.065,0.42,0.196
	c0.086,0.13,0.133,0.349,0.14,0.657l1.491,0.005v-0.111c0-0.594-0.18-1.05-0.54-1.368s-0.874-0.477-1.541-0.477
	c-0.644,0-1.153,0.166-1.531,0.498c-0.377,0.332-0.566,0.777-0.566,1.334c0,0.248,0.045,0.484,0.137,0.71
	c0.091,0.226,0.223,0.424,0.395,0.593c0.242,0.25,0.67,0.519,1.284,0.805c0.119,0.057,0.207,0.099,0.263,0.126
	c0.263,0.124,0.432,0.229,0.508,0.32c0.076,0.089,0.114,0.202,0.114,0.339c0,0.158-0.055,0.288-0.166,0.388
	c-0.11,0.1-0.25,0.15-0.42,0.15c-0.213,0-0.374-0.073-0.479-0.218c-0.107-0.145-0.169-0.375-0.187-0.691l-1.52-0.005v0.153
	c0,0.614,0.186,1.092,0.558,1.433s0.893,0.511,1.563,0.511c0.705,0,1.248-0.169,1.628-0.508c0.381-0.338,0.571-0.816,0.571-1.434
	c0-0.48-0.119-0.867-0.355-1.164C156.326,31.625,155.859,31.319,155.161,31.005z"/>
</svg>
