<?xml version="1.0" encoding="utf-8"?>
<!-- Generator: Adobe Illustrator 16.0.0, SVG Export Plug-In . SVG Version: 6.00 Build 0)  -->
<!DOCTYPE svg PUBLIC "-//W3C//DTD SVG 1.1//EN" "http://www.w3.org/Graphics/SVG/1.1/DTD/svg11.dtd">
<svg version="1.1" id="Layer_1" xmlns="http://www.w3.org/2000/svg" xmlns:xlink="http://www.w3.org/1999/xlink" x="0px" y="0px"
	 width="221px" height="100px" viewBox="0 0 221 100" enable-background="new 0 0 221 100" xml:space="preserve">
<g id="g22-Clipped">
	<g id="g22">
	</g>
</g>
<g id="path106">
</g>
<g id="path106_1_">
</g>
<g>
	<g id="g46-Clipped">
		<g id="path48">
		</g>
		<defs>
			<filter id="Adobe_OpacityMaskFilter" filterUnits="userSpaceOnUse" x="32.069" y="61.532" width="0.013" height="0.028">
				<feColorMatrix  type="matrix" values="1 0 0 0 0  0 1 0 0 0  0 0 1 0 0  0 0 0 1 0"/>
			</filter>
		</defs>
		<mask maskUnits="userSpaceOnUse" x="32.069" y="61.532" width="0.013" height="0.028" id="mask-2_2_">
			<g filter="url(#Adobe_OpacityMaskFilter)">
				<path id="path-1_2_" fill="#FFFFFF" d="M32.082,61.532c-0.002,0.002-0.004,0.012-0.013,0.028
					C32.073,61.552,32.076,61.543,32.082,61.532z"/>
			</g>
		</mask>
		<g id="g46" mask="url(#mask-2_2_)">
			<path id="path66" d="M32.082,61.532c-0.002,0.002-0.004,0.012-0.013,0.028C32.073,61.552,32.076,61.543,32.082,61.532"/>
		</g>
	</g>
	<g id="g70-Clipped">
		<g id="path72">
		</g>
		<g>
			<defs>
				<polygon id="SVGID_1_" points="11.002,1 12.002,1 11.002,2 				"/>
			</defs>
			<defs>
				<polygon id="SVGID_2_" points="9.002,-1 8.002,-1 9.002,-2 				"/>
			</defs>
			<clipPath id="SVGID_3_">
				<use xlink:href="#SVGID_1_"  overflow="visible"/>
			</clipPath>
			<clipPath id="SVGID_4_" clip-path="url(#SVGID_3_)">
				<use xlink:href="#SVGID_2_"  overflow="visible"/>
			</clipPath>
			<defs>
				<filter id="Adobe_OpacityMaskFilter_1_" filterUnits="userSpaceOnUse" x="39.582" y="38.431" width="0" height="0.003">
					<feColorMatrix  type="matrix" values="1 0 0 0 0  0 1 0 0 0  0 0 1 0 0  0 0 0 1 0"/>
				</filter>
			</defs>
			<mask maskUnits="userSpaceOnUse" x="39.582" y="38.431" width="0" height="0.003" id="mask-5_2_">
				<g filter="url(#Adobe_OpacityMaskFilter_1_)">
					<path id="path-4_2_" clip-path="url(#SVGID_4_)" fill="#FFFFFF" d="M39.582,38.431v0.003
						C39.582,38.432,39.582,38.432,39.582,38.431z"/>
				</g>
			</mask>
			<g id="g70" clip-path="url(#SVGID_4_)" mask="url(#mask-5_2_)">
				<path id="path90" d="M39.582,38.431v0.003C39.582,38.432,39.582,38.432,39.582,38.431"/>
			</g>
		</g>
	</g>
	<g>
		<g>
			<polyline id="path14" points="42.347,61.677 43.483,61.677 43.483,64.385 52.63,64.385 52.63,65.693 43.483,65.693 43.483,68.4 
				42.347,68.4 42.347,61.677 			"/>
			<polyline id="path16" points="52.63,60.238 42.347,60.238 42.347,58.927 46.789,58.927 46.789,55.324 42.347,55.324 
				42.347,54.014 52.63,54.014 52.63,55.324 47.931,55.324 47.931,58.927 52.63,58.927 52.63,60.238 			"/>
			<polyline id="path18" points="52.63,52.008 42.347,52.008 42.347,46.709 43.483,46.709 43.483,50.695 46.789,50.695 
				46.789,46.992 47.931,46.992 47.931,50.695 51.489,50.695 51.489,46.623 52.63,46.623 52.63,52.008 			"/>
			<path id="path92" d="M62.522,68.813c-5.643,0-6.697-3.318-6.459-7.09h4.558c0,2.082,0.091,3.832,2.596,3.832
				c1.538,0,2.294-0.996,2.294-2.477c0-3.922-9.174-4.165-9.174-10.652c0-3.409,1.629-6.125,7.184-6.125
				c4.435,0,6.639,1.992,6.336,6.549h-4.438c0-1.627-0.27-3.289-2.111-3.289c-1.478,0-2.354,0.814-2.354,2.323
				c0,4.134,9.174,3.772,9.174,10.622C70.127,68.148,65.992,68.813,62.522,68.813"/>
			<polyline id="path94" points="86.242,46.664 86.242,50.285 81.174,50.285 81.174,68.45 76.617,68.45 76.617,50.285 
				71.548,50.285 71.548,46.664 86.242,46.664 			"/>
			<path id="path96" d="M93.522,50.857h-0.061l-2.083,9.414h4.345L93.522,50.857z M84.742,68.45l6.034-21.787h6.006l5.914,21.787
				h-4.799l-1.207-4.828h-6.215l-1.238,4.828H84.742z"/>
			<path id="path98" d="M109.104,56.077h2.021c1.813,0,2.322-1.81,2.322-3.196c0-2.082-0.873-2.867-2.322-2.867h-2.021V56.077z
				 M109.104,68.45h-4.557V46.664h8.419c3.109,0,5.101,1.992,5.101,5.705c0,2.773-1.084,4.855-4.045,5.339v0.062
				c0.996,0.121,3.955,0.361,3.955,4.285c0,1.387,0.09,5.491,0.514,6.396h-4.469c-0.602-1.327-0.48-2.809-0.48-4.227
				c0-2.596,0.242-4.798-3.257-4.798h-1.179L109.104,68.45L109.104,68.45z"/>
			<path id="path100" d="M126.704,68.813c-5.642,0-6.698-3.318-6.456-7.09h4.559c0,2.082,0.09,3.832,2.592,3.832
				c1.539,0,2.295-0.996,2.295-2.477c0-3.922-9.173-4.165-9.173-10.652c0-3.409,1.628-6.125,7.18-6.125
				c4.437,0,6.638,1.992,6.338,6.549h-4.435c0-1.627-0.271-3.289-2.115-3.289c-1.475,0-2.35,0.814-2.35,2.323
				c0,4.134,9.172,3.772,9.172,10.622C134.311,68.148,130.176,68.813,126.704,68.813"/>
			<path id="path126" d="M151.564,54.286c0.029-1.901-0.281-3.575-2.551-3.575c-2.67,0-2.67,3.604-2.67,7.575
				c0,6.411,0.624,7.548,3.066,7.548c0.708,0,1.476-0.17,2.127-0.396v-4.541h-2.326v-3.148h6.611v10.384
				c-1.166,0.226-4.086,0.681-5.788,0.681c-7.207,0-8.029-2.978-8.029-10.75c0-5.164,0.256-10.414,7.263-10.414
				c4.199,0,6.809,2.356,6.555,6.639h-4.258"/>
			<path id="path128" d="M162.898,56.839h1.898c1.702,0,2.186-1.7,2.186-3.004c0-1.96-0.822-2.696-2.186-2.696h-1.898V56.839z
				 M162.898,68.473h-4.287V47.988h7.918c2.923,0,4.793,1.871,4.793,5.364c0,2.606-1.021,4.564-3.799,5.021v0.058
				c0.936,0.113,3.715,0.34,3.715,4.026c0,1.308,0.084,5.165,0.481,6.019h-4.196c-0.57-1.25-0.455-2.639-0.455-3.973
				c0-2.439,0.228-4.511-3.064-4.511h-1.105V68.473L162.898,68.473z"/>
			<path id="path130" d="M183.268,58.23c0-5.25-0.312-7.521-2.725-7.521c-2.412,0-2.723,2.271-2.723,7.521
				c0,5.248,0.311,7.518,2.723,7.518C182.956,65.748,183.268,63.479,183.268,58.23z M173.48,58.23c0-5.42,0-10.583,7.063-10.583
				s7.063,5.164,7.063,10.583c0,5.361,0,10.58-7.063,10.58S173.48,63.593,173.48,58.23z"/>
			<path id="path132" d="M204.047,47.988v14.526c0,3.064-1.73,6.299-6.951,6.299c-4.708,0-6.979-2.44-6.979-6.299V47.988h4.285
				V62.23c0,2.524,1.076,3.518,2.637,3.518c1.875,0,2.727-1.248,2.727-3.518V47.988H204.047"/>
			<path id="path134" d="M211.125,56.982h2.385c1.274,0,2.155-1.393,2.155-2.754c0-1.672-0.456-3.094-2.384-3.094h-2.156V56.982z
				 M206.841,47.988h7.716c3.916,0,5.447,2.383,5.447,6.128c0,2.325-0.682,6.016-5.703,6.016h-3.177v8.341h-4.284L206.841,47.988
				L206.841,47.988z"/>
		</g>
		<path d="M64.953,38.202C64.135,35.68,56.61,12.489,54.411,5.677L52.576,0L40.153,38.202H0l4.804,3.5
			c5.787,4.212,25.518,18.539,27.684,20.11c-0.911,2.806-8.375,25.762-10.577,32.528L20.067,100l4.816-3.494
			c5.794-4.201,25.508-18.537,27.68-20.113v0.004c0.004-0.002,0.008-0.004,0.01-0.01c0.005,0.006,0.008,0.008,0.011,0.01v-0.004
			c2.173,1.577,21.887,15.912,27.681,20.113L85.082,100l-1.843-5.658c-1.358-4.176-4.719-14.507-7.309-22.472
			c-1.123,0-2.854,0-4.066,0c1.822,5.608,4.133,12.714,5.854,18.006C69.051,83.58,54.664,73.117,54.66,73.115
			c-0.621-0.449-1.351-0.674-2.078-0.674c-0.002,0-0.004,0-0.009,0c-0.002,0-0.006,0-0.008,0c-0.729,0-1.455,0.225-2.078,0.674
			c-0.002,0.003-14.389,10.465-23.055,16.762c3.311-10.186,8.807-27.094,8.807-27.094c0.113-0.311,0.18-0.696,0.18-1.094
			c0-1.127-0.547-2.198-1.464-2.864c0,0-14.397-10.457-23.063-16.753h28.496c1.549,0,2.904-0.986,3.375-2.449l8.805-27.083
			c3.302,10.19,8.783,27.087,8.783,27.087c0.481,1.465,1.838,2.445,3.375,2.445h35.075l0.521-0.37l4.808-3.5H64.953z"/>
	</g>
</g>
</svg>
