<?xml version="1.0" encoding="utf-8"?>
<!-- Generator: Adobe Illustrator 16.0.0, SVG Export Plug-In . SVG Version: 6.00 Build 0)  -->
<!DOCTYPE svg PUBLIC "-//W3C//DTD SVG 1.1//EN" "http://www.w3.org/Graphics/SVG/1.1/DTD/svg11.dtd">
<svg version="1.1" id="bevel" xmlns="http://www.w3.org/2000/svg" xmlns:xlink="http://www.w3.org/1999/xlink" x="0px" y="0px"
	 width="854px" height="558px" viewBox="0 0 854 558" enable-background="new 0 0 854 558" xml:space="preserve">
<path opacity="0.1" fill="#FFFFFF" d="M343.351,206.845c0.072,1.909,0.121,4.762,0.121,8.562c0,33.55-7.364,58.441-22.092,74.674
	c-14.728,16.239-37.298,24.356-67.69,24.356c-17.888,0-33.205-2.975-45.964-8.924c-12.764-5.947-23.076-14.936-30.941-26.96
	c-5.478-8.562-9.42-20.462-11.799-35.694c-2.388-15.238-3.576-39.393-3.576-72.481c0-33.126,1.188-57.319,3.576-72.574
	c2.379-15.249,6.307-27.172,11.794-35.757c7.739-11.912,17.926-20.876,30.561-26.898c12.628-6.013,27.708-9.028,45.216-9.028
	c30.146,0,52.754,8.37,67.829,25.112c15.076,16.74,22.609,41.782,22.609,75.142v2.681l-62.44-0.179h-7.412l7.21-7.206
	c-0.651-14.919-2.726-25.68-6.234-32.242c-4.059-7.572-10.863-11.36-20.398-11.36c-10.375,0-17.478,4.623-21.291,13.864
	c-3.823,9.244-5.723,33.658-5.723,73.258v5.188c0,42.546,1.895,68.62,5.688,78.206c3.803,9.591,10.868,14.388,21.204,14.388
	c9.613,0,16.354-3.488,20.21-10.458c3.86-6.968,5.791-19.924,5.791-38.865v-12.153h55.982l7.412-7.412v7.412
	C343.153,203.159,343.27,204.942,343.351,206.845z M130.995,9.412c-16.457,0-29.008,0.623-37.65,1.873
	c-8.643,1.252-15.828,3.315-21.546,6.172c-7.152,3.579-12.195,8.648-15.114,15.199c-2.92,6.55-4.382,17.761-4.382,33.617v45.863
	c0,15.053-2.77,25.667-8.31,31.834c-5.54,6.165-14.978,9.242-28.332,9.242c-0.593,0-1.577-0.063-2.943-0.182
	c-1.371-0.118-2.471-0.179-3.306-0.179v43.584L2,203.847c0,0,13.068-0.356,13.661-0.356c13.354,0,22.792,3.098,28.332,9.279
	c5.54,6.191,8.31,16.837,8.31,31.951v46.042c0,15.748,1.462,26.858,4.382,33.358c2.919,6.494,7.961,11.533,15.114,15.117
	c5.602,2.86,12.725,4.924,21.368,6.177c8.643,1.251,21.252,1.876,37.829,1.876h14.25v-50.995v-7.412l-7.412,7.412l0.497,0.331
	c-0.425,0.016-0.806,0.025-1.1,0.025c-10.221,0-17.073-1.786-20.572-5.353c-3.499-3.573-5.255-11.063-5.255-22.488v-43.019
	c0-15.787-2.775-26.932-8.329-33.45c-5.559-6.518-15.731-11.152-30.537-13.907c14.684-2.616,24.832-7.243,30.445-13.874
	c5.612-6.623,8.421-17.933,8.421-33.934v-42.49c0-11.615,1.776-19.194,5.342-22.753c3.557-3.561,10.505-5.34,20.842-5.34
	c0.705,0,1.925,0.055,3.647,0.179c1.718,0.118,3.055,0.178,4.011,0.178V9.412V2l-7.412,7.412H130.995z M515.568,180.862
	c-6.312-9.766-20.74-21.788-43.257-36.072c-2.974-2.026-5.303-3.516-6.968-4.463c-2.051-1.315-4.99-3.21-8.832-5.715
	c-21.16-13.081-31.732-25.444-31.732-37.106c0-7.132,1.853-12.877,5.57-17.215c3.715-4.338,8.623-6.519,14.736-6.519
	c7.191,0,12.666,3.098,16.445,9.298c3.349,5.497,5.207,13.31,5.588,23.405l-7.336,7.333h7.412h57.788
	c0-1.074,0.059-2.561,0.179-4.471c0.121-1.902,0.178-3.399,0.178-4.483c0-25.523-7.011-45.033-21.034-58.511
	c-14.028-13.475-34.354-20.224-60.968-20.224c-24.485,0-43.701,6.842-57.666,20.532c-13.965,13.686-20.949,32.54-20.949,56.576
	c0,9.876,1.192,18.974,3.572,27.303c2.388,8.33,5.848,15.834,10.38,22.489c6.316,8.803,22.415,21.896,48.291,39.261l3.034,1.963
	c1.689,1.074,4.082,2.693,7.215,4.836c19.346,12.304,29.026,25.138,29.026,38.514c0,8.122-1.978,14.54-5.94,19.258
	c-3.962,4.715-9.366,7.075-16.211,7.075c-8.535,0-14.6-3.116-18.2-9.34c-3.605-6.228-5.4-16.944-5.4-32.146v-8.082v-7.412
	l-7.412,7.412h-51.47c-0.353,4.305-0.555,7.445-0.613,9.405c-0.059,1.968-0.083,3.854-0.083,5.641
	c0,28.168,7.007,49.381,21.031,63.639c14.014,14.271,34.991,21.395,62.916,21.395c26.604,0,47.07-7.438,61.388-22.326
	c14.313-14.874,21.474-36.064,21.474-63.572c0-9.399-1.036-18.119-3.121-26.156C522.513,194.346,519.502,187.175,515.568,180.862z
	 M687.91,180.862c-6.31-9.766-20.738-21.788-43.26-36.072c-2.978-2.026-5.304-3.516-6.968-4.463c-2.048-1.315-4.99-3.21-8.833-5.715
	c-21.155-13.081-31.731-25.444-31.731-37.106c0-7.132,1.856-12.877,5.567-17.215s8.629-6.519,14.738-6.519
	c7.189,0,12.667,3.098,16.445,9.298c3.35,5.497,5.211,13.31,5.592,23.405l-7.334,7.333h7.412h57.782
	c0-1.074,0.063-2.561,0.173-4.471c0.127-1.902,0.186-3.399,0.186-4.483c0-25.523-7.013-45.033-21.029-58.511
	c-14.034-13.475-34.359-20.224-60.975-20.224c-24.485,0-43.701,6.842-57.661,20.532c-13.969,13.686-20.948,32.54-20.948,56.576
	c0,9.876,1.188,18.974,3.571,27.303c2.388,8.33,5.844,15.834,10.37,22.489c6.321,8.803,22.42,21.896,48.303,39.261l3.033,1.963
	c1.684,1.074,4.082,2.693,7.21,4.836c19.351,12.304,29.032,25.138,29.032,38.514c0,8.122-1.992,14.54-5.946,19.258
	c-3.964,4.715-9.366,7.075-16.21,7.075c-8.532,0-14.6-3.116-18.203-9.34c-3.599-6.228-5.399-16.944-5.399-32.146v-8.082v-7.412
	l-7.412,7.412h-51.468c-0.35,4.305-0.551,7.445-0.614,9.405c-0.055,1.968-0.078,3.854-0.078,5.641
	c0,28.168,7.007,49.381,21.03,63.639c14.008,14.271,34.986,21.395,62.906,21.395c26.613,0,47.079-7.438,61.396-22.326
	c14.313-14.874,21.475-36.064,21.475-63.572c0-9.399-1.042-18.119-3.121-26.156C694.847,194.346,691.84,187.175,687.91,180.862z
	 M842.588,152.852l0.511,0.341c-12.989-0.102-22.231-3.16-27.679-9.223c-5.54-6.167-8.311-16.781-8.311-31.834V66.272
	c0-15.5-1.495-26.584-4.482-33.258c-2.973-6.677-8.102-11.862-15.369-15.558c-5.608-2.856-12.701-4.92-21.292-6.172
	c-8.583-1.25-21.097-1.873-37.548-1.873h-14.25V52.99l-7.412,7.412h7.412c1.064,0,2.428-0.061,4.096-0.178
	c1.66-0.124,2.849-0.179,3.563-0.179c10.331,0,17.275,1.779,20.837,5.34c3.563,3.559,5.347,11.138,5.347,22.753v42.842
	c0,15.886,2.799,27.11,8.416,33.674c5.617,6.573,15.766,11.166,30.449,13.782c-14.805,2.75-24.985,7.373-30.541,13.886
	c-5.553,6.506-8.324,17.635-8.324,33.395v42.843c0,11.615-1.784,19.197-5.347,22.763c-3.562,3.549-10.506,5.331-20.837,5.331
	c-0.714,0-1.902-0.06-3.563-0.177c-1.668-0.119-3.031-0.18-4.096-0.18v43.583l-7.412,7.412h7.412h16.746
	c15.494,0,27.417-0.602,35.761-1.801c8.35-1.206,15.216-3.184,20.583-5.935c7.268-3.728,12.396-8.944,15.369-15.656
	c2.987-6.725,4.482-17.882,4.482-33.467v-45.87c0-15.059,2.771-25.662,8.311-31.827c5.539-6.167,14.983-9.245,28.331-9.245
	c0.595,0,1.578,0.055,2.948,0.178c1.366,0.115,2.471,0.179,3.301,0.179v-50.995v-7.412L842.588,152.852z M149.597,430H110.1v18.336
	l-7.412,7.412h7.412h6.259v0.002l0.005-0.002l3.541-3.706l3.707,3.706c0.063,0.957,0.111,1.948,0.14,2.972
	c0.034,1.023,0.048,2.49,0.048,4.413c0,8.436-1.042,14.54-3.122,18.311c-2.08,3.774-5.429,5.656-10.033,5.656
	c-4.604,0-7.759-2.139-9.463-6.42c-1.703-4.283-2.553-14.634-2.553-31.058v-24.687c0-16.295,0.902-26.663,2.712-31.1
	c1.809-4.439,5.134-6.66,9.97-6.66c4.067,0,7.002,1.806,8.815,5.409c1.391,2.765,2.24,6.964,2.563,12.565l-7.257,7.261h7.412h32.693
	c0-0.696,0.034-1.631,0.097-2.806c0.063-1.172,0.096-2.043,0.096-2.619c0-15.549-3.662-27.234-10.987-35.071
	c-7.335-7.839-18.221-11.758-32.684-11.758c-9.242,0-17.223,1.623-23.94,4.871c-6.726,3.246-12.122,8.091-16.199,14.517
	c-2.804,4.462-4.874,11.146-6.211,20.059c-1.336,8.916-2.008,20.791-2.008,35.621c0,20.827,0.951,35.598,2.857,44.321
	c1.906,8.722,5.182,15.664,9.83,20.823c3.745,4.199,8.146,7.416,13.203,9.647c5.048,2.226,10.568,3.342,16.542,3.342
	c5.275,0,9.994-0.975,14.159-2.909c3.122-1.453,6.045-3.475,8.762-6.062l1.072,6.418h3.098h5.231h18.555V430v-7.412L149.597,430z
	 M358.986,363.47h-27.004l-14.308,46.591l-14.197-46.591l-2.225-7.412l-1.481,3.706l-3.706,3.706h-29.639l33.904,84.86v55.063
	l-7.412,7.412h7.412h35.179V448.33l33.905-84.86l2.963-7.412L358.986,363.47z M226.749,363.47v92.437
	c0,13.735-0.854,22.322-2.557,25.771c-1.708,3.45-4.806,5.169-9.294,5.169c-4.43,0-7.509-1.66-9.251-4.979
	c-1.732-3.324-2.601-11.972-2.601-25.962V363.47v-7.412l-7.412,7.412h-27.515v79.41c0,16.82,0.526,28.772,1.578,35.844
	c1.046,7.073,2.88,12.87,5.49,17.396c3.635,6.373,8.537,11.009,14.719,13.908c6.177,2.901,14.173,4.347,23.989,4.347
	c10.64,0,19.272-1.543,25.897-4.631c6.626-3.089,11.694-7.946,15.202-14.571c2.099-3.88,3.61-8.449,4.536-13.706
	c0.922-5.255,1.384-13.201,1.384-23.834V363.47v-7.412l-7.412,7.412H226.749z"/>
<path d="M65.125,171.023c4.965,0.923,9.362,2.079,13.285,3.425c0.239,0.083,0.497,0.157,0.732,0.242
	c7.413,2.637,12.938,6.042,16.519,10.239c5.554,6.521,8.329,17.664,8.329,33.452v43.018c0,11.425,1.757,18.915,5.255,22.488
	c3.499,3.566,10.351,5.353,20.572,5.353c0.825,0,15.427-0.356,15.427-0.356l-7.412,7.412v43.583h-14.25
	c-16.576,0-29.186-0.625-37.83-1.876c-8.642-1.253-15.765-3.316-21.367-6.178c-7.152-3.583-12.195-8.622-15.114-15.116
	c-2.92-6.5-4.382-17.611-4.382-33.357v-46.044c0-15.114-2.77-25.759-8.31-31.95c-5.448-6.076-14.679-9.157-27.675-9.261l0.506,0.339
	L2,203.847v-7.411v-50.996c0.835,0,1.935,0.062,3.306,0.179c1.365,0.118,2.35,0.181,2.943,0.181c13.353,0,22.792-3.076,28.332-9.241
	c5.54-6.167,8.31-16.781,8.31-31.834V58.86c0-15.856,1.462-27.067,4.382-33.617c2.919-6.551,7.961-11.62,15.114-15.199
	c5.718-2.856,12.903-4.92,21.546-6.172C94.575,2.623,107.127,2,123.583,2h14.25h7.412l-7.412,7.412V52.99
	c-0.956,0-2.292-0.061-4.01-0.178c-1.722-0.124-2.943-0.18-3.647-0.18c-10.337,0-17.286,1.779-20.842,5.34
	c-3.566,3.559-5.342,11.138-5.342,22.753v42.49c0,16.001-2.809,27.311-8.42,33.934C89.957,163.78,79.809,168.407,65.125,171.023z
	 M508.156,173.45c-6.312-9.766-20.74-21.788-43.257-36.071c-2.973-2.027-5.303-3.517-6.968-4.464
	c-2.051-1.315-4.99-3.21-8.832-5.715c-21.159-13.081-31.732-25.444-31.732-37.105c0-7.132,1.853-12.877,5.569-17.216
	c3.715-4.338,8.624-6.519,14.737-6.519c7.189,0,12.667,3.098,16.445,9.298c3.773,6.191,5.664,15.31,5.664,27.338v3.399v7.412
	l7.412-7.412h50.376c0-1.074,0.059-2.56,0.179-4.471c0.121-1.901,0.178-3.399,0.178-4.482c0-25.523-7.011-45.033-21.034-58.511
	c-14.028-13.475-34.354-20.224-60.968-20.224c-24.485,0-43.701,6.842-57.666,20.533c-13.965,13.686-20.949,32.54-20.949,56.576
	c0,9.876,1.192,18.974,3.571,27.304c2.388,8.329,5.849,15.832,10.38,22.487c6.316,8.805,22.415,21.896,48.291,39.262l3.034,1.963
	c1.689,1.074,4.083,2.693,7.215,4.836c19.346,12.303,29.026,25.137,29.026,38.514c0,8.122-1.979,14.54-5.94,19.258
	c-3.961,4.715-9.365,7.075-16.21,7.075c-8.536,0-14.602-3.116-18.202-9.34c-3.604-6.228-5.399-16.944-5.399-32.146v-0.675
	l7.412-7.41h-7.412v0.003h-58.882c-0.353,4.304-0.555,7.445-0.613,9.405c-0.059,1.968-0.083,3.853-0.083,5.64
	c0,28.168,7.007,49.383,21.031,63.64c14.014,14.271,34.991,21.395,62.916,21.395c26.604,0,47.07-7.438,61.388-22.326
	c14.313-14.875,21.474-36.064,21.474-63.573c0-9.397-1.036-18.118-3.121-26.155C515.101,186.934,512.09,179.762,508.156,173.45z
	 M335.583,194.082h-63.395v12.153c0,18.94-1.931,31.896-5.791,38.865c-3.856,6.97-10.597,10.457-20.21,10.457
	c-10.336,0-17.401-4.797-21.204-14.387c-3.793-9.586-5.689-35.658-5.689-78.206v-5.188c0-39.599,1.901-64.014,5.723-73.258
	c3.812-9.241,10.916-13.864,21.291-13.864c9.535,0,16.339,3.788,20.397,11.36c4.054,7.578,6.202,20.73,6.438,39.447v7.411
	l7.388-7.387l55.052,0.155v-2.68c0-33.36-7.533-58.403-22.609-75.143c-15.075-16.743-37.684-25.113-67.829-25.113
	c-17.507,0-32.587,3.016-45.216,9.029c-12.633,6.022-22.82,14.986-30.561,26.898c-5.487,8.584-9.416,20.508-11.794,35.757
	c-2.388,15.254-3.576,39.448-3.576,72.574c0,33.089,1.188,57.243,3.576,72.48c2.379,15.234,6.322,27.133,11.799,35.695
	c7.865,12.024,18.178,21.013,30.941,26.96c12.759,5.949,28.075,8.924,45.964,8.924c30.392,0,52.962-8.117,67.69-24.356
	c14.728-16.232,22.091-41.123,22.091-74.673c0-2.828-0.024-5.128-0.067-6.908l7.002-7.005H335.583z M680.499,173.45
	c-6.31-9.766-20.741-21.788-43.261-36.071c-2.978-2.027-5.303-3.517-6.967-4.464c-2.049-1.315-4.991-3.21-8.834-5.715
	c-21.155-13.081-31.73-25.444-31.73-37.105c0-7.132,1.855-12.877,5.567-17.216c3.71-4.338,8.628-6.519,14.737-6.519
	c7.189,0,12.667,3.098,16.445,9.298c3.774,6.191,5.67,15.31,5.67,27.338v3.399v7.412l7.412-7.412h50.37
	c0-1.074,0.062-2.56,0.173-4.471c0.127-1.901,0.186-3.399,0.186-4.482c0-25.523-7.013-45.033-21.029-58.511
	c-14.035-13.475-34.359-20.224-60.975-20.224c-24.485,0-43.701,6.842-57.661,20.533c-13.969,13.686-20.948,32.54-20.948,56.576
	c0,9.876,1.188,18.974,3.571,27.304c2.388,8.329,5.844,15.832,10.37,22.487c6.321,8.805,22.42,21.896,48.303,39.262l3.033,1.963
	c1.684,1.074,4.082,2.693,7.211,4.836c19.35,12.303,29.029,25.137,29.029,38.514c0,8.122-1.99,14.54-5.944,19.258
	c-3.964,4.715-9.368,7.075-16.21,7.075c-8.531,0-14.599-3.116-18.203-9.34c-3.598-6.228-5.399-16.944-5.399-32.146v-0.668h0.004
	l7.412-7.412h-7.416v-0.002h-58.877c-0.353,4.304-0.556,7.445-0.616,9.405c-0.056,1.968-0.079,3.853-0.079,5.64
	c0,28.168,7.007,49.383,21.03,63.64c14.008,14.271,34.986,21.395,62.906,21.395c26.613,0,47.078-7.438,61.396-22.326
	c14.313-14.875,21.475-36.064,21.475-63.573c0-9.397-1.043-18.118-3.121-26.155C687.435,186.934,684.428,179.762,680.499,173.45z
	 M842.588,145.439c-0.83,0-1.935,0.062-3.301,0.179c-1.37,0.118-2.354,0.181-2.948,0.181c-13.348,0-22.792-3.076-28.332-9.241
	c-5.539-6.167-8.312-16.781-8.312-31.834V58.86c0-15.5-1.493-26.583-4.48-33.257c-2.973-6.677-8.102-11.862-15.371-15.558
	c-5.606-2.856-12.699-4.92-21.29-6.172C749.971,2.623,737.457,2,721.006,2h-14.25v50.99v7.412l7.412-7.412l-0.513-0.34
	c0.291-0.01,0.552-0.018,0.757-0.018c10.334,0,17.277,1.779,20.839,5.34c3.562,3.559,5.347,11.138,5.347,22.753v42.843
	c0,15.885,2.797,27.109,8.416,33.673c5.617,6.572,15.766,11.166,30.449,13.782c-2.242,0.415-4.333,0.894-6.359,1.399
	c-0.004-0.002-0.012-0.002-0.018-0.005c-0.123,0.031-0.238,0.065-0.36,0.094c-1.183,0.3-2.368,0.594-3.479,0.919
	c-9.38,2.769-16.155,6.59-20.325,11.479c-5.553,6.506-8.324,17.634-8.324,33.395v42.843c0,11.615-1.785,19.197-5.347,22.763
	c-3.562,3.549-10.505,5.331-20.839,5.331c-0.712,0-1.9-0.059-3.559-0.177c-1.67-0.119-3.032-0.18-4.098-0.18v50.995v7.412
	l7.412-7.412h9.334c15.494,0,27.417-0.603,35.761-1.801c8.35-1.206,15.216-3.184,20.581-5.935
	c7.27-3.728,12.398-8.944,15.371-15.657c2.987-6.724,4.48-17.881,4.48-33.466v-45.87c0-15.058,2.772-25.662,8.312-31.827
	c5.54-6.167,14.984-9.245,28.332-9.245c0.595,0,1.578,0.055,2.948,0.178c1.366,0.115,2.471,0.18,3.301,0.18v-43.584l7.412-7.412
	H842.588z M769.247,173.431L769.247,173.431c1.11-0.325,2.296-0.619,3.479-0.919C771.537,172.809,770.355,173.105,769.247,173.431z
	 M127.979,497.926l1.539,9.174h23.786v-80.806l3.706-3.706h-7.412h-46.91v25.748v7.414l3.711-3.708h9.94h3.565l-3.518,3.679
	c0,0-1.041,14.54-3.121,18.311c-2.08,3.774-5.429,5.656-10.033,5.656c-1.935,0-3.595-0.401-5.014-1.153
	c-0.274-0.485-0.521-1.003-0.743-1.561c-1.703-4.283-2.553-14.634-2.553-31.058v-24.688c0-16.294,0.902-26.662,2.712-31.099
	c1.809-4.439,5.134-6.66,9.97-6.66c1.814,0,3.393,0.382,4.763,1.103c0.115,0.201,0.236,0.386,0.347,0.601
	c1.81,3.603,2.717,9.611,2.717,18.023v1.803v7.412l3.706-3.706h32.693c0-0.696,0.034-1.631,0.097-2.805
	c0.063-1.173,0.096-2.045,0.096-2.62c0-15.548-3.662-27.234-10.988-35.071c-0.921-0.984-1.901-1.906-2.929-2.766
	c-0.265-0.308-0.502-0.646-0.777-0.939c-7.335-7.842-18.222-11.759-32.684-11.759c-9.242,0-17.223,1.623-23.94,4.871
	c-6.727,3.246-12.122,8.091-16.199,14.517c-2.804,4.462-4.874,11.146-6.211,20.059c-1.336,8.916-2.008,20.792-2.008,35.621
	c0,20.827,0.951,35.6,2.857,44.321c1.906,8.722,5.182,15.664,9.829,20.823c1.082,1.212,2.23,2.319,3.422,3.369
	c0.097,0.109,0.183,0.23,0.285,0.337c3.745,4.199,8.146,7.416,13.203,9.647c5.047,2.226,10.568,3.342,16.542,3.342
	c5.274,0,9.994-0.975,14.159-2.909c3.125-1.453,6.051-3.48,8.767-6.069L127.979,497.926z M372.377,356.058h-10.375h-3.016H324.57
	l-13.015,42.382l-11.784-38.676l1.481-3.706h-5.187h-35.151h-1.9h-5.512h-34.166v92.437c0,13.735-0.854,22.322-2.557,25.771
	c-1.708,3.451-4.806,5.17-9.295,5.17c-2.151,0-3.975-0.397-5.49-1.181c-0.015-0.031-0.039-0.057-0.054-0.092
	c-1.732-3.324-2.601-11.972-2.601-25.962v-92.437l3.706-3.706h-7.412h-34.928v79.41c0,16.821,0.527,28.772,1.579,35.845
	c1.046,7.072,2.88,12.869,5.491,17.396c2.124,3.727,4.696,6.84,7.692,9.379c3.002,3.524,6.568,6.282,10.732,8.234
	c6.177,2.901,14.173,4.346,23.988,4.346c10.641,0,19.274-1.542,25.899-4.63c6.626-3.089,11.693-7.946,15.202-14.571
	c2.099-3.88,3.609-8.449,4.536-13.706c0.922-5.255,1.384-13.201,1.384-23.833v-94.164l2.345-2.348l33.365,83.502v62.476v7.412
	l3.706-3.706h35.179v-62.476l33.905-84.86h-0.029L372.377,356.058z"/>
<g>
	<path d="M574.805,516.408c-0.502,0.36-0.991,0.805-1.463,1.292l-2.207-2.206h-9.375v36.461l3.706,3.706v-3.706h6.462v-17.494
		c0-3.379,0.313-5.646,0.953-6.813c0.645-1.157,1.782-1.737,3.419-1.737c0.419,0,0.887,0.035,1.399,0.104
		c0.512,0.068,1.052,0.176,1.621,0.314v-5.479l3.706-2.41l-3.706-3.706C577.641,514.905,576.135,515.463,574.805,516.408z"/>
	<polygon points="554.998,356.058 554.998,503.394 558.705,507.1 558.705,503.394 589.418,503.394 589.418,359.764 593.125,359.764 
		589.418,356.058 	"/>
	<path d="M559.328,541.758v-14.053c0-3.61-0.29-6.095-0.869-7.459c-0.576-1.363-1.578-2.527-3.008-3.497
		c-1.109-0.736-2.49-1.294-4.135-1.682c-1.65-0.386-3.518-0.585-5.616-0.585c-4.661,0-8.131,1.004-10.419,3.009
		c-2.287,2.003-3.432,5.063-3.432,9.176l3.705,3.706l2.471-3.706h4.074v-0.251c0-1.546,0.294-2.688,0.887-3.426
		c0.59-0.74,1.498-1.115,2.718-1.115c1.019,0,1.798,0.281,2.331,0.836c0.541,0.554,0.811,1.362,0.811,2.434
		c0,1.734-1.887,3.298-5.655,4.677c-1.312,0.483-2.349,0.869-3.122,1.159c-3.248,1.304-5.584,2.852-7.008,4.636
		c-1.423,1.789-2.131,4.06-2.131,6.814c0,3.154,0.83,5.658,2.499,7.51c1.663,1.845,3.918,2.771,6.771,2.771
		c1.781,0,3.43-0.345,4.955-1.029c1.521-0.686,2.919-1.708,4.193-3.061l0.399,2.195l0.206,1.139l3.705,3.706v-3.706h6.962
		c-0.462-0.945-0.795-2.165-0.995-3.669C559.424,546.791,559.328,544.609,559.328,541.758z M548.654,538.48
		c0,2.374-0.328,4.065-1,5.074c-0.66,1.006-1.732,1.51-3.203,1.51c-1,0-1.797-0.347-2.389-1.036
		c-0.595-0.695-0.885-1.619-0.885-2.772c0-1.639,0.6-3.007,1.791-4.098c1.193-1.094,3.088-2.006,5.686-2.74V538.48z"/>
	<path d="M651.328,541.758v-14.053c0-3.61-0.295-6.095-0.869-7.459c-0.574-1.363-1.576-2.527-3.005-3.497
		c-1.114-0.736-2.49-1.294-4.141-1.682c-1.646-0.386-3.513-0.585-5.613-0.585c-4.661,0-8.132,1.004-10.417,3.009
		c-2.289,2.003-3.438,5.063-3.438,9.176l3.706,3.706l1.425-3.706h5.123v-0.251c0-1.546,0.296-2.688,0.889-3.426
		c0.584-0.74,1.496-1.115,2.718-1.115c1.013,0,1.794,0.281,2.33,0.836c0.54,0.554,0.807,1.362,0.807,2.434
		c0,1.734-1.882,3.298-5.65,4.677c-1.313,0.483-2.351,0.869-3.124,1.159c-3.246,1.304-5.582,2.852-7.007,4.636
		c-0.968,1.222-1.586,2.689-1.896,4.363l-2.309-2.308h-9.977c0,0.211,0.008,0.505,0.031,0.883c0.02,0.38,0.029,0.651,0.029,0.818
		c0,2.122-0.244,3.671-0.737,4.647c-0.493,0.979-1.278,1.465-2.35,1.465c-1.235,0-2.085-0.689-2.533-2.071
		c-0.454-1.379-0.679-4.598-0.679-9.652c0-5.268,0.225-8.525,0.673-9.769c0.444-1.239,1.304-1.862,2.572-1.862
		c1.101,0,1.888,0.462,2.355,1.377c0.468,0.924,0.698,2.47,0.698,4.646v1.033l3.707,3.706v-3.706h6.125v-0.628
		c0-4.828-1.049-8.378-3.144-10.658c-2.093-2.273-5.366-3.418-9.805-3.418c-4.945,0-8.436,1.425-10.472,4.264
		c-2.032,2.841-3.045,7.839-3.045,14.994c0,7.157,1.013,12.15,3.035,14.979c2.025,2.827,5.526,4.245,10.501,4.245
		c4.405,0,7.692-1.147,9.854-3.444c1.779-1.889,2.745-4.655,3.058-8.142h0.102h1.162h0.977c-0.023,0.351-0.072,0.687-0.072,1.053
		c0,3.154,0.836,5.658,2.506,7.51c1.664,1.845,3.919,2.771,6.77,2.771c1.781,0,3.432-0.345,4.957-1.029
		c1.52-0.686,2.913-1.708,4.193-3.061l0.602,3.334l3.707,3.706v-3.706h6.965c-0.465-0.945-0.797-2.165-0.995-3.669
		C651.426,546.791,651.328,544.609,651.328,541.758z M640.654,538.48c0,2.374-0.334,4.065-1,5.074
		c-0.66,1.006-1.732,1.51-3.203,1.51c-1,0-1.795-0.347-2.389-1.036c-0.595-0.695-0.883-1.619-0.883-2.772
		c0-1.639,0.594-3.007,1.783-4.098c1.197-1.094,3.096-2.006,5.691-2.74V538.48z"/>
	<path d="M422.66,449.61v-88.062h3.706l-3.706-3.706h-33.711l-46.336,89.207v27.796l3.706,3.706v-3.706h44.729v28.548l3.706,3.706
		v-3.706h27.906v-28.548h12.748v-21.529h3.707l-3.707-3.706H422.66z M394.788,449.61h-26.714l26.714-58.922V449.61z"/>
	<path d="M519.284,528.954c-0.237-0.101-0.56-0.251-0.984-0.444c-3.05-1.35-4.575-2.827-4.575-4.431
		c0-0.908,0.303-1.645,0.918-2.204c0.607-0.557,1.428-0.84,2.461-0.84c1.157,0,1.993,0.395,2.51,1.174
		c0.512,0.777,0.791,2.087,0.834,3.922l3.706,3.706v-3.692l5.196,0.016v-0.662c0-3.545-1.069-6.267-3.219-8.167
		c-2.156-1.897-5.22-2.849-9.207-2.849c-3.84,0-6.886,0.992-9.145,2.974c-2.253,1.979-3.381,4.638-3.381,7.964
		c0,1.477,0.273,2.888,0.82,4.24c0.539,1.348,1.325,2.529,2.358,3.538c1.443,1.495,3.999,3.099,7.667,4.808
		c0.71,0.337,1.24,0.588,1.576,0.756c1.567,0.734,2.574,1.369,3.027,1.907c0.455,0.534,0.688,1.21,0.688,2.026
		c0,0.947-0.334,1.717-0.99,2.316c-0.656,0.597-1.496,0.895-2.51,0.895c-1.274,0-2.232-0.438-2.866-1.301
		c-0.093-0.123-0.165-0.279-0.241-0.42h2.833l-3.706-3.707l-8.894-0.033l-1.343-1.341h-9.559c0,0.082,0.01,0.188,0.034,0.315
		c0.056,0.658,0.091,1.147,0.091,1.464c0,1.574-0.294,2.749-0.879,3.522c-0.583,0.777-1.451,1.163-2.604,1.163
		c-1.318,0-2.25-0.499-2.791-1.5c-0.545-1.002-0.82-2.79-0.82-5.362c0-0.612,0.043-1.688,0.126-3.227
		c0-0.17,0.015-0.309,0.034-0.411h16.552v-4.379c0-3.806-0.198-6.496-0.599-8.074c-0.396-1.573-1.057-2.931-1.979-4.067
		c-1.095-1.342-2.516-2.355-4.25-3.041c-1.743-0.684-3.813-1.025-6.202-1.025c-0.275,0-0.507,0.047-0.772,0.057l4.344-6.235
		l2.402-1.962h8.242l-3.706-3.706h-9.278l-6.264,8.992l3,2.999c-1.51,0.137-2.929,0.368-4.16,0.807
		c-1.77,0.627-3.238,1.568-4.391,2.806c-1.196,1.327-2.041,3.009-2.533,5.053c-0.492,2.038-0.743,5.639-0.743,10.795
		c0,2.224,0.059,4.137,0.169,5.781l-2.195-2.196h-9.979c0,0.211,0.015,0.505,0.028,0.883c0.024,0.38,0.034,0.651,0.034,0.818
		c0,2.122-0.247,3.671-0.737,4.647c-0.498,0.979-1.279,1.465-2.352,1.465c-1.235,0-2.086-0.689-2.533-2.071
		c-0.455-1.379-0.676-4.598-0.676-9.652c0-5.268,0.221-8.525,0.666-9.769c0.449-1.239,1.308-1.862,2.572-1.862
		c1.105,0,1.893,0.462,2.361,1.377c0.461,0.924,0.698,2.47,0.698,4.646v1.033l3.706,3.706v-3.706h6.124v-0.628
		c0-4.828-1.046-8.378-3.142-10.658c-2.099-2.273-5.365-3.418-9.807-3.418c-4.947,0-8.439,1.425-10.465,4.264
		c-2.037,2.841-3.051,7.839-3.051,14.994c0,7.157,1.014,12.15,3.035,14.979c2.027,2.827,5.523,4.245,10.5,4.245
		c4.412,0,7.692-1.147,9.855-3.444c1.784-1.896,2.788-4.64,3.102-8.142h2.389c0.111,1.121,0.248,2.128,0.42,2.905
		c0.482,2.126,1.293,3.831,2.426,5.113c1.011,1.114,2.416,1.987,4.219,2.623c1.806,0.627,3.822,0.944,6.049,0.944
		c4.404,0,7.725-1.083,9.949-3.25c1.711-1.668,2.75-3.977,3.146-6.905h1.466c0.272,2.962,1.309,5.354,3.217,7.106
		c2.219,2.032,5.331,3.049,9.331,3.049c4.209,0,7.451-1.009,9.724-3.031c2.273-2.022,3.41-4.874,3.41-8.564
		c0-2.864-0.708-5.177-2.117-6.948C526.242,532.654,523.455,530.833,519.284,528.954z M487.441,522.622
		c0.533-0.83,1.417-1.251,2.647-1.251c1.216,0,2.109,0.429,2.684,1.283c0.577,0.853,0.864,2.175,0.864,3.962
		c0,0.382-0.039,1.032-0.126,1.962v0.189h-6.81c-0.02-0.232-0.038-0.495-0.047-0.789c-0.004-0.297-0.014-0.708-0.014-1.233
		C486.641,524.829,486.909,523.454,487.441,522.622z"/>
	<polygon points="451.06,503.394 481.77,503.394 481.77,442.22 509.306,442.22 509.306,503.394 513.012,507.1 513.012,503.394 
		542.955,503.394 542.955,359.764 546.662,359.764 542.955,356.058 509.306,356.058 509.306,411.63 481.77,411.63 481.77,359.764 
		485.475,359.764 481.77,356.058 447.354,356.058 447.354,503.394 451.06,507.1 	"/>
	<path d="M785.767,541.758v-14.053c0-3.61-0.29-6.095-0.865-7.459c-0.578-1.363-1.578-2.527-3.007-3.497
		c-1.114-0.736-2.494-1.294-4.139-1.682c-1.646-0.386-3.519-0.585-5.617-0.585c-4.657,0-8.131,1.004-10.419,3.009
		c-2.287,2.003-3.431,5.063-3.431,9.176l3.705,3.706l2.472-3.706h4.072v-0.251c0-1.546,0.294-2.688,0.889-3.426
		c0.588-0.74,1.496-1.115,2.722-1.115c1.014,0,1.791,0.281,2.324,0.836c0.542,0.554,0.813,1.362,0.813,2.434
		c0,1.734-1.882,3.298-5.656,4.677c-1.313,0.483-2.35,0.869-3.121,1.159c-3.246,1.304-5.579,2.852-7.003,4.636
		c-1.429,1.789-2.138,4.06-2.138,6.814c0,3.154,0.83,5.658,2.5,7.51c1.664,1.845,3.922,2.771,6.771,2.771
		c1.779,0,3.43-0.345,4.955-1.029c1.517-0.686,2.919-1.708,4.193-3.061l0.604,3.334l3.706,3.706v-3.706h6.962
		c-0.462-0.945-0.795-2.165-0.994-3.669C785.868,546.791,785.767,544.609,785.767,541.758z M775.097,538.48
		c0,2.374-0.337,4.065-1,5.074c-0.666,1.006-1.735,1.51-3.209,1.51c-0.999,0-1.795-0.347-2.383-1.036
		c-0.595-0.695-0.889-1.619-0.889-2.772c0-1.639,0.595-3.007,1.791-4.098c1.196-1.094,3.092-2.006,5.689-2.74V538.48z"/>
	<path d="M673.169,514.734c-1.905,0-3.575,0.413-5.004,1.237c-0.66,0.382-1.284,0.871-1.876,1.449l-1.932-1.927h-9.537v36.461
		l3.707,3.706v-3.706h6.458v-22.798c0-1.974,0.323-3.514,0.964-4.616c0.377-0.648,0.855-1.085,1.399-1.353v1.29h2.202v-1.391
		c0.463,0.167,0.854,0.426,1.089,0.87c0.378,0.714,0.565,2.533,0.565,5.452v22.545l3.706,3.706v-3.706h6.378v-25.444
		c0-4.08-0.649-7.065-1.953-8.949C678.037,515.679,675.977,514.734,673.169,514.734z"/>
	<path d="M741.177,473.571v-32.375h42.354v-25.86h3.707l-3.707-3.706h-42.354v-27.022h45.892v-24.844h3.706l-3.706-3.706h-80.052
		v147.336h-4.738c-5.232-4.199-7.968-14.579-8.223-31.138c-0.064-3.497-0.127-6.177-0.193-8.025v-0.478
		c-0.575-17.635-6.173-28.812-16.794-33.53c6.268-3.702,10.886-8.426,13.863-14.178c2.974-5.752,4.46-12.872,4.46-21.373
		c0-6.961-1.032-12.964-3.104-18.013c-2.069-5.047-5.202-9.296-9.399-12.741c-3.566-2.876-8.211-4.904-13.937-6.087
		c-5.729-1.181-14.927-1.773-27.589-1.773h-38.768v147.336l3.706,3.706v-3.706h30.453v-58.883h6.958
		c6.018,0,10.188,1.658,12.508,4.971c2.316,3.314,3.48,9.462,3.48,18.451c0,1.015-0.063,3.199-0.184,6.549
		c-0.131,3.342-0.189,6.192-0.189,8.552c0,3.825,0.219,7.408,0.667,10.754c0.44,3.346,1.134,6.551,2.095,9.606l3.706,3.706v-3.706
		h35.37v15.442c-0.924-1.425-1.963-2.479-3.12-3.163c-1.159-0.682-2.506-1.022-4.039-1.022c-3.597,0-6.091,1.298-7.475,3.891
		c-1.392,2.592-2.085,8.001-2.085,16.226c0,5.227,0.187,8.79,0.549,10.69c0.373,1.897,1.004,3.415,1.912,4.548
		c0.801,0.942,1.781,1.673,2.954,2.188c1.161,0.515,2.461,0.771,3.893,0.771c1.703,0,3.253-0.431,4.653-1.288
		c0.693-0.424,1.337-0.946,1.918-1.563h1.633v1.842l3.706,3.706v-3.706h5.67v-48.562h33.205v38.973l-3.262-3.262h-9.554
		c0,0.082,0.01,0.188,0.027,0.315c0.063,0.658,0.097,1.147,0.097,1.464c0,1.574-0.294,2.749-0.88,3.522
		c-0.587,0.777-1.45,1.163-2.604,1.163c-1.317,0-2.249-0.499-2.795-1.5c-0.539-1.002-0.814-2.79-0.814-5.362
		c0-0.612,0.043-1.688,0.125-3.227c0-0.17,0.014-0.309,0.033-0.411h16.553v-4.379c0-3.806-0.198-6.496-0.598-8.074
		c-0.396-1.573-1.059-2.931-1.98-4.067c-1.095-1.342-2.514-2.355-4.249-3.041c-1.748-0.684-3.813-1.025-6.206-1.025
		c-2.351,0-4.412,0.316-6.188,0.951c-1.776,0.627-3.238,1.568-4.392,2.806c-1.196,1.327-2.042,3.009-2.533,5.053
		c-0.497,2.038-0.738,5.639-0.738,10.795c0,4.675,0.235,8.069,0.719,10.196c0.483,2.126,1.294,3.831,2.427,5.113
		c1.005,1.114,2.408,1.987,4.218,2.623c1.805,0.627,3.823,0.944,6.047,0.944c4.405,0,7.722-1.083,9.951-3.25
		c1.708-1.668,2.745-3.977,3.141-6.905h3.455v9.146l3.706,3.706v-3.706h6.379v-48.562h32.443v-26.116h3.706l-3.706-3.706H741.177z
		 M656.057,413.42c-2.939,2.886-7.951,4.326-15.029,4.326c-0.445,0-1.127-0.033-2.043-0.098c-0.916-0.063-1.664-0.094-2.229-0.094
		v-36.068c0.565,0,1.313-0.031,2.229-0.094c0.916-0.068,1.598-0.098,2.043-0.098c7.078,0,12.09,1.327,15.029,3.988
		c2.939,2.662,4.412,7.165,4.412,13.516C660.469,405.663,658.996,410.536,656.057,413.42z M700.612,542.538
		c-0.517,1.404-1.452,2.106-2.804,2.106c-1.188,0-1.998-0.577-2.443-1.746c-0.447-1.166-0.669-4.105-0.669-8.829
		c0-4.528,0.241-7.459,0.719-8.78c0.474-1.321,1.356-1.983,2.645-1.983c1.226,0,2.085,0.585,2.582,1.748s0.748,3.289,0.748,6.375
		C701.39,537.429,701.129,541.131,700.612,542.538z M725.904,522.622c0.535-0.83,1.418-1.251,2.649-1.251
		c1.216,0,2.108,0.429,2.684,1.283c0.577,0.853,0.863,2.175,0.863,3.962c0,0.382-0.045,1.032-0.127,1.962v0.189h-6.81
		c-0.018-0.232-0.037-0.495-0.047-0.789c-0.01-0.297-0.014-0.708-0.014-1.233C725.104,524.829,725.368,523.454,725.904,522.622z"/>
</g>
<path fill="#DCB92D" d="M89.46,341.709c8.643,1.251,21.252,1.876,37.829,1.876h14.25V292.59c-0.956,0-2.321,0.061-4.097,0.18
	c-1.791,0.117-3.093,0.177-3.918,0.177c-10.221,0-17.073-1.786-20.572-5.353c-3.499-3.573-5.256-11.063-5.256-22.488v-43.018
	c0-15.788-2.774-26.932-8.328-33.451c-5.559-6.518-15.731-11.152-30.537-13.907c14.684-2.616,24.832-7.243,30.445-13.874
	c5.612-6.623,8.42-17.933,8.42-33.934v-42.49c0-11.615,1.777-19.193,5.343-22.753c3.557-3.561,10.505-5.34,20.842-5.34
	c0.705,0,1.925,0.055,3.647,0.179c1.718,0.118,3.055,0.178,4.01,0.178V5.706h-14.25c-16.456,0-29.008,0.623-37.65,1.873
	c-8.643,1.252-15.828,3.315-21.546,6.172c-7.152,3.579-12.195,8.647-15.114,15.199c-2.92,6.55-4.382,17.761-4.382,33.617v45.864
	c0,15.053-2.77,25.667-8.31,31.834c-5.54,6.165-14.979,9.242-28.332,9.242c-0.593,0-1.577-0.063-2.943-0.182
	c-1.371-0.117-2.471-0.179-3.306-0.179v50.996c0.835,0,1.935-0.064,3.306-0.18c1.366-0.123,2.35-0.178,2.943-0.178
	c13.353,0,22.792,3.098,28.332,9.279c5.54,6.191,8.31,16.837,8.31,31.951v46.042c0,15.748,1.462,26.858,4.382,33.358
	c2.919,6.494,7.961,11.533,15.114,15.116C73.694,338.393,80.817,340.456,89.46,341.709z M204.021,301.807
	c12.759,5.949,28.076,8.924,45.964,8.924c30.392,0,52.962-8.117,67.69-24.356c14.728-16.232,22.091-41.124,22.091-74.674
	c0-3.801-0.048-6.652-0.121-8.563c-0.082-1.901-0.198-3.685-0.356-5.35h-63.395v12.153c0,18.941-1.931,31.897-5.791,38.865
	c-3.856,6.97-10.597,10.457-20.21,10.457c-10.336,0-17.401-4.796-21.204-14.387c-3.793-9.586-5.689-35.659-5.689-78.206v-5.188
	c0-39.599,1.901-64.014,5.723-73.258c3.812-9.241,10.916-13.864,21.291-13.864c9.535,0,16.339,3.788,20.398,11.36
	c4.053,7.578,6.201,20.73,6.437,39.448l62.44,0.179v-2.681c0-33.359-7.533-58.402-22.609-75.142
	c-15.075-16.743-37.684-25.113-67.829-25.113c-17.507,0-32.587,3.016-45.216,9.029c-12.633,6.022-22.821,14.986-30.561,26.898
	c-5.487,8.584-9.416,20.508-11.794,35.757c-2.388,15.254-3.576,39.448-3.576,72.574c0,33.089,1.188,57.243,3.576,72.481
	c2.379,15.233,6.322,27.132,11.799,35.694C180.944,286.871,191.257,295.859,204.021,301.807z M524.012,224.831
	c0-9.398-1.035-18.118-3.12-26.155c-2.085-8.036-5.096-15.208-9.028-21.52c-6.313-9.766-20.741-21.788-43.258-36.072
	c-2.973-2.026-5.303-3.516-6.968-4.463c-2.051-1.315-4.99-3.21-8.833-5.715c-21.16-13.08-31.731-25.444-31.731-37.105
	c0-7.133,1.854-12.878,5.568-17.216c3.716-4.338,8.624-6.519,14.738-6.519c7.189,0,12.667,3.098,16.445,9.298
	c3.773,6.191,5.665,15.31,5.665,27.338v3.399h57.787c0-1.074,0.059-2.561,0.178-4.471c0.122-1.901,0.179-3.399,0.179-4.482
	c0-25.523-7.011-45.033-21.034-58.511c-14.028-13.475-34.354-20.224-60.968-20.224c-24.485,0-43.701,6.842-57.666,20.533
	c-13.965,13.686-20.949,32.54-20.949,56.576c0,9.876,1.192,18.974,3.572,27.303c2.388,8.33,5.848,15.834,10.379,22.488
	c6.316,8.804,22.415,21.896,48.29,39.262l3.035,1.963c1.689,1.074,4.081,2.693,7.215,4.836
	c19.346,12.304,29.026,25.138,29.026,38.514c0,8.122-1.979,14.54-5.94,19.258c-3.962,4.715-9.366,7.075-16.21,7.075
	c-8.536,0-14.603-3.116-18.202-9.34c-3.604-6.228-5.399-16.944-5.399-32.146v-8.082h-58.882c-0.353,4.304-0.555,7.445-0.613,9.405
	c-0.059,1.968-0.083,3.853-0.083,5.641c0,28.167,7.007,49.382,21.031,63.639c14.014,14.271,34.991,21.395,62.917,21.395
	c26.604,0,47.069-7.438,61.387-22.326C516.854,273.529,524.012,252.34,524.012,224.831z M613.485,310.73
	c26.613,0,47.079-7.438,61.396-22.326c14.313-14.875,21.475-36.064,21.475-63.573c0-9.398-1.042-18.118-3.121-26.155
	c-2.095-8.036-5.102-15.208-9.03-21.52c-6.311-9.766-20.74-21.788-43.261-36.072c-2.978-2.026-5.304-3.516-6.968-4.463
	c-2.047-1.315-4.99-3.21-8.833-5.715c-21.155-13.08-31.731-25.444-31.731-37.105c0-7.133,1.856-12.878,5.568-17.216
	c3.709-4.338,8.627-6.519,14.738-6.519c7.188,0,12.666,3.098,16.444,9.298c3.774,6.191,5.67,15.31,5.67,27.338v3.399h57.782
	c0-1.074,0.063-2.561,0.173-4.471c0.127-1.901,0.186-3.399,0.186-4.482c0-25.523-7.013-45.033-21.03-58.511
	c-14.033-13.475-34.357-20.224-60.974-20.224c-24.485,0-43.7,6.842-57.661,20.533c-13.969,13.686-20.948,32.54-20.948,56.576
	c0,9.876,1.188,18.974,3.571,27.303c2.389,8.33,5.844,15.834,10.37,22.488c6.321,8.804,22.42,21.896,48.304,39.262l3.032,1.963
	c1.684,1.074,4.082,2.693,7.21,4.836c19.351,12.304,29.031,25.138,29.031,38.514c0,8.122-1.99,14.54-5.945,19.258
	c-3.965,4.715-9.367,7.075-16.21,7.075c-8.532,0-14.599-3.116-18.203-9.34c-3.599-6.228-5.399-16.944-5.399-32.146v-8.082h-58.879
	c-0.351,4.304-0.553,7.445-0.615,9.405c-0.055,1.968-0.078,3.853-0.078,5.641c0,28.167,7.007,49.382,21.03,63.639
	C564.586,303.607,585.566,310.73,613.485,310.73z M842.993,149.324c-1.37,0.118-2.354,0.182-2.948,0.182
	c-13.348,0-22.792-3.077-28.332-9.242c-5.539-6.167-8.311-16.781-8.311-31.834V62.566c0-15.5-1.494-26.583-4.481-33.257
	c-2.974-6.677-8.102-11.862-15.37-15.558c-5.607-2.856-12.7-4.92-21.291-6.172c-8.583-1.25-21.097-1.873-37.548-1.873h-14.25v50.99
	c1.065,0,2.428-0.061,4.098-0.178c1.658-0.124,2.847-0.179,3.56-0.179c10.334,0,17.276,1.779,20.838,5.34
	c3.563,3.56,5.347,11.138,5.347,22.753v42.843c0,15.885,2.798,27.109,8.416,33.673c5.617,6.572,15.766,11.166,30.449,13.782
	c-14.805,2.75-24.985,7.373-30.541,13.886c-5.553,6.506-8.324,17.634-8.324,33.395v42.843c0,11.615-1.784,19.197-5.347,22.763
	c-3.562,3.549-10.504,5.331-20.838,5.331c-0.713,0-1.901-0.06-3.56-0.177c-1.67-0.119-3.032-0.18-4.098-0.18v50.995h16.746
	c15.494,0,27.417-0.603,35.761-1.801c8.35-1.206,15.215-3.184,20.582-5.935c7.269-3.728,12.396-8.944,15.37-15.656
	c2.987-6.725,4.481-17.882,4.481-33.467v-45.87c0-15.058,2.771-25.662,8.311-31.827c5.54-6.167,14.984-9.245,28.332-9.245
	c0.595,0,1.578,0.055,2.948,0.178c1.366,0.115,2.471,0.18,3.301,0.18v-50.996C845.464,149.146,844.359,149.207,842.993,149.324z"/>
<path fill="#DCB92D" d="M106.394,452.042h13.511c0.063,0.957,0.111,1.948,0.141,2.972c0.01,0.224,0.015,0.468,0.02,0.736
	c0.02,0.951,0.028,2.175,0.028,3.677c0,8.436-1.042,14.54-3.122,18.311c-2.08,3.774-5.429,5.656-10.033,5.656
	c-4.604,0-7.759-2.138-9.463-6.42c-1.703-4.283-2.553-14.634-2.553-31.058v-24.688c0-16.294,0.902-26.662,2.712-31.099
	c1.809-4.439,5.134-6.66,9.97-6.66c4.067,0,7.002,1.806,8.816,5.409c1.811,3.603,2.717,9.611,2.717,18.023v1.803h32.693
	c0-0.696,0.034-1.631,0.097-2.805c0.063-1.173,0.096-2.045,0.096-2.62c0-15.548-3.662-27.234-10.988-35.071
	c-7.335-7.84-18.222-11.758-32.684-11.758c-9.242,0-17.223,1.623-23.94,4.871c-6.727,3.246-12.123,8.091-16.199,14.517
	c-2.804,4.462-4.874,11.146-6.211,20.059c-1.336,8.916-2.008,20.792-2.008,35.621c0,20.827,0.951,35.6,2.857,44.321
	c1.906,8.723,5.182,15.664,9.83,20.823c3.745,4.199,8.146,7.416,13.203,9.647c5.047,2.226,10.568,3.342,16.542,3.342
	c5.274,0,9.994-0.975,14.159-2.909c4.159-1.933,7.961-4.877,11.393-8.817l1.539,9.174h23.786v-80.806h-46.91V452.042z
	 M223.043,452.2c0,13.735-0.854,22.322-2.557,25.771c-1.708,3.451-4.806,5.17-9.294,5.17c-4.43,0-7.509-1.66-9.251-4.979
	c-1.732-3.324-2.601-11.972-2.601-25.962v-92.437h-34.927v79.41c0,16.82,0.526,28.772,1.578,35.844
	c1.046,7.074,2.88,12.871,5.491,17.396c3.634,6.373,8.537,11.009,14.718,13.908c6.177,2.901,14.173,4.346,23.988,4.346
	c10.641,0,19.274-1.542,25.899-4.63c6.626-3.089,11.693-7.946,15.202-14.571c2.099-3.88,3.609-8.449,4.536-13.706
	c0.922-5.255,1.384-13.201,1.384-23.833v-94.164h-34.166V452.2z M328.276,359.764l-14.308,46.591l-14.197-46.591H262.72
	l33.904,84.86V507.1h35.179v-62.476l33.905-84.86H328.276z"/>
<path fill="#FFFFFF" d="M558.705,507.1h34.42V359.764h-34.42V507.1z M426.366,361.549h-33.711l-46.336,89.207v27.796h48.436V507.1
	h31.612v-28.548h12.749v-25.235h-12.749V361.549z M485.475,445.926h27.537V507.1h33.65V359.764h-33.65v55.572h-27.537v-55.572
	H451.06V507.1h34.415V445.926z M477.794,541.378h-9.979c0,0.211,0.015,0.505,0.028,0.883c0.024,0.38,0.034,0.651,0.034,0.818
	c0,2.122-0.248,3.671-0.738,4.647c-0.497,0.979-1.278,1.465-2.352,1.465c-1.234,0-2.084-0.689-2.533-2.072
	c-0.451-1.378-0.675-4.597-0.675-9.651c0-5.267,0.224-8.525,0.665-9.769c0.449-1.239,1.309-1.862,2.573-1.862
	c1.106,0,1.892,0.462,2.36,1.378c0.461,0.923,0.699,2.469,0.699,4.645v1.033h9.829v-0.628c0-4.828-1.046-8.378-3.141-10.658
	c-2.099-2.273-5.366-3.418-9.808-3.418c-4.945,0-8.438,1.425-10.465,4.264c-2.035,2.841-3.05,7.839-3.05,14.994
	c0,7.157,1.015,12.151,3.035,14.979c2.027,2.827,5.524,4.245,10.499,4.245c4.412,0,7.693-1.147,9.855-3.444
	c2.16-2.298,3.243-5.773,3.243-10.429c0-0.148-0.015-0.374-0.039-0.674C477.804,541.814,477.794,541.567,477.794,541.378z
	 M493.178,515.334l11.012-8.992h-9.279l-6.264,8.992H493.178z M504.131,522.256c-1.095-1.343-2.514-2.356-4.25-3.042
	c-1.742-0.682-3.813-1.025-6.201-1.025c-2.355,0-4.416,0.316-6.191,0.951c-1.771,0.628-3.238,1.568-4.392,2.806
	c-1.196,1.327-2.041,3.009-2.533,5.053c-0.493,2.038-0.743,5.639-0.743,10.795c0,4.675,0.24,8.071,0.723,10.196
	c0.483,2.126,1.294,3.831,2.428,5.113c1.01,1.114,2.414,1.987,4.218,2.623c1.806,0.627,3.822,0.944,6.048,0.944
	c4.405,0,7.726-1.083,9.951-3.25c2.223-2.168,3.338-5.397,3.338-9.691v-0.92h-9.559c0,0.084,0.01,0.19,0.033,0.317
	c0.057,0.659,0.09,1.147,0.09,1.464c0,1.574-0.293,2.749-0.877,3.522c-0.584,0.777-1.452,1.163-2.605,1.163
	c-1.317,0-2.249-0.5-2.791-1.5c-0.544-1.002-0.82-2.79-0.82-5.362c0-0.612,0.045-1.688,0.127-3.227c0-0.17,0.015-0.309,0.034-0.411
	h16.552v-4.379c0-3.806-0.197-6.496-0.598-8.074C505.714,524.75,505.054,523.392,504.131,522.256z M676.875,518.44
	c-1.905,0-3.575,0.413-5.004,1.237c-1.424,0.822-2.696,2.099-3.809,3.829V519.2h-9.535v36.461h10.164v-22.798
	c0-1.974,0.323-3.514,0.965-4.616c0.643-1.104,1.529-1.656,2.669-1.656c0.971,0,1.641,0.358,2.021,1.073
	c0.377,0.714,0.565,2.533,0.565,5.452v22.545h10.085v-25.444c0-4.08-0.65-7.065-1.954-8.949
	C681.744,519.385,679.683,518.44,676.875,518.44z M710.723,507.1h-4.738c-5.232-4.199-7.968-14.579-8.223-31.138
	c-0.064-3.497-0.127-6.177-0.193-8.025v-0.478c-0.574-17.635-6.173-28.813-16.794-33.53c6.269-3.702,10.886-8.426,13.863-14.178
	c2.974-5.752,4.46-12.872,4.46-21.373c0-6.96-1.032-12.964-3.104-18.013c-2.069-5.047-5.201-9.296-9.399-12.741
	c-3.566-2.876-8.21-4.904-13.937-6.087c-5.729-1.18-14.926-1.773-27.589-1.773h-38.768V507.1h34.159v-58.883h6.958
	c6.018,0,10.188,1.658,12.508,4.971c2.315,3.314,3.481,9.463,3.481,18.451c0,1.015-0.063,3.199-0.185,6.549
	c-0.132,3.342-0.188,6.192-0.188,8.552c0,3.825,0.218,7.408,0.666,10.754c0.44,3.346,1.134,6.552,2.095,9.606h39.077v15.442
	c-0.925-1.425-1.964-2.479-3.121-3.163c-1.159-0.682-2.506-1.022-4.039-1.022c-3.596,0-6.09,1.298-7.475,3.892
	c-1.392,2.591-2.085,8-2.085,16.225c0,5.227,0.187,8.79,0.55,10.69c0.372,1.897,1.003,3.415,1.911,4.548
	c0.801,0.942,1.781,1.674,2.954,2.188c1.161,0.515,2.461,0.771,3.893,0.771c1.703,0,3.252-0.432,4.653-1.287
	c1.399-0.859,2.58-2.104,3.551-3.737v4.016h9.376V507.1h33.205v48.562h10.085V507.1h32.443v-29.822h-45.892v-32.375h42.355v-29.566
	h-42.355v-27.022h45.892v-28.55h-80.052V507.1z M742.595,522.256c-1.095-1.343-2.515-2.356-4.249-3.042
	c-1.748-0.682-3.813-1.025-6.206-1.025c-2.351,0-4.412,0.316-6.187,0.951c-1.777,0.628-3.239,1.568-4.393,2.806
	c-1.196,1.327-2.042,3.009-2.533,5.053c-0.496,2.038-0.738,5.639-0.738,10.795c0,4.675,0.236,8.071,0.719,10.196
	c0.483,2.126,1.294,3.831,2.428,5.113c1.004,1.114,2.407,1.987,4.217,2.623c1.805,0.627,3.823,0.944,6.047,0.944
	c4.405,0,7.722-1.083,9.951-3.25c2.219-2.168,3.334-5.397,3.334-9.691v-0.92h-9.554c0,0.084,0.01,0.19,0.027,0.317
	c0.063,0.659,0.097,1.147,0.097,1.464c0,1.574-0.294,2.749-0.879,3.522c-0.588,0.777-1.451,1.163-2.604,1.163
	c-1.317,0-2.249-0.5-2.794-1.5c-0.54-1.002-0.814-2.79-0.814-5.362c0-0.612,0.041-1.688,0.124-3.227c0-0.17,0.014-0.309,0.033-0.411
	h16.553v-4.379c0-3.806-0.198-6.496-0.598-8.074C744.18,524.75,743.517,523.392,742.595,522.256z M789.473,545.463v-14.052
	c0-3.61-0.29-6.095-0.865-7.459c-0.578-1.365-1.578-2.526-3.006-3.497c-1.115-0.736-2.494-1.294-4.139-1.682
	c-1.646-0.386-3.52-0.585-5.618-0.585c-4.657,0-8.131,1.004-10.419,3.009c-2.287,2.003-3.432,5.063-3.432,9.176h10.25v-0.249
	c0-1.548,0.294-2.689,0.889-3.428c0.588-0.74,1.496-1.114,2.722-1.114c1.014,0,1.791,0.28,2.323,0.834
	c0.543,0.555,0.814,1.363,0.814,2.434c0,1.735-1.883,3.299-5.657,4.678c-1.313,0.483-2.35,0.869-3.121,1.16
	c-3.245,1.303-5.579,2.851-7.003,4.635c-1.429,1.789-2.138,4.061-2.138,6.814c0,3.154,0.83,5.658,2.5,7.51
	c1.664,1.845,3.922,2.771,6.771,2.771c1.779,0,3.43-0.345,4.955-1.028c1.517-0.687,2.919-1.709,4.193-3.062l0.604,3.334h10.668
	c-0.462-0.945-0.795-2.165-0.995-3.669C789.574,550.497,789.473,548.315,789.473,545.463z M655.034,545.463v-14.052
	c0-3.61-0.294-6.095-0.869-7.459c-0.573-1.365-1.576-2.526-3.005-3.497c-1.114-0.736-2.49-1.294-4.141-1.682
	c-1.646-0.386-3.513-0.585-5.613-0.585c-4.661,0-8.133,1.004-10.417,3.009c-2.288,2.003-3.438,5.063-3.438,9.176h10.255v-0.249
	c0-1.548,0.295-2.689,0.889-3.428c0.583-0.74,1.495-1.114,2.717-1.114c1.012,0,1.793,0.28,2.33,0.834
	c0.54,0.555,0.807,1.363,0.807,2.434c0,1.735-1.882,3.299-5.65,4.678c-1.313,0.483-2.35,0.869-3.125,1.16
	c-3.245,1.303-5.581,2.851-7.006,4.635c-1.422,1.789-2.139,4.061-2.139,6.814c0,3.154,0.836,5.658,2.506,7.51
	c1.664,1.845,3.92,2.771,6.771,2.771c1.781,0,3.432-0.345,4.957-1.028c1.519-0.687,2.913-1.709,4.193-3.062l0.603,3.334h10.67
	c-0.464-0.945-0.797-2.165-0.994-3.669C655.133,550.497,655.034,548.315,655.034,545.463z M574.842,524.284V519.2h-9.376v36.461
	h10.169v-17.494c0-3.379,0.313-5.646,0.953-6.812c0.644-1.158,1.781-1.738,3.418-1.738c0.419,0,0.887,0.035,1.4,0.105
	c0.51,0.067,1.051,0.175,1.62,0.313V518.44c-1.68,0.171-3.185,0.729-4.517,1.674C577.179,521.063,575.951,522.452,574.842,524.284z
	 M624.564,541.378h-9.978c0,0.211,0.009,0.505,0.032,0.883c0.02,0.38,0.029,0.651,0.029,0.818c0,2.122-0.245,3.671-0.738,4.647
	c-0.494,0.979-1.279,1.465-2.35,1.465c-1.235,0-2.085-0.689-2.533-2.072c-0.454-1.378-0.68-4.597-0.68-9.651
	c0-5.267,0.226-8.525,0.674-9.769c0.444-1.239,1.304-1.862,2.572-1.862c1.101,0,1.888,0.462,2.355,1.378
	c0.468,0.923,0.699,2.469,0.699,4.645v1.033h9.832v-0.628c0-4.828-1.05-8.378-3.145-10.658c-2.094-2.273-5.366-3.418-9.805-3.418
	c-4.945,0-8.436,1.425-10.472,4.264c-2.032,2.841-3.044,7.839-3.044,14.994c0,7.157,1.012,12.151,3.034,14.979
	c2.026,2.827,5.526,4.245,10.501,4.245c4.405,0,7.691-1.147,9.854-3.444c2.163-2.298,3.242-5.773,3.242-10.429
	c0-0.148-0.014-0.374-0.043-0.674C624.58,541.814,624.564,541.567,624.564,541.378z M563.034,545.463v-14.052
	c0-3.61-0.29-6.095-0.869-7.459c-0.575-1.365-1.578-2.526-3.007-3.497c-1.11-0.736-2.49-1.294-4.135-1.682
	c-1.65-0.386-3.519-0.585-5.617-0.585c-4.661,0-8.131,1.004-10.419,3.009c-2.286,2.003-3.433,5.063-3.433,9.176h10.252v-0.249
	c0-1.548,0.293-2.689,0.887-3.428c0.589-0.74,1.497-1.114,2.717-1.114c1.02,0,1.797,0.28,2.332,0.834
	c0.54,0.555,0.811,1.363,0.811,2.434c0,1.735-1.888,3.299-5.656,4.678c-1.312,0.483-2.35,0.869-3.121,1.16
	c-3.25,1.303-5.585,2.851-7.008,4.635c-1.424,1.789-2.133,4.061-2.133,6.814c0,3.154,0.83,5.658,2.5,7.51
	c1.664,1.845,3.918,2.771,6.771,2.771c1.781,0,3.43-0.345,4.954-1.028c1.521-0.687,2.92-1.709,4.194-3.062l0.604,3.334h10.668
	c-0.462-0.945-0.795-2.165-0.994-3.669C563.13,550.497,563.034,548.315,563.034,545.463z M522.99,532.66
	c-0.236-0.101-0.56-0.251-0.984-0.445c-3.049-1.349-4.575-2.826-4.575-4.43c0-0.908,0.304-1.645,0.918-2.203
	c0.608-0.558,1.429-0.84,2.461-0.84c1.157,0,1.993,0.395,2.51,1.173c0.511,0.777,0.791,2.087,0.834,3.922l8.901,0.029v-0.662
	c0-3.545-1.068-6.267-3.218-8.167c-2.155-1.897-5.22-2.849-9.208-2.849c-3.839,0-6.885,0.992-9.143,2.974
	c-2.253,1.979-3.383,4.638-3.383,7.964c0,1.477,0.274,2.888,0.82,4.24c0.539,1.348,1.328,2.529,2.359,3.538
	c1.444,1.497,4,3.099,7.668,4.808c0.709,0.337,1.24,0.588,1.574,0.756c1.568,0.734,2.574,1.369,3.029,1.907
	c0.453,0.534,0.687,1.21,0.687,2.026c0,0.947-0.333,1.717-0.99,2.315c-0.656,0.598-1.496,0.895-2.51,0.895
	c-1.274,0-2.231-0.435-2.866-1.3c-0.641-0.869-1.012-2.245-1.114-4.126l-9.077-0.034v0.911c0,3.668,1.115,6.522,3.33,8.559
	c2.219,2.032,5.332,3.049,9.332,3.049c4.209,0,7.451-1.009,9.725-3.031c2.272-2.022,3.41-4.873,3.41-8.564
	c0-2.864-0.709-5.177-2.117-6.948C529.948,536.359,527.16,534.539,522.99,532.66z M398.494,453.316h-26.714l26.714-58.922V453.316z
	 M497.217,532.284v0.189h-6.811c-0.02-0.232-0.035-0.495-0.045-0.789c-0.006-0.3-0.016-0.708-0.016-1.233
	c0-1.916,0.27-3.291,0.801-4.123c0.535-0.83,1.418-1.251,2.648-1.251c1.215,0,2.109,0.429,2.684,1.282
	c0.578,0.854,0.864,2.176,0.864,3.963C497.343,530.704,497.304,531.355,497.217,532.284z M659.762,417.126
	c-2.938,2.886-7.949,4.326-15.029,4.326c-0.444,0-1.125-0.035-2.041-0.098c-0.917-0.063-1.664-0.094-2.23-0.094v-36.067
	c0.566,0,1.313-0.032,2.23-0.095c0.916-0.068,1.597-0.098,2.041-0.098c7.08,0,12.092,1.327,15.029,3.988
	c2.941,2.662,4.413,7.163,4.413,13.516C664.175,409.369,662.703,414.242,659.762,417.126z M704.318,546.244
	c-0.517,1.404-1.452,2.107-2.804,2.107c-1.188,0-1.999-0.578-2.442-1.747c-0.447-1.165-0.67-4.105-0.67-8.829
	c0-4.528,0.242-7.459,0.719-8.78c0.474-1.321,1.356-1.983,2.645-1.983c1.226,0,2.085,0.585,2.582,1.748s0.748,3.289,0.748,6.375
	C705.096,541.135,704.835,544.837,704.318,546.244z M735.68,532.284v0.189h-6.809c-0.019-0.232-0.038-0.495-0.048-0.789
	c-0.01-0.3-0.014-0.708-0.014-1.233c0-1.916,0.265-3.291,0.801-4.123c0.534-0.83,1.418-1.251,2.649-1.251
	c1.216,0,2.108,0.429,2.684,1.282c0.578,0.854,0.863,2.176,0.863,3.963C735.807,530.704,735.762,531.355,735.68,532.284z
	 M778.803,542.187c0,2.374-0.337,4.065-1,5.074c-0.666,1.006-1.735,1.511-3.209,1.511c-0.998,0-1.795-0.348-2.383-1.037
	c-0.595-0.695-0.889-1.619-0.889-2.772c0-1.639,0.595-3.007,1.791-4.098c1.196-1.094,3.092-2.006,5.689-2.74V542.187z
	 M644.361,542.187c0,2.374-0.336,4.065-1.001,5.074c-0.659,1.006-1.732,1.511-3.203,1.511c-1,0-1.795-0.348-2.388-1.037
	c-0.596-0.695-0.883-1.619-0.883-2.772c0-1.639,0.591-3.007,1.783-4.098c1.197-1.094,3.095-2.006,5.691-2.74V542.187z
	 M552.36,542.187c0,2.374-0.329,4.065-1,5.074c-0.66,1.006-1.733,1.511-3.203,1.511c-1.001,0-1.798-0.348-2.389-1.037
	c-0.595-0.695-0.885-1.619-0.885-2.772c0-1.639,0.599-3.007,1.792-4.098c1.191-1.094,3.087-2.006,5.685-2.74V542.187z"/>
</svg>
