<?xml version="1.0" encoding="utf-8"?>
<!-- Generator: Adobe Illustrator 16.0.0, SVG Export Plug-In . SVG Version: 6.00 Build 0)  -->
<!DOCTYPE svg PUBLIC "-//W3C//DTD SVG 1.1//EN" "http://www.w3.org/Graphics/SVG/1.1/DTD/svg11.dtd">
<svg version="1.1" id="Layer_1" xmlns="http://www.w3.org/2000/svg" xmlns:xlink="http://www.w3.org/1999/xlink" x="0px" y="0px"
	 width="224px" height="168px" viewBox="0 0 224 168" enable-background="new 0 0 224 168" xml:space="preserve">
<defs>
	<filter id="Adobe_OpacityMaskFilter" filterUnits="userSpaceOnUse" x="0" y="0" width="203" height="155">
		<feFlood  style="flood-color:white;flood-opacity:1" result="back"/>
		<feBlend  in="SourceGraphic" in2="back" mode="normal"/>
	</filter>
</defs>
<mask maskUnits="userSpaceOnUse" x="0" y="0" width="203" height="155" id="SVGID_1_">
	<g filter="url(#Adobe_OpacityMaskFilter)">
		<g id="XMLID_4_">
			<path fill="#010101" d="M217.272,24h-60.543c-3.71,0-6.729,3.02-6.729,6.73v130.542c0,3.709,3.02,6.729,6.729,6.729h60.543
				c3.71,0,6.728-3.02,6.728-6.729V30.73C224,27.02,220.982,24,217.272,24L217.272,24z"/>
		</g>
	</g>
</mask>
<g mask="url(#SVGID_1_)">
	<path fill="#010101" d="M195.028,1c3.844,0,6.971,3.129,6.971,6.973V147.03c0,3.844-3.127,6.971-6.971,6.971H7.971
		C4.127,154,1,150.874,1,147.03V7.973C1,4.129,4.127,1,7.971,1H195.028 M195.028,0H7.971C3.587,0,0,3.588,0,7.973V147.03
		C0,151.415,3.587,155,7.971,155h187.058c4.383,0,7.971-3.586,7.971-7.971V7.973C202.999,3.588,199.411,0,195.028,0L195.028,0z"/>
	<path fill="#010101" d="M5.5,77C5.775,77,6,77.227,6,77.502S5.775,78,5.5,78S5,77.777,5,77.502S5.225,77,5.5,77 M5.5,76
		C4.672,76,4,76.672,4,77.502C4,78.33,4.672,79,5.5,79S7,78.33,7,77.502C7,76.672,6.328,76,5.5,76L5.5,76z"/>
	<path fill="#010101" d="M192.501,73c2.48,0,4.498,2.021,4.498,4.504c0,2.48-2.018,4.496-4.498,4.496
		c-2.482,0-4.502-2.018-4.502-4.498C187.999,75.02,190.019,73,192.501,73 M192.501,72c-3.033,0-5.502,2.471-5.502,5.502
		c0,3.033,2.469,5.498,5.502,5.498c3.031,0,5.498-2.465,5.498-5.496C197.999,74.469,195.532,72,192.501,72L192.501,72z"/>
	<path fill="#010101" d="M182.999,13v129H11V13H182.999 M182.999,12H11c-0.553,0-1,0.447-1,1v129c0,0.553,0.447,1,1,1h171.999
		c0.553,0,1-0.447,1-1V13C183.999,12.447,183.552,12,182.999,12L182.999,12z"/>
</g>
<g>
	<path id="XMLID_8_" fill="#010101" d="M217.272,25c3.158,0,5.728,2.57,5.728,5.729V161.27c0,3.16-2.569,5.73-5.728,5.73h-60.543
		c-3.159,0-5.729-2.57-5.729-5.73V30.729c0-3.159,2.57-5.729,5.729-5.729H217.272 M217.272,24h-60.543
		c-3.71,0-6.729,3.019-6.729,6.729V161.27c0,3.711,3.02,6.73,6.729,6.73h60.543c3.71,0,6.728-3.02,6.728-6.73V30.729
		C224,27.019,220.982,24,217.272,24L217.272,24z"/>
	<path fill="#010101" d="M194.5,157c1.379,0,2.5,1.121,2.5,2.5s-1.121,2.5-2.5,2.5h-14.999c-1.379,0-2.501-1.121-2.501-2.5
		s1.122-2.5,2.501-2.5H194.5 M194.5,156h-14.999c-1.931,0-3.501,1.57-3.501,3.5c0,1.932,1.57,3.5,3.501,3.5H194.5
		c1.93,0,3.5-1.568,3.5-3.5C198,157.571,196.43,156,194.5,156L194.5,156z"/>
	<path fill="#010101" d="M191.755,32c0.063,0,0.245,0.173,0.245,0.502c0,0.327-0.183,0.498-0.245,0.498h-9.512
		c-0.061,0-0.243-0.177-0.243-0.498c0-0.324,0.183-0.502,0.243-0.502H191.755 M191.755,31h-9.512c-0.685,0-1.243,0.674-1.243,1.502
		c0,0.826,0.559,1.498,1.243,1.498h9.512c0.688,0,1.245-0.672,1.245-1.498C193,31.674,192.442,31,191.755,31L191.755,31z"/>
	<path fill="#010101" d="M218,39v112h-62V39H218 M218,38h-62c-0.553,0-1,0.447-1,1v112c0,0.553,0.447,1,1,1h62c0.553,0,1-0.447,1-1
		V39C219,38.447,218.553,38,218,38L218,38z"/>
	<path fill="#010101" d="M177.499,32c0.276,0,0.501,0.225,0.501,0.5s-0.225,0.5-0.501,0.5c-0.275,0-0.499-0.225-0.499-0.5
		S177.224,32,177.499,32 M177.499,31c-0.828,0-1.499,0.672-1.499,1.5s0.671,1.5,1.499,1.5c0.83,0,1.501-0.672,1.501-1.5
		S178.329,31,177.499,31L177.499,31z"/>
</g>
</svg>
