<?xml version="1.0" encoding="utf-8"?>
<!-- Generator: Adobe Illustrator 16.0.0, SVG Export Plug-In . SVG Version: 6.00 Build 0)  -->
<!DOCTYPE svg PUBLIC "-//W3C//DTD SVG 1.1//EN" "http://www.w3.org/Graphics/SVG/1.1/DTD/svg11.dtd">
<svg version="1.1" id="Layer_1" xmlns="http://www.w3.org/2000/svg" xmlns:xlink="http://www.w3.org/1999/xlink" x="0px" y="0px"
	 width="202.999px" height="155px" viewBox="0 0 202.999 155" enable-background="new 0 0 202.999 155" xml:space="preserve">
<g>
	<path fill="#010101" d="M195.028,1c3.844,0,6.971,3.129,6.971,6.973V147.03c0,3.844-3.127,6.971-6.971,6.971H7.971
		C4.127,154,1,150.874,1,147.03V7.973C1,4.129,4.127,1,7.971,1H195.028 M195.028,0H7.971C3.587,0,0,3.588,0,7.973V147.03
		C0,151.415,3.587,155,7.971,155h187.058c4.383,0,7.971-3.586,7.971-7.971V7.973C202.999,3.588,199.411,0,195.028,0L195.028,0z"/>
	<path fill="#010101" d="M5.5,77C5.775,77,6,77.227,6,77.502S5.775,78,5.5,78S5,77.778,5,77.502S5.225,77,5.5,77 M5.5,76
		C4.672,76,4,76.672,4,77.502C4,78.331,4.672,79,5.5,79S7,78.331,7,77.502C7,76.672,6.328,76,5.5,76L5.5,76z"/>
	<path fill="#010101" d="M192.501,73c2.48,0,4.498,2.021,4.498,4.504c0,2.48-2.018,4.496-4.498,4.496
		c-2.482,0-4.502-2.018-4.502-4.498C187.999,75.02,190.019,73,192.501,73 M192.501,72c-3.033,0-5.502,2.471-5.502,5.502
		c0,3.033,2.469,5.498,5.502,5.498c3.031,0,5.498-2.465,5.498-5.496C197.999,74.469,195.532,72,192.501,72L192.501,72z"/>
	<path fill="#010101" d="M182.999,13v129H11V13H182.999 M182.999,12H11c-0.553,0-1,0.447-1,1v129c0,0.553,0.447,1,1,1h171.999
		c0.553,0,1-0.447,1-1V13C183.999,12.447,183.552,12,182.999,12L182.999,12z"/>
</g>
</svg>
