<?xml version="1.0" encoding="utf-8"?>
<!-- Generator: Adobe Illustrator 16.0.0, SVG Export Plug-In . SVG Version: 6.00 Build 0)  -->
<!DOCTYPE svg PUBLIC "-//W3C//DTD SVG 1.1//EN" "http://www.w3.org/Graphics/SVG/1.1/DTD/svg11.dtd">
<svg version="1.1" id="Layer_1" xmlns="http://www.w3.org/2000/svg" xmlns:xlink="http://www.w3.org/1999/xlink" x="0px" y="0px"
	 width="34px" height="33.295px" viewBox="0 0 34 33.295" enable-background="new 0 0 34 33.295" xml:space="preserve">
<g>
	<path d="M12.002,12.69c-0.477,0-0.834,0.17-1.073,0.509c-0.239,0.34-0.384,0.794-0.437,1.362l0.03,0.049h2.852v-0.254
		c0-0.536-0.111-0.947-0.333-1.235C12.819,12.833,12.473,12.69,12.002,12.69z"/>
	<path d="M26.505,27.736C31.214,24.91,34,20.262,34,15.163C34,6.802,26.374,0,17.001,0C7.625,0,0,6.802,0,15.163
		c0,8.36,7.625,15.163,17.001,15.163c0.751,0,1.517-0.047,2.282-0.141c2.167,2.371,4.707,3.148,8.021,3.109
		c1.061-0.013,2.377-0.166,2.377-0.166C28.462,32.037,26.734,29.325,26.505,27.736z M16.608,16.679h-6.057l-0.02,0.059
		c0.072,0.542,0.294,0.988,0.667,1.337c0.373,0.349,0.869,0.525,1.49,0.525c0.626,0,1.128-0.049,1.504-0.147
		c0.375-0.099,0.851-0.268,1.426-0.51l0.785,2.02c-0.465,0.339-1.064,0.622-1.799,0.847c-0.736,0.226-1.524,0.338-2.367,0.338
		c-1.562,0-2.809-0.49-3.739-1.47c-0.931-0.98-1.396-2.208-1.396-3.685V15.62c0-1.614,0.422-2.932,1.269-3.955
		c0.846-1.022,2.057-1.53,3.632-1.524c1.437,0,2.565,0.431,3.381,1.294s1.225,2.032,1.225,3.509V16.679z M22.895,13.067
		c-0.252-0.251-0.622-0.377-1.112-0.377c-0.308,0-0.58,0.055-0.818,0.167c-0.239,0.111-0.443,0.264-0.613,0.46v7.626h-3.303V10.337
		h3.107l0.127,1.49c0.346-0.529,0.775-0.942,1.284-1.24s1.078-0.446,1.705-0.446c1.039,0,1.852,0.337,2.436,1.01
		c0.585,0.673,0.878,1.745,0.878,3.215v6.577h-3.313v-6.587C23.271,13.748,23.146,13.319,22.895,13.067z"/>
</g>
</svg>
