<?xml version="1.0" encoding="utf-8"?>
<!-- Generator: Adobe Illustrator 16.0.0, SVG Export Plug-In . SVG Version: 6.00 Build 0)  -->
<!DOCTYPE svg PUBLIC "-//W3C//DTD SVG 1.1//EN" "http://www.w3.org/Graphics/SVG/1.1/DTD/svg11.dtd">
<svg version="1.1" id="Layer_1" xmlns="http://www.w3.org/2000/svg" xmlns:xlink="http://www.w3.org/1999/xlink" x="0px" y="0px"
	 width="46px" height="46px" viewBox="0 0 46 46" enable-background="new 0 0 46 46" xml:space="preserve">
<path d="M40.622,11.904c-0.048-0.925-0.625-1.146-1.28-0.491l-3.31,3.309c-0.655,0.656-2.005,0.378-2.551-0.168l-1.703-1.702
	c-0.546-0.546-0.824-1.896-0.169-2.552l3.278-3.278c0.655-0.655,0.435-1.225-0.492-1.267c0,0-4.665-0.211-7.112,2.236
	c-2.279,2.279-1.531,5.333-1.531,5.333c0.221,0.9-0.135,2.173-0.79,2.828L6.213,34.9c-1.47,1.47-1.47,3.852,0.001,5.323
	c1.469,1.471,3.853,1.471,5.322,0L30.3,21.461c0.655-0.656,1.929-1.017,2.83-0.804c0,0,3.012,0.713,5.272-1.546
	C40.876,16.637,40.622,11.904,40.622,11.904z M7.823,38.615c-0.582-0.582-0.582-1.524,0-2.105c0.582-0.582,1.525-0.582,2.105,0
	c0.581,0.581,0.581,1.523,0,2.105C9.346,39.196,8.405,39.196,7.823,38.615z M16.619,22.129l-5.804-5.804l-3.158-2.098l-1.873-3.873
	l2.393-2.393l3.872,1.874l2.098,3.158l5.804,5.804L16.619,22.129z M38.658,40.834c-1.78,1.779-4.693,1.776-6.478-0.007l-8.896-8.896
	l1.567-1.568l8.047,8.047c0.219,0.22,0.575,0.22,0.794,0l0.324-0.324c0.219-0.219,0.219-0.574,0-0.794l-8.047-8.047l1.097-1.097
	l8.047,8.047c0.219,0.22,0.575,0.22,0.794,0l0.325-0.324c0.219-0.22,0.219-0.575,0-0.795l-8.047-8.047l1.567-1.568l8.896,8.897
	C40.434,36.141,40.438,39.056,38.658,40.834z"/>
</svg>
