<?xml version="1.0" encoding="utf-8"?>
<!-- Generator: Adobe Illustrator 16.0.0, SVG Export Plug-In . SVG Version: 6.00 Build 0)  -->
<!DOCTYPE svg PUBLIC "-//W3C//DTD SVG 1.1//EN" "http://www.w3.org/Graphics/SVG/1.1/DTD/svg11.dtd">
<svg version="1.1" id="Layer_1" xmlns="http://www.w3.org/2000/svg" xmlns:xlink="http://www.w3.org/1999/xlink" x="0px" y="0px"
	 width="32px" height="32px" viewBox="0 0 32 32" enable-background="new 0 0 32 32" xml:space="preserve">
<g>
	<g>
		<path d="M16,0C7.177,0,0,7.178,0,16s7.177,16,16,16c8.823,0,16-7.178,16-16S24.823,0,16,0z M16,30.345
			C8.078,30.345,1.655,23.923,1.655,16S8.078,1.655,16,1.655c7.923,0,14.346,6.422,14.346,14.345S23.923,30.345,16,30.345z
			 M8.177,24.075h3.355V13.288H8.177V24.075z M9.855,7.925c-1.077,0-1.945,0.871-1.945,1.944c0,1.074,0.869,1.944,1.945,1.944
			c1.072,0,1.943-0.871,1.943-1.944C11.799,8.796,10.928,7.925,9.855,7.925z M20.068,13.02c-1.631,0-2.726,0.894-3.172,1.742H16.85
			v-1.474h-3.214v10.787h3.349V18.74c0-1.408,0.266-2.771,2.011-2.771c1.72,0,1.743,1.608,1.743,2.86v5.246h3.351v-5.917
			C24.089,15.253,23.463,13.02,20.068,13.02z"/>
	</g>
</g>
</svg>
