<?xml version="1.0" encoding="utf-8"?>
<!-- Generator: Adobe Illustrator 16.0.0, SVG Export Plug-In . SVG Version: 6.00 Build 0)  -->
<!DOCTYPE svg PUBLIC "-//W3C//DTD SVG 1.1//EN" "http://www.w3.org/Graphics/SVG/1.1/DTD/svg11.dtd">
<svg version="1.1" id="Layer_1" xmlns="http://www.w3.org/2000/svg" xmlns:xlink="http://www.w3.org/1999/xlink" x="0px" y="0px"
	 width="34px" height="34px" viewBox="0 0 34 34" enable-background="new 0 0 34 34" xml:space="preserve">
<g>
	<polygon points="8.72,15.562 8.72,18.438 10.87,17 	"/>
	<polygon points="17.001,14.966 13.961,17 17.001,19.032 20.039,17 	"/>
	<polygon points="24.592,13.954 17.86,9.466 17.86,13.474 21.585,15.966 	"/>
	<polygon points="16.142,13.474 16.142,9.466 9.409,13.954 12.416,15.966 	"/>
	<polygon points="9.409,20.045 16.142,24.533 16.142,20.524 12.416,18.034 	"/>
	<path d="M17,1C8.177,1,1,8.178,1,17s7.177,16,16,16c8.822,0,16-7.178,16-16S25.822,1,17,1z M26.998,20.046
		c0,0.038-0.003,0.075-0.008,0.113c-0.001,0.012-0.004,0.024-0.008,0.036c-0.003,0.025-0.007,0.049-0.014,0.073
		c-0.005,0.013-0.009,0.027-0.014,0.042c-0.007,0.02-0.014,0.042-0.022,0.063c-0.005,0.015-0.013,0.027-0.019,0.042
		c-0.01,0.02-0.019,0.039-0.029,0.058c-0.008,0.012-0.017,0.026-0.024,0.039c-0.012,0.018-0.024,0.036-0.037,0.052
		c-0.009,0.013-0.019,0.026-0.028,0.038c-0.014,0.015-0.028,0.031-0.043,0.046c-0.012,0.011-0.022,0.022-0.035,0.034
		c-0.016,0.014-0.031,0.028-0.048,0.041c-0.013,0.009-0.026,0.02-0.039,0.029c-0.005,0.003-0.01,0.007-0.015,0.01l-9.139,6.093
		c-0.144,0.097-0.31,0.145-0.475,0.145c-0.167,0-0.333-0.048-0.477-0.145l-9.14-6.093c-0.004-0.003-0.009-0.007-0.014-0.01
		c-0.013-0.009-0.026-0.02-0.039-0.029c-0.016-0.013-0.033-0.027-0.048-0.041c-0.013-0.011-0.023-0.022-0.035-0.034
		c-0.014-0.015-0.029-0.031-0.042-0.046c-0.01-0.012-0.021-0.025-0.03-0.038c-0.013-0.017-0.025-0.034-0.036-0.052
		c-0.008-0.013-0.016-0.027-0.024-0.039c-0.011-0.019-0.021-0.038-0.03-0.058c-0.006-0.014-0.013-0.027-0.019-0.042
		c-0.009-0.021-0.016-0.042-0.022-0.063c-0.005-0.014-0.009-0.028-0.013-0.042c-0.007-0.024-0.01-0.048-0.015-0.073
		c-0.002-0.012-0.005-0.024-0.007-0.036c-0.005-0.038-0.007-0.075-0.007-0.113v-6.093c0-0.038,0.002-0.075,0.007-0.112
		c0.001-0.012,0.004-0.025,0.007-0.038c0.004-0.023,0.008-0.048,0.015-0.072c0.004-0.014,0.008-0.027,0.013-0.041
		c0.007-0.021,0.014-0.043,0.022-0.063c0.006-0.014,0.013-0.029,0.019-0.042c0.009-0.02,0.019-0.038,0.03-0.057
		c0.008-0.014,0.017-0.026,0.024-0.039c0.011-0.019,0.023-0.036,0.036-0.053c0.009-0.012,0.02-0.025,0.03-0.037
		c0.013-0.016,0.028-0.031,0.042-0.047C7.26,13.341,7.27,13.33,7.283,13.32c0.016-0.014,0.032-0.028,0.048-0.042
		c0.013-0.01,0.025-0.02,0.039-0.029c0.005-0.003,0.01-0.007,0.014-0.011l9.14-6.092c0.289-0.192,0.664-0.192,0.952,0l9.139,6.092
		c0.005,0.003,0.01,0.007,0.015,0.011c0.013,0.01,0.026,0.02,0.039,0.029c0.017,0.013,0.032,0.027,0.048,0.042
		c0.013,0.01,0.023,0.021,0.035,0.033c0.015,0.016,0.029,0.031,0.043,0.047c0.01,0.012,0.02,0.025,0.028,0.037
		c0.013,0.018,0.025,0.035,0.037,0.053c0.008,0.013,0.017,0.025,0.024,0.039c0.011,0.02,0.02,0.037,0.029,0.057
		c0.006,0.014,0.014,0.028,0.019,0.042c0.009,0.02,0.016,0.041,0.022,0.063c0.005,0.014,0.009,0.027,0.014,0.041
		c0.007,0.024,0.011,0.049,0.014,0.072c0.004,0.013,0.007,0.025,0.008,0.038c0.005,0.037,0.008,0.074,0.008,0.112V20.046z"/>
	<polygon points="17.86,20.524 17.86,24.533 24.592,20.045 21.585,18.034 	"/>
	<polygon points="25.279,18.438 25.279,15.562 23.13,17 	"/>
</g>
</svg>
