<?xml version="1.0" encoding="utf-8"?>
<!-- Generator: Adobe Illustrator 16.0.0, SVG Export Plug-In . SVG Version: 6.00 Build 0)  -->
<!DOCTYPE svg PUBLIC "-//W3C//DTD SVG 1.1//EN" "http://www.w3.org/Graphics/SVG/1.1/DTD/svg11.dtd">
<svg version="1.1" id="Layer_1" xmlns="http://www.w3.org/2000/svg" xmlns:xlink="http://www.w3.org/1999/xlink" x="0px" y="0px"
	 width="34px" height="33.296px" viewBox="0 0 34 33.296" enable-background="new 0 0 34 33.296" xml:space="preserve">
<g>
	<g>
		<path d="M13.878,14.356c0-0.536-0.111-0.948-0.333-1.235c-0.222-0.288-0.569-0.431-1.039-0.431c-0.477,0-0.835,0.169-1.074,0.51
			c-0.238,0.339-0.383,0.793-0.436,1.362l0.029,0.049h2.853V14.356z M34,15.163C34,6.802,26.374,0,17.001,0
			C7.626,0,0,6.802,0,15.163c0,8.36,7.626,15.163,17.001,15.163c0.751,0,1.517-0.048,2.282-0.141
			c2.167,2.372,4.707,3.148,8.021,3.11c1.061-0.013,2.377-0.168,2.377-0.168c-1.219-1.09-2.945-3.802-3.176-5.392
			C31.214,24.91,34,20.262,34,15.163z M11.703,18.075c0.373,0.35,0.869,0.525,1.49,0.525c0.627,0,1.128-0.049,1.504-0.147
			c0.375-0.098,0.852-0.268,1.427-0.51l0.784,2.019c-0.464,0.34-1.063,0.623-1.798,0.848c-0.736,0.226-1.524,0.339-2.367,0.339
			c-1.562,0-2.808-0.491-3.74-1.471c-0.931-0.98-1.396-2.208-1.396-3.686V15.62c0-1.614,0.422-2.932,1.269-3.955
			c0.847-1.022,2.057-1.53,3.632-1.524c1.437,0,2.564,0.431,3.381,1.294c0.816,0.862,1.225,2.032,1.225,3.509v1.735h-6.057
			l-0.02,0.059C11.107,17.28,11.33,17.726,11.703,18.075z M25.056,20.222c-0.848,0.617-1.965,0.927-3.358,0.927
			c-1.444,0-2.585-0.366-3.425-1.099c-0.84-0.731-1.24-1.549-1.201-2.45l0.02-0.059h3c0.012,0.503,0.164,0.866,0.455,1.088
			c0.291,0.222,0.705,0.333,1.24,0.333c0.445,0,0.781-0.086,1.009-0.26c0.229-0.172,0.344-0.419,0.344-0.74
			c0-0.26-0.149-0.495-0.447-0.701c-0.297-0.206-0.837-0.39-1.621-0.554c-1.235-0.241-2.166-0.617-2.793-1.127
			c-0.628-0.51-0.941-1.206-0.941-2.088c0-0.934,0.392-1.726,1.177-2.377c0.783-0.65,1.845-0.975,3.184-0.975
			c1.412,0,2.536,0.315,3.373,0.946c0.836,0.63,1.234,1.446,1.195,2.445l-0.02,0.059h-3.215c0-0.417-0.106-0.735-0.318-0.951
			c-0.213-0.215-0.555-0.323-1.024-0.323c-0.347,0-0.638,0.095-0.873,0.285s-0.352,0.431-0.352,0.725
			c0,0.281,0.135,0.52,0.406,0.716c0.271,0.196,0.819,0.372,1.642,0.529c1.294,0.255,2.252,0.635,2.876,1.142
			s0.938,1.224,0.938,2.151C26.325,18.818,25.9,19.604,25.056,20.222z"/>
	</g>
</g>
</svg>
