<?xml version="1.0" encoding="utf-8"?>
<!-- Generator: Adobe Illustrator 16.0.0, SVG Export Plug-In . SVG Version: 6.00 Build 0)  -->
<!DOCTYPE svg PUBLIC "-//W3C//DTD SVG 1.1//EN" "http://www.w3.org/Graphics/SVG/1.1/DTD/svg11.dtd">
<svg version="1.1" id="Layer_1" xmlns="http://www.w3.org/2000/svg" xmlns:xlink="http://www.w3.org/1999/xlink" x="0px" y="0px"
	 width="39px" height="29.546px" viewBox="0 0 39 29.546" enable-background="new 0 0 39 29.546" xml:space="preserve">
<g>
	<path opacity="0.4" d="M1.182,4.136c0-1.632,1.323-2.955,2.955-2.955h31.91c0.511,0,0.983,0.142,1.403,0.37
		C36.948,0.631,35.984,0,34.863,0H2.955C1.323,0,0,1.323,0,2.955C0,4.076,0.631,5.039,1.551,5.54
		C1.323,5.12,1.182,4.647,1.182,4.136z"/>
	<path opacity="0.4" d="M1.182,15.364c0-1.632,1.323-2.955,2.955-2.955h31.91c0.511,0,0.983,0.141,1.403,0.369
		c-0.501-0.92-1.465-1.551-2.586-1.551H2.955C1.323,11.227,0,12.55,0,14.182c0,1.122,0.631,2.084,1.551,2.585
		C1.323,16.348,1.182,15.875,1.182,15.364z"/>
	<path opacity="0.4" d="M1.182,26.591c0-1.632,1.323-2.955,2.955-2.955h31.91c0.511,0,0.983,0.142,1.403,0.37
		c-0.501-0.92-1.465-1.551-2.586-1.551H2.955C1.323,22.455,0,23.777,0,25.409c0,1.121,0.631,2.084,1.551,2.585
		C1.323,27.575,1.182,27.102,1.182,26.591z"/>
	<path opacity="0.7" fill="#FFFFFF" d="M4.136,1.182h31.91C37.678,1.182,39,2.504,39,4.136s-1.322,2.955-2.954,2.955H4.136
		c-1.632,0-2.955-1.323-2.955-2.955S2.504,1.182,4.136,1.182z"/>
	<path opacity="0.7" fill="#FFFFFF" d="M4.136,12.409h31.91c1.632,0,2.954,1.323,2.954,2.955s-1.322,2.955-2.954,2.955H4.136
		c-1.632,0-2.955-1.323-2.955-2.955S2.504,12.409,4.136,12.409z"/>
	<path opacity="0.7" fill="#FFFFFF" d="M4.136,23.636h31.91c1.632,0,2.954,1.323,2.954,2.955s-1.322,2.955-2.954,2.955H4.136
		c-1.632,0-2.955-1.323-2.955-2.955S2.504,23.636,4.136,23.636z"/>
</g>
</svg>
