<?xml version="1.0" encoding="utf-8"?>
<!-- Generator: Adobe Illustrator 16.0.0, SVG Export Plug-In . SVG Version: 6.00 Build 0)  -->
<!DOCTYPE svg PUBLIC "-//W3C//DTD SVG 1.1//EN" "http://www.w3.org/Graphics/SVG/1.1/DTD/svg11.dtd">
<svg version="1.1" id="Layer_1" xmlns="http://www.w3.org/2000/svg" xmlns:xlink="http://www.w3.org/1999/xlink" x="0px" y="0px"
	 width="34px" height="34px" viewBox="0 0 34 34" enable-background="new 0 0 34 34" xml:space="preserve">
<g>
	<path d="M22.971,2.167l4.321,6.39l-1.447,1.119l-5.569-7.811l0.549-0.383C19.597,1.179,18.32,1,17,1C8.177,1,1,8.178,1,17
		s7.177,16,16,16c8.823,0,16-7.178,16-16C33,10.289,28.842,4.539,22.971,2.167z M18.425,3.446l6.98,6.723l-1.295,1.4l-7.181-6.552
		L18.425,3.446z M15.358,7.103l8.564,4.871l-0.911,1.666l-8.642-4.726L15.358,7.103z M13.367,11.149l9.425,2.967l-0.531,1.827
		l-9.494-2.717L13.367,11.149z M12.22,15.315l9.945,1.196l-0.184,1.923l-9.957-1.066L12.22,15.315z M12.024,19.056h9.951v2.063
		h-9.951V19.056z M25.984,23.011v2.063h-2.063H10.078H8.015v-2.063v-7.889h2.063v7.889h13.844v-7.889h2.063V23.011z"/>
</g>
</svg>
