<?xml version="1.0" encoding="utf-8"?>
<!-- Generator: Adobe Illustrator 16.0.0, SVG Export Plug-In . SVG Version: 6.00 Build 0)  -->
<!DOCTYPE svg PUBLIC "-//W3C//DTD SVG 1.1//EN" "http://www.w3.org/Graphics/SVG/1.1/DTD/svg11.dtd">
<svg version="1.1" id="Layer_1" xmlns="http://www.w3.org/2000/svg" xmlns:xlink="http://www.w3.org/1999/xlink" x="0px" y="0px"
	 width="113px" height="19.79px" viewBox="0 0 113 19.79" enable-background="new 0 0 113 19.79" xml:space="preserve">
<g>
	<path fill="#FFFFFF" d="M48.253,9.89h1.278c0.006,0.09,0.011,0.185,0.014,0.281c0.003,0.097,0.004,0.235,0.004,0.417
		c0,0.798-0.099,1.375-0.295,1.732s-0.514,0.535-0.949,0.535s-0.734-0.203-0.896-0.607c-0.161-0.405-0.241-1.385-0.241-2.938V6.975
		c0-1.542,0.085-2.522,0.257-2.942c0.171-0.42,0.485-0.63,0.943-0.63c0.385,0,0.663,0.17,0.834,0.512
		c0.171,0.341,0.257,0.909,0.257,1.705v0.17h3.093c0-0.066,0.003-0.154,0.009-0.266c0.006-0.11,0.009-0.193,0.009-0.248
		c0-1.471-0.347-2.577-1.04-3.318c-0.694-0.742-1.724-1.112-3.092-1.112c-0.875,0-1.629,0.153-2.265,0.461
		c-0.636,0.307-1.147,0.765-1.533,1.374c-0.266,0.422-0.461,1.054-0.588,1.897c-0.126,0.844-0.189,1.967-0.189,3.371
		c0,1.97,0.09,3.368,0.271,4.193c0.18,0.825,0.49,1.482,0.929,1.97c0.354,0.397,0.771,0.702,1.25,0.913
		c0.478,0.21,1,0.316,1.565,0.316c0.499,0,0.945-0.092,1.339-0.275c0.394-0.183,0.753-0.461,1.078-0.834l0.146,0.868h2.25V7.454
		h-4.438V9.89z"/>
	<path fill="#FFFFFF" d="M59.29,9.905c0,1.299-0.081,2.112-0.242,2.438c-0.162,0.327-0.455,0.489-0.879,0.489
		c-0.419,0-0.71-0.157-0.875-0.471c-0.164-0.314-0.246-1.133-0.246-2.456V1.159h-3.304v7.513c0,1.592,0.05,2.722,0.149,3.392
		c0.099,0.669,0.272,1.217,0.52,1.646c0.344,0.604,0.807,1.042,1.393,1.316c0.584,0.274,1.341,0.411,2.269,0.411
		c1.007,0,1.823-0.146,2.451-0.438c0.626-0.292,1.106-0.752,1.438-1.379c0.199-0.367,0.342-0.799,0.429-1.297
		c0.087-0.497,0.131-1.249,0.131-2.255V1.159H59.29V9.905z"/>
	<polygon fill="#FFFFFF" points="69.245,1.159 67.892,5.567 66.548,1.159 63.042,1.159 66.25,9.188 66.25,15.099 69.579,15.099 
		69.579,9.188 72.786,1.159 	"/>
	<path fill="#FFFFFF" d="M4.248,0.095C3.81,0.158,3.446,0.263,3.157,0.407C2.795,0.588,2.54,0.845,2.392,1.176
		C2.245,1.508,2.17,2.075,2.17,2.877v2.321c0,0.762-0.14,1.299-0.42,1.611S0.992,7.277,0.316,7.277c-0.03,0-0.08-0.003-0.149-0.009
		S0.042,7.259,0,7.259V9.84c0.042,0,0.098-0.003,0.167-0.009s0.119-0.009,0.149-0.009c0.675,0,1.153,0.157,1.434,0.47
		s0.42,0.852,0.42,1.617v2.33c0,0.797,0.074,1.359,0.222,1.688c0.148,0.329,0.403,0.583,0.765,0.765
		c0.283,0.145,0.644,0.249,1.081,0.313S5.314,17.1,6.153,17.1h0.721v-2.581c-0.049,0-0.118,0.003-0.208,0.009
		c-0.091,0.006-0.157,0.009-0.198,0.009c-0.517,0-0.864-0.09-1.041-0.271c-0.177-0.181-0.266-0.56-0.266-1.138v-2.177
		c0-0.799-0.14-1.363-0.421-1.693c-0.281-0.33-0.796-0.564-1.545-0.704c0.743-0.132,1.257-0.367,1.541-0.702
		c0.284-0.335,0.426-0.908,0.426-1.717v-2.15c0-0.588,0.09-0.972,0.271-1.152c0.18-0.18,0.532-0.27,1.055-0.27
		c0.036,0,0.097,0.003,0.185,0.009c0.087,0.006,0.154,0.009,0.203,0.009V0H6.153C5.32,0,4.685,0.031,4.248,0.095z"/>
	<path fill="#FFFFFF" d="M16.881,9.721h-3.208v0.615c0,0.959-0.098,1.615-0.293,1.967s-0.537,0.529-1.022,0.529
		c-0.523,0-0.881-0.243-1.073-0.728c-0.192-0.485-0.288-1.805-0.288-3.958V7.884c0-2.004,0.096-3.24,0.29-3.708
		s0.552-0.702,1.078-0.702c0.482,0,0.827,0.192,1.032,0.575c0.205,0.384,0.313,1.049,0.326,1.997l3.16,0.009V5.919
		c0-1.688-0.381-2.956-1.144-3.803s-1.907-1.271-3.433-1.271c-0.886,0-1.649,0.152-2.288,0.457C9.377,1.607,8.861,2.061,8.47,2.664
		c-0.278,0.435-0.477,1.038-0.597,1.81S7.692,6.47,7.692,8.146c0,1.674,0.06,2.897,0.181,3.668s0.32,1.374,0.597,1.807
		c0.398,0.608,0.92,1.063,1.566,1.364c0.646,0.301,1.421,0.452,2.326,0.452c1.538,0,2.68-0.411,3.425-1.232s1.118-2.082,1.118-3.779
		c0-0.192-0.002-0.336-0.006-0.434C16.895,9.896,16.889,9.806,16.881,9.721z"/>
	<path fill="#FFFFFF" d="M25.614,8.677c-0.319-0.494-1.049-1.103-2.189-1.825c-0.15-0.103-0.268-0.178-0.353-0.226
		c-0.104-0.066-0.252-0.163-0.447-0.289c-1.071-0.662-1.606-1.288-1.606-1.878c0-0.361,0.094-0.652,0.282-0.872
		c0.188-0.219,0.436-0.33,0.746-0.33c0.364,0,0.641,0.157,0.832,0.47s0.287,0.775,0.287,1.384v0.172h2.924
		c0-0.054,0.003-0.129,0.009-0.226c0.006-0.096,0.009-0.172,0.009-0.227c0-1.292-0.354-2.279-1.064-2.961s-1.738-1.023-3.085-1.023
		c-1.239,0-2.211,0.346-2.918,1.039c-0.707,0.692-1.06,1.646-1.06,2.863c0,0.5,0.061,0.96,0.181,1.382
		c0.121,0.421,0.296,0.801,0.525,1.138c0.319,0.445,1.134,1.108,2.444,1.987l0.154,0.099c0.085,0.055,0.206,0.137,0.365,0.245
		c0.979,0.623,1.469,1.272,1.469,1.949c0,0.411-0.1,0.735-0.3,0.974c-0.201,0.239-0.474,0.358-0.82,0.358
		c-0.432,0-0.739-0.158-0.921-0.473c-0.183-0.315-0.273-0.857-0.273-1.627v-0.409h-2.979c-0.018,0.218-0.028,0.377-0.031,0.476
		c-0.003,0.1-0.004,0.195-0.004,0.286c0,1.425,0.354,2.499,1.064,3.221c0.709,0.722,1.771,1.083,3.184,1.083
		c1.346,0,2.382-0.376,3.106-1.13c0.725-0.753,1.087-1.825,1.087-3.217c0-0.476-0.053-0.917-0.158-1.324S25.813,8.997,25.614,8.677z
		"/>
	<path fill="#FFFFFF" d="M34.335,8.677c-0.319-0.494-1.05-1.103-2.189-1.825c-0.15-0.103-0.268-0.178-0.353-0.226
		c-0.104-0.066-0.252-0.163-0.447-0.289c-1.071-0.662-1.606-1.288-1.606-1.878c0-0.361,0.094-0.652,0.282-0.872
		c0.188-0.219,0.437-0.33,0.746-0.33c0.364,0,0.641,0.157,0.832,0.47c0.191,0.313,0.287,0.775,0.287,1.384v0.172h2.924
		c0-0.054,0.003-0.129,0.009-0.226c0.006-0.096,0.009-0.172,0.009-0.227c0-1.292-0.355-2.279-1.064-2.961
		c-0.71-0.682-1.738-1.023-3.085-1.023c-1.239,0-2.212,0.346-2.918,1.039c-0.707,0.692-1.06,1.646-1.06,2.863
		c0,0.5,0.06,0.96,0.181,1.382c0.121,0.421,0.295,0.801,0.525,1.138c0.319,0.445,1.134,1.108,2.444,1.987l0.154,0.099
		c0.085,0.055,0.207,0.137,0.365,0.245c0.979,0.623,1.469,1.272,1.469,1.949c0,0.411-0.1,0.735-0.3,0.974
		c-0.201,0.239-0.474,0.358-0.821,0.358c-0.432,0-0.738-0.158-0.921-0.473c-0.182-0.315-0.273-0.857-0.273-1.627v-0.409h-2.979
		c-0.018,0.218-0.028,0.377-0.031,0.476c-0.003,0.1-0.004,0.195-0.004,0.286c0,1.425,0.354,2.499,1.064,3.221
		c0.709,0.722,1.771,1.083,3.184,1.083c1.347,0,2.382-0.376,3.106-1.13c0.725-0.753,1.087-1.825,1.087-3.217
		c0-0.476-0.053-0.917-0.158-1.324C34.687,9.359,34.534,8.997,34.335,8.677z"/>
	<path fill="#FFFFFF" d="M42.222,7.277c-0.676,0-1.153-0.155-1.434-0.467s-0.42-0.85-0.42-1.611V2.877
		c0-0.784-0.076-1.345-0.227-1.683c-0.15-0.338-0.41-0.6-0.778-0.787c-0.284-0.145-0.643-0.249-1.077-0.313S37.218,0,36.385,0
		h-0.721v2.581c0.054,0,0.123-0.003,0.208-0.009c0.084-0.006,0.144-0.009,0.18-0.009c0.523,0,0.874,0.09,1.054,0.27
		s0.271,0.564,0.271,1.152v2.168c0,0.804,0.141,1.372,0.426,1.704c0.284,0.333,0.797,0.565,1.541,0.698
		c-0.749,0.139-1.264,0.373-1.545,0.703s-0.421,0.893-0.421,1.69v2.168c0,0.588-0.091,0.972-0.271,1.152
		c-0.18,0.18-0.531,0.27-1.054,0.27c-0.036,0-0.096-0.003-0.18-0.009c-0.084-0.006-0.153-0.009-0.208-0.009V17.1h0.847
		c0.784,0,1.388-0.031,1.81-0.091c0.422-0.061,0.77-0.161,1.042-0.3c0.368-0.189,0.627-0.453,0.778-0.792
		c0.151-0.34,0.227-0.905,0.227-1.694v-2.321c0-0.762,0.14-1.299,0.42-1.611s0.758-0.468,1.434-0.468c0.03,0,0.08,0.003,0.149,0.009
		s0.125,0.009,0.167,0.009V7.259c-0.042,0-0.098,0.003-0.167,0.009S42.251,7.277,42.222,7.277z"/>
	<rect x="91.045" y="1.159" fill="#FFFFFF" width="3.256" height="13.94"/>
	<path fill="#FFFFFF" d="M78.525,1.328h-3.189l-4.384,8.44v2.63h4.583v2.701h2.991v-2.701h1.206v-2.388h-1.206V1.328z
		 M75.888,10.011H73.36l2.527-5.575V10.011z"/>
	<polygon fill="#FFFFFF" points="84.117,9.311 86.722,9.311 86.722,15.099 89.905,15.099 89.905,1.159 86.722,1.159 86.722,6.417 
		84.117,6.417 84.117,1.159 80.861,1.159 80.861,15.099 84.117,15.099 	"/>
	<path fill="#FFFFFF" d="M83.39,18.343h-0.944c0,0.02,0.001,0.047,0.002,0.083c0.002,0.036,0.003,0.061,0.003,0.078
		c0,0.2-0.023,0.347-0.07,0.439c-0.047,0.092-0.121,0.139-0.223,0.139c-0.117,0-0.197-0.065-0.24-0.196
		c-0.043-0.13-0.064-0.435-0.064-0.913c0-0.499,0.021-0.807,0.063-0.924c0.042-0.117,0.123-0.176,0.243-0.176
		c0.104,0,0.179,0.043,0.223,0.13c0.044,0.087,0.066,0.233,0.066,0.439v0.098h0.93v-0.06c0-0.457-0.099-0.793-0.297-1.009
		c-0.198-0.215-0.507-0.323-0.928-0.323c-0.468,0-0.798,0.135-0.99,0.403c-0.192,0.269-0.289,0.742-0.289,1.418
		c0,0.677,0.096,1.15,0.288,1.417s0.522,0.402,0.994,0.402c0.417,0,0.728-0.109,0.932-0.326c0.204-0.217,0.307-0.546,0.307-0.987
		c0-0.014-0.001-0.035-0.004-0.063C83.391,18.384,83.39,18.36,83.39,18.343z"/>
	<g>
		<polygon fill="#FFFFFF" points="84.845,15.878 85.888,15.028 85.009,15.028 84.417,15.878 		"/>
		<path fill="#FFFFFF" d="M85.882,16.533c-0.104-0.127-0.238-0.223-0.402-0.288c-0.165-0.064-0.36-0.097-0.586-0.097
			c-0.223,0-0.418,0.03-0.586,0.09c-0.167,0.06-0.306,0.148-0.415,0.266c-0.114,0.125-0.193,0.285-0.24,0.478
			c-0.046,0.193-0.07,0.534-0.07,1.021c0,0.442,0.023,0.764,0.068,0.965c0.046,0.201,0.122,0.362,0.229,0.484
			c0.095,0.105,0.228,0.188,0.399,0.248c0.171,0.059,0.362,0.089,0.572,0.089c0.417,0,0.73-0.103,0.941-0.308
			s0.316-0.511,0.316-0.917v-0.087h-0.904c0,0.008,0.001,0.018,0.003,0.03c0.005,0.063,0.009,0.109,0.009,0.139
			c0,0.149-0.028,0.26-0.083,0.333c-0.056,0.073-0.138,0.11-0.247,0.11c-0.125,0-0.213-0.047-0.264-0.142s-0.077-0.264-0.077-0.507
			c0-0.058,0.004-0.16,0.012-0.305c0-0.016,0.001-0.029,0.003-0.039h1.565v-0.415c0-0.36-0.019-0.614-0.056-0.764
			C86.032,16.769,85.969,16.641,85.882,16.533z M85.228,17.482V17.5h-0.644c-0.002-0.022-0.003-0.047-0.004-0.075
			s-0.001-0.067-0.001-0.117c0-0.181,0.025-0.312,0.076-0.39c0.051-0.079,0.134-0.118,0.251-0.118c0.115,0,0.199,0.041,0.253,0.121
			c0.055,0.081,0.082,0.206,0.082,0.375C85.24,17.333,85.236,17.395,85.228,17.482z"/>
	</g>
	<path fill="#FFFFFF" d="M102.225,16.172c-0.181,0-0.338,0.039-0.474,0.117c-0.135,0.078-0.255,0.198-0.36,0.362v-0.408h-0.902v3.45
		h0.962v-2.157c0-0.187,0.03-0.333,0.091-0.437s0.145-0.157,0.252-0.157c0.092,0,0.155,0.034,0.191,0.102
		c0.036,0.068,0.054,0.24,0.054,0.516v2.133h0.954v-2.407c0-0.386-0.062-0.668-0.185-0.847S102.49,16.172,102.225,16.172z"/>
	<path fill="#FFFFFF" d="M113,3.86V1.159h-7.573v13.94h-0.449c-0.494-0.397-0.753-1.379-0.778-2.946
		c-0.006-0.331-0.012-0.584-0.018-0.759v-0.045c-0.054-1.668-0.584-2.726-1.589-3.172c0.593-0.35,1.03-0.797,1.312-1.341
		c0.281-0.544,0.422-1.218,0.422-2.022c0-0.659-0.098-1.227-0.294-1.704s-0.492-0.879-0.889-1.206
		c-0.337-0.272-0.777-0.464-1.318-0.576c-0.542-0.111-1.412-0.167-2.61-0.167h-3.668v13.94h3.232V9.528h0.658
		c0.569,0,0.963,0.157,1.183,0.47c0.219,0.313,0.329,0.895,0.329,1.746c0,0.096-0.006,0.303-0.018,0.62
		c-0.012,0.316-0.018,0.586-0.018,0.809c0,0.362,0.021,0.701,0.063,1.018c0.042,0.316,0.107,0.62,0.198,0.909h3.697v1.461
		c-0.088-0.135-0.186-0.234-0.295-0.299c-0.11-0.064-0.237-0.097-0.382-0.097c-0.34,0-0.576,0.123-0.708,0.368
		c-0.131,0.246-0.197,0.757-0.197,1.536c0,0.494,0.018,0.832,0.052,1.011c0.035,0.18,0.095,0.323,0.181,0.43
		c0.076,0.089,0.168,0.159,0.279,0.207c0.11,0.049,0.233,0.073,0.368,0.073c0.161,0,0.308-0.041,0.44-0.122s0.244-0.199,0.336-0.354
		v0.38h0.887v-4.595h3.142v4.595h0.954v-4.595H113v-2.821h-4.341V9.214h4.007V6.417h-4.007V3.86H113z M100.605,6.586
		c-0.278,0.273-0.752,0.409-1.422,0.409c-0.042,0-0.106-0.003-0.193-0.009c-0.086-0.006-0.157-0.009-0.21-0.009V3.565
		c0.053,0,0.124-0.003,0.21-0.009c0.087-0.006,0.151-0.009,0.193-0.009c0.669,0,1.144,0.125,1.422,0.377s0.417,0.678,0.417,1.279
		C101.023,5.853,100.884,6.313,100.605,6.586z M104.821,18.803c-0.049,0.133-0.137,0.2-0.265,0.2c-0.112,0-0.189-0.055-0.231-0.165
		c-0.042-0.11-0.063-0.389-0.063-0.835c0-0.429,0.023-0.706,0.068-0.831s0.128-0.188,0.25-0.188c0.116,0,0.198,0.055,0.245,0.165
		c0.047,0.11,0.071,0.312,0.071,0.604C104.895,18.319,104.87,18.67,104.821,18.803z M108.442,16.533
		c-0.104-0.127-0.238-0.223-0.402-0.288c-0.165-0.064-0.36-0.097-0.586-0.097c-0.223,0-0.417,0.03-0.586,0.09
		c-0.167,0.06-0.306,0.148-0.415,0.266c-0.113,0.125-0.193,0.285-0.24,0.478c-0.047,0.193-0.07,0.534-0.07,1.021
		c0,0.442,0.023,0.764,0.068,0.965c0.046,0.201,0.122,0.362,0.23,0.484c0.095,0.105,0.228,0.188,0.398,0.248
		c0.171,0.059,0.362,0.089,0.572,0.089c0.417,0,0.73-0.103,0.941-0.308c0.21-0.205,0.316-0.511,0.316-0.917v-0.087h-0.904
		c0,0.008,0.001,0.018,0.003,0.03c0.006,0.063,0.009,0.109,0.009,0.139c0,0.149-0.027,0.26-0.083,0.333s-0.138,0.11-0.247,0.11
		c-0.125,0-0.212-0.047-0.264-0.142c-0.051-0.095-0.077-0.264-0.077-0.507c0-0.058,0.004-0.16,0.012-0.305
		c0-0.016,0.001-0.029,0.003-0.039h1.566v-0.415c0-0.36-0.019-0.614-0.057-0.764C108.592,16.769,108.529,16.641,108.442,16.533z
		 M107.788,17.482V17.5h-0.645c-0.002-0.022-0.003-0.047-0.004-0.075s-0.001-0.067-0.001-0.117c0-0.181,0.025-0.312,0.076-0.39
		c0.051-0.079,0.134-0.118,0.251-0.118c0.115,0,0.199,0.041,0.254,0.121c0.054,0.081,0.082,0.206,0.082,0.375
		C107.8,17.333,107.796,17.395,107.788,17.482z M112.877,18.729v-1.33c0-0.341-0.027-0.577-0.082-0.706
		c-0.055-0.129-0.149-0.239-0.285-0.331c-0.105-0.069-0.236-0.122-0.392-0.159c-0.156-0.037-0.333-0.055-0.531-0.055
		c-0.441,0-0.77,0.095-0.986,0.285c-0.217,0.189-0.325,0.479-0.325,0.868h0.97v-0.023c0-0.146,0.028-0.254,0.084-0.324
		c0.056-0.07,0.142-0.105,0.257-0.105c0.096,0,0.169,0.026,0.22,0.079c0.051,0.052,0.077,0.129,0.077,0.23
		c0,0.164-0.178,0.312-0.535,0.442c-0.125,0.046-0.223,0.082-0.295,0.11c-0.307,0.124-0.528,0.27-0.663,0.438
		c-0.135,0.169-0.202,0.384-0.202,0.645c0,0.298,0.079,0.535,0.236,0.71c0.158,0.175,0.372,0.263,0.641,0.263
		c0.168,0,0.325-0.033,0.469-0.098c0.143-0.064,0.276-0.162,0.397-0.289l0.057,0.315h1.009c-0.044-0.089-0.075-0.205-0.094-0.347
		C112.886,19.205,112.877,18.999,112.877,18.729z M111.867,18.419c0,0.225-0.032,0.385-0.094,0.48
		c-0.063,0.096-0.164,0.143-0.303,0.143c-0.095,0-0.17-0.033-0.226-0.098c-0.056-0.065-0.083-0.153-0.083-0.262
		c0-0.155,0.056-0.284,0.169-0.388s0.292-0.19,0.538-0.259V18.419z"/>
	<path fill="#FFFFFF" d="M100.158,18.729v-1.33c0-0.341-0.028-0.577-0.082-0.706c-0.055-0.129-0.149-0.239-0.285-0.331
		c-0.105-0.069-0.235-0.122-0.392-0.159c-0.155-0.037-0.333-0.055-0.531-0.055c-0.44,0-0.769,0.095-0.985,0.285
		s-0.325,0.479-0.325,0.868h0.97v-0.023c0-0.146,0.028-0.254,0.084-0.324c0.056-0.07,0.142-0.105,0.257-0.105
		c0.096,0,0.17,0.026,0.221,0.079c0.051,0.052,0.077,0.129,0.077,0.23c0,0.164-0.178,0.312-0.535,0.442
		c-0.125,0.046-0.223,0.082-0.295,0.11c-0.307,0.124-0.528,0.27-0.663,0.438c-0.135,0.169-0.202,0.384-0.202,0.645
		c0,0.298,0.079,0.535,0.237,0.71c0.157,0.175,0.371,0.263,0.641,0.263c0.168,0,0.325-0.033,0.469-0.098
		c0.144-0.064,0.276-0.162,0.397-0.289l0.057,0.315h1.009c-0.044-0.089-0.075-0.205-0.094-0.347
		C100.167,19.205,100.158,18.999,100.158,18.729z M99.148,18.419c0,0.225-0.032,0.385-0.094,0.48
		c-0.063,0.096-0.164,0.143-0.304,0.143c-0.094,0-0.17-0.033-0.226-0.098c-0.056-0.065-0.084-0.153-0.084-0.262
		c0-0.155,0.057-0.284,0.169-0.388s0.292-0.19,0.538-0.259V18.419z"/>
	<path fill="#FFFFFF" d="M92.571,16.725v-0.481h-0.887v3.45h0.961v-1.655c0-0.32,0.03-0.535,0.091-0.645s0.168-0.165,0.323-0.165
		c0.04,0,0.084,0.003,0.133,0.01c0.048,0.006,0.1,0.017,0.153,0.03v-1.097c-0.159,0.016-0.301,0.069-0.427,0.158
		C92.792,16.42,92.677,16.552,92.571,16.725z"/>
	<path fill="#FFFFFF" d="M97.275,18.343h-0.944c0,0.02,0.001,0.047,0.003,0.083c0.002,0.036,0.003,0.061,0.003,0.078
		c0,0.2-0.023,0.347-0.07,0.439c-0.047,0.092-0.121,0.139-0.222,0.139c-0.117,0-0.197-0.065-0.24-0.196
		c-0.043-0.13-0.064-0.435-0.064-0.913c0-0.499,0.021-0.807,0.064-0.924c0.042-0.117,0.123-0.176,0.243-0.176
		c0.104,0,0.179,0.043,0.223,0.13c0.044,0.087,0.066,0.233,0.066,0.439v0.098h0.93v-0.06c0-0.457-0.099-0.793-0.297-1.009
		c-0.198-0.215-0.508-0.323-0.928-0.323c-0.468,0-0.798,0.135-0.991,0.403c-0.192,0.269-0.288,0.742-0.288,1.418
		c0,0.677,0.096,1.15,0.288,1.417c0.191,0.268,0.522,0.402,0.993,0.402c0.417,0,0.728-0.109,0.932-0.326
		c0.205-0.217,0.307-0.546,0.307-0.987c0-0.014-0.001-0.035-0.004-0.063C97.277,18.384,97.275,18.36,97.275,18.343z"/>
	<path fill="#FFFFFF" d="M91.454,18.729v-1.33c0-0.341-0.027-0.577-0.082-0.706c-0.054-0.129-0.149-0.239-0.284-0.331
		c-0.105-0.069-0.235-0.122-0.392-0.159c-0.156-0.037-0.333-0.055-0.531-0.055c-0.441,0-0.77,0.095-0.986,0.285
		c-0.216,0.189-0.324,0.479-0.324,0.868h0.97v-0.023c0-0.146,0.028-0.254,0.083-0.324c0.056-0.07,0.142-0.105,0.257-0.105
		c0.096,0,0.17,0.026,0.221,0.079c0.051,0.052,0.076,0.129,0.076,0.23c0,0.164-0.178,0.312-0.535,0.442
		c-0.124,0.046-0.223,0.082-0.295,0.11c-0.307,0.124-0.528,0.27-0.663,0.438c-0.134,0.169-0.202,0.384-0.202,0.645
		c0,0.298,0.079,0.535,0.236,0.71s0.371,0.263,0.641,0.263c0.169,0,0.325-0.033,0.469-0.098c0.144-0.064,0.276-0.162,0.397-0.289
		l0.057,0.315h1.009c-0.044-0.089-0.075-0.205-0.094-0.347C91.464,19.205,91.454,18.999,91.454,18.729z M90.445,18.419
		c0,0.225-0.032,0.385-0.095,0.48c-0.063,0.096-0.164,0.143-0.303,0.143c-0.095,0-0.17-0.033-0.226-0.098s-0.083-0.153-0.083-0.262
		c0-0.155,0.057-0.284,0.169-0.388s0.292-0.19,0.538-0.259V18.419z"/>
	<path fill="#FFFFFF" d="M87.666,17.518c-0.022-0.009-0.053-0.023-0.093-0.042c-0.289-0.128-0.433-0.268-0.433-0.42
		c0-0.085,0.029-0.155,0.086-0.208c0.058-0.053,0.135-0.08,0.233-0.08c0.109,0,0.189,0.037,0.237,0.111
		c0.049,0.074,0.075,0.198,0.08,0.371l0.842,0.003v-0.063c0-0.335-0.102-0.593-0.305-0.773s-0.494-0.27-0.871-0.27
		c-0.363,0-0.652,0.094-0.865,0.281c-0.213,0.188-0.32,0.439-0.32,0.754c0,0.14,0.026,0.273,0.077,0.401
		c0.052,0.127,0.126,0.239,0.223,0.335c0.137,0.142,0.379,0.293,0.726,0.455c0.067,0.032,0.117,0.056,0.149,0.072
		c0.148,0.069,0.244,0.129,0.287,0.18s0.064,0.114,0.064,0.192c0,0.089-0.031,0.163-0.093,0.219
		c-0.063,0.056-0.142,0.084-0.238,0.084c-0.121,0-0.211-0.041-0.271-0.123c-0.061-0.082-0.096-0.212-0.105-0.391l-0.859-0.003v0.086
		c0,0.347,0.105,0.617,0.315,0.81c0.21,0.192,0.504,0.289,0.882,0.289c0.398,0,0.705-0.096,0.92-0.287
		c0.215-0.191,0.323-0.461,0.323-0.81c0-0.271-0.067-0.49-0.201-0.658C88.324,17.868,88.061,17.695,87.666,17.518z"/>
</g>
</svg>
